<?xml version="1.0" encoding="iso-8859-1"?>
<!-- Generator: Adobe Illustrator 19.0.0, SVG Export Plug-In . SVG Version: 6.00 Build 0)  -->
<svg version="1.1" id="Capa_1" xmlns="http://www.w3.org/2000/svg" xmlns:xlink="http://www.w3.org/1999/xlink" x="0px" y="0px"
	 viewBox="0 0 512.003 512.003" style="enable-background:new 0 0 512.003 512.003;" xml:space="preserve">
<path style="fill:#A5DC69;" d="M354.397,401.774c2.143-2.921,4.982-5.248,8.265-6.78l0,0c4.839-2.258,8.428-6.545,9.8-11.706
	l4.915-18.488l6.161-8.605c4.386-6.125,2.036-14.734-4.854-17.78l-25.222-11.153c-3.023-1.337-5.1-4.188-5.443-7.476
	c-0.299-2.862-1.917-5.42-4.374-6.917l-4.19-2.553c-4.913-2.993-10.007-5.658-15.235-8.021c-1.284,1.359-2.698,2.909-4.256,4.685
	c1.349,15.507-7.417,13.147-9.102,27.305c-1.686,14.159,7.754,19.215,11.462,29.665c3.708,10.451,14.496,8.091,14.823,18.878
	c0.172,5.692-3.213,28.839-6.549,51.269C339.805,421.646,349.492,408.457,354.397,401.774z"/>
<g>
	<path style="fill:#F5B955;" d="M133.504,93.741c-8.273-1.309-31.282-4.954-43.389-6.93c3.823,8.636,8.793,12.173,8.793,12.173
		h29.628C128.536,98.984,130.083,96.172,133.504,93.741z"/>
	<path style="fill:#F5B955;" d="M241.122,213.263L241.122,213.263l19.831,27.16c6.28-1.232,12.068-4.466,16.421-9.333l42.395-47.382
		c9.291-10.384,8.438-26.324-1.906-35.659l-14.063-12.689c-2.204-1.989-5.067-3.09-8.036-3.09h-0.051
		c-6.428,0-11.713,5.066-11.985,11.488c-0.213,5.031-3.546,9.394-8.344,10.922l-3.927,1.251c-3.903,1.243-8.171,0.409-11.319-2.213
		l0,0c-11.571-9.638-12.795-26.968-2.693-38.136l6.054-6.693c1.124-1.242,2.089-2.618,2.876-4.097
		c3.774-7.094,12.387-10.068,19.733-6.814l25.432,11.265c4.391,1.945,9.544,0.571,12.384-3.302c0.047-0.064,0.084-0.132,0.129-0.197
		c-3.294-4.921-5.162-10.559-5.545-16.301L288.7,69.049c-6.378-4.364-8.835-12.592-5.895-19.738l0,0
		c1.236-3.005,3.339-5.574,6.041-7.38l21.951-14.675c4.879-3.262,4.042-10.671-1.442-12.762l-5.143-1.961
		C294.939,9,284.655,9.192,275.52,13.07l-87.781,37.268c-10.301,4.373-18.333,12.813-22.192,23.317l-6.073,16.532l-7.084,1.25
		c13.961,3.957,31.17,16.858,31.17,16.858l29.628,40.633l2.529,35.746C216.72,198.863,227.15,210.599,241.122,213.263z"/>
	<path style="fill:#F5B955;" d="M445.467,63.836c4.58-18.953-7.222-37.992-26.234-42.321l0,0c-4.73-1.077-9.633-1.158-14.397-0.239
		l-41.332,7.979c-0.365,1.395-0.566,2.847-0.566,4.336c0,8.042,5.586,15.006,13.437,16.749l0,0
		c5.854,1.301,10.772,5.244,13.314,10.675l7.351,15.704c1.566,3.346,1.382,7.248-0.49,10.432c-2.05,3.486-2.063,7.805-0.035,11.303
		l9.827,16.943c4.986-5.105,10.774-9.443,17.191-12.815l0,0c9.155-4.81,15.794-13.33,18.223-23.381L445.467,63.836z"/>
</g>
<path d="M382.726,329.268l-24.815-10.974c-0.742-5.748-4.105-10.944-9.065-13.966l-4.189-2.553
	c-12.34-7.519-25.679-13.214-39.645-16.925c-7.903-2.101-16.456,0.017-22.506,5.515l-30.04-38.104
	c-0.115-0.146-0.178-0.327-0.178-0.51c0-0.087,0-0.353,0.256-0.595c0.256-0.243,0.519-0.231,0.607-0.224
	c12.062,0.63,23.617-4.167,31.677-13.176l42.395-47.382c12.926-14.446,11.733-36.764-2.659-49.751l-14.062-12.688
	c-4.049-3.653-9.282-5.666-14.788-5.666c-11.823,0-21.476,9.253-21.975,21.062c-0.035,0.834-0.593,1.565-1.389,1.818l-3.927,1.251
	c-0.651,0.206-1.356,0.07-1.884-0.368c-3.483-2.902-5.579-6.991-5.898-11.515c-0.319-4.524,1.18-8.868,4.222-12.23l6.057-6.695
	c1.676-1.854,3.119-3.91,4.286-6.106c1.305-2.45,4.315-3.492,6.856-2.367l25.431,11.264c8.617,3.818,18.922,1.074,24.499-6.53
	c3.268-4.457,4.556-9.911,3.626-15.359c-0.929-5.449-3.953-10.169-8.516-13.291l-32.756-22.408
	c-2.466-1.688-3.431-4.918-2.295-7.678c0.483-1.175,1.297-2.169,2.352-2.874l21.951-14.676c5.38-3.597,8.271-9.825,7.544-16.255
	c-0.727-6.431-4.934-11.856-10.981-14.162l-5.144-1.961c-11.746-4.478-24.59-4.239-36.162,0.673l-4.979,2.113
	c-5.084,2.158-7.456,8.028-5.298,13.112c2.159,5.084,8.031,7.457,13.112,5.298l4.979-2.113c6.791-2.884,14.329-3.022,21.222-0.396
	l0.128,0.049L283.288,33.62c-4.365,2.918-7.729,7.028-9.731,11.889c-4.706,11.44-0.712,24.811,9.497,31.795l32.754,22.409
	c0.035,0.023,0.078,0.054,0.095,0.147c0.016,0.094-0.015,0.136-0.039,0.169c-0.062,0.083-0.175,0.114-0.271,0.072L290.16,88.837
	c-12.079-5.348-26.403-0.404-32.613,11.265c-0.397,0.749-0.89,1.45-1.46,2.081l-6.057,6.693c-6.729,7.44-10.046,17.049-9.339,27.056
	c0.707,10.007,5.342,19.052,13.049,25.472c5.799,4.832,13.561,6.347,20.753,4.058l3.926-1.251
	c8.762-2.79,14.911-10.838,15.302-20.026c0.045-1.072,0.921-1.911,2.045-1.911c0.495,0,0.97,0.183,1.337,0.515l14.063,12.688
	c6.239,5.631,6.757,15.306,1.153,21.567l-42.395,47.382c-4.001,4.472-9.76,6.845-15.723,6.539
	c-5.685-0.295-11.294,1.772-15.417,5.682c-4.124,3.908-6.491,9.408-6.497,15.092c-0.004,4.661,1.583,9.245,4.47,12.908l10.73,13.61
	l-20.8-10.12l-29.51-40.415c-1.495-2.048-3.713-3.451-6.203-3.926c-6.651-1.268-11.63-6.871-12.108-13.625l-2.012-28.435
	c-0.132-1.872-0.789-3.669-1.895-5.186l-23.568-32.322c-0.585-0.802-1.286-1.513-2.08-2.108
	c-1.853-1.39-18.487-13.641-31.937-15.922c-10.392-1.759-17.945,2.136-22.524,6.515H80.217c-1.918-2.662-4.68-8.14-4.68-17.608
	c0-10.319,2.57-16.172,4.976-18.21c0.748-0.635,1.796-1.239,3.919-0.881c12.024,2.004,50.203,8.034,50.588,8.095
	c1.093,0.172,2.207,0.163,3.298-0.03l22.895-4.041c3.507-0.619,6.42-3.057,7.648-6.399l6.073-16.531
	c2.895-7.88,8.986-14.28,16.713-17.561l8.138-3.455c5.084-2.158,7.456-8.029,5.298-13.113c-2.157-5.083-8.029-7.454-13.112-5.297
	l-8.14,3.456c-12.794,5.433-22.879,16.028-27.67,29.073l-4.09,11.133l-15.583,2.75c-7.482-1.183-38.259-6.055-48.768-7.807
	c-7.451-1.24-14.599,0.658-20.134,5.349c-7.883,6.678-12.049,18.251-12.049,33.471c0,24.655,13.151,34.699,14.651,35.764
	c1.691,1.2,3.714,1.845,5.787,1.845h23.567c3.651,0,7.013-1.99,8.769-5.192c0.012-0.024,1.481-2.328,5.721-1.604
	c6.125,1.039,16.305,7.185,22.117,11.352l20.959,28.745l1.81,25.569c1.017,14.372,10.751,26.515,24.214,30.817l28.869,39.538
	c0.963,1.318,2.233,2.381,3.701,3.095l55.209,26.858c-0.314,1.319-0.984,2.24-2.076,3.733c-2.321,3.174-5.83,7.97-6.902,16.981
	c-1.53,12.851,3.848,20.886,7.774,26.753c1.774,2.651,3.307,4.941,4.192,7.438c2.878,8.111,8.634,11.786,12.072,13.981
	c0.736,0.47,1.707,1.09,2.152,1.466c0.011,0.094,0.021,0.223,0.027,0.391c0.156,5.16-4.024,33.24-7.077,53.744
	c-2.893,19.434-5.392,36.219-5.713,42.163c-0.963,17.813,18.285,30.522,20.482,31.913c1.627,1.029,3.484,1.549,5.348,1.549
	c1.553,0,3.11-0.361,4.541-1.091c3.146-1.604,5.213-4.749,5.438-8.272l0.956-14.986c1.783-7.413,4.019-16.028,5.016-19.078
	c2.963-3.504,8.079-10.412,18.655-24.692c9.908-13.377,20.956-28.417,26.66-36.191c1.144-1.558,2.677-2.814,4.432-3.634
	c7.544-3.52,13.098-10.152,15.237-18.199l4.445-16.721l5.098-7.119c3.851-5.378,5.059-12.121,3.316-18.501
	C393.243,337.135,388.775,331.942,382.726,329.268z M314.674,471.176c0.537-0.463,1.158-1.096,1.941-1.991
	C316.146,469.833,315.503,470.537,314.674,471.176z M375.408,350.372l-6.162,8.604c-0.704,0.982-1.224,2.085-1.534,3.254
	l-4.914,18.487c-0.613,2.305-2.204,4.205-4.367,5.214c-4.79,2.236-8.974,5.669-12.098,9.926
	c-23.542,32.086-40.518,54.954-44.358,59.769c-2.271,1.957-3.518,5.166-5.074,10.795c1.063-7.678,2.521-17.48,3.954-27.102
	c4.664-31.328,7.481-50.817,7.285-57.293c-0.333-11.039-7.537-15.639-11.407-18.108c-2.76-1.762-3.458-2.324-3.986-3.813
	c-1.723-4.854-4.218-8.582-6.419-11.872c-3.601-5.38-5.166-7.981-4.537-13.268c0.453-3.803,1.424-5.129,3.186-7.538
	c3.016-4.123,5.72-8.534,6.081-16.155c0.363-0.639,0.646-1.31,0.857-1.998c1.397-1.498,2.72-2.855,3.947-4.04
	c1.08-1.041,2.582-1.435,4.012-1.058c12.111,3.22,23.677,8.157,34.378,14.678l3.865,2.354c0.835,6.67,5.136,12.47,11.301,15.196
	l25.222,11.152c0.676,0.299,0.946,0.831,1.054,1.225C375.799,349.177,375.838,349.772,375.408,350.372z"/>
<path d="M235.697,39.975c2.63,0,5.21-1.07,7.069-2.93c1.86-1.86,2.931-4.44,2.931-7.07s-1.07-5.21-2.931-7.07
	c-1.859-1.859-4.439-2.93-7.069-2.93c-2.631,0-5.21,1.07-7.07,2.93c-1.86,1.86-2.93,4.44-2.93,7.07s1.069,5.21,2.93,7.07
	C230.487,38.905,233.066,39.975,235.697,39.975z"/>
<path d="M449.697,31.923c-6.39-10.307-16.419-17.465-28.243-20.157c-6.122-1.395-12.35-1.498-18.512-0.308l-42,8.108
	c-0.494,0.095-0.98,0.228-1.454,0.396l-16.988,6.04c-10.802,3.841-18.059,14.125-18.059,25.589c0,12.826,8.745,23.728,21.266,26.511
	c2.806,0.624,5.208,2.55,6.427,5.152l7.352,15.706c0.168,0.358,0.147,0.777-0.054,1.119c-3.874,6.585-3.899,14.781-0.066,21.392
	l13.428,23.148c2.764,4.765,7.901,7.725,13.41,7.725c6.357,0,12.168-3.984,14.455-9.903l0.079-0.203
	c5.121-13.254,14.869-24.193,27.447-30.804c11.699-6.146,20.188-17.038,23.293-29.885l3.713-15.365
	C458.036,54.398,456.086,42.231,449.697,31.923z M435.748,61.488l-3.713,15.365c-1.753,7.256-6.547,13.407-13.154,16.877
	c-14.26,7.493-25.805,19.135-33.18,33.287l-9.036-15.58c-0.219-0.376-0.218-0.842,0.003-1.218
	c3.547-6.028,3.893-13.409,0.928-19.739l-7.351-15.704c-3.83-8.183-11.381-14.237-20.199-16.196
	c-3.301-0.733-5.606-3.607-5.606-6.988c0-3.022,1.913-5.733,4.76-6.746l16.275-5.786l41.259-7.966
	c3.421-0.66,6.881-0.602,10.28,0.171c6.566,1.496,12.137,5.472,15.686,11.195C436.247,48.185,437.329,54.942,435.748,61.488z"/>
<g>
</g>
<g>
</g>
<g>
</g>
<g>
</g>
<g>
</g>
<g>
</g>
<g>
</g>
<g>
</g>
<g>
</g>
<g>
</g>
<g>
</g>
<g>
</g>
<g>
</g>
<g>
</g>
<g>
</g>
</svg>
