<?xml version="1.0"?>
<svg xmlns="http://www.w3.org/2000/svg" xmlns:xlink="http://www.w3.org/1999/xlink" version="1.1" id="Capa_1" x="0px" y="0px" viewBox="0 0 511.998 511.998" style="enable-background:new 0 0 511.998 511.998;" xml:space="preserve" width="512px" height="512px" class=""><g><g>
	<path style="fill:#68777E" d="M474.566,187.709c-6.949-1.206-24.026-0.813-28.644-6.712c-4.441-5.672,3.129-11.099-1.841-16.794   c-2.315-2.652-5.971-0.786-8.32-2.887c-4.017-3.592-2.56-6.109-3.711-10.924c-2.802-11.724-11.042-20.57-18.129-30.019   c-5.133-6.844-15.063-15.791-17.775-23.909c-3.251-9.73,2.424-22.15-0.425-32.214c-2.061-7.283-8.362-12.493-16.051-12.452   c-10.133,0.054-14.132,7.85-18.062,15.698c-8.313,16.601-16.262,33.397-24.39,50.09c-5.011,10.29-13.768,41.257-28.057,40.948   c-21.375-0.463-9.164-29.095-14.953-39.519c-5.084-9.154-24.652-11.781-33.846-14.21c-8.376-2.213-7.08-1.85-12.217,5.179   c-7.512,10.281-15.026,20.562-22.538,30.842c-10.393,14.222-20.424,35.732-36.367,44.082c-13.241,6.935-14.268,6.313-16.365,20.827   c-1.52,10.519-5.007,28.99,12.475,26.649c4.702-0.629,8.09-5.761,13.232-3.335c4.035,1.904,2.795,6.1,5.241,8.541   c6.28,6.267,16.049,3.895,21.679-2.514c4.776-5.437,8.774-15.221,7.653-22.311c-1.414-8.938-6.482-8.867-3.572-16.972   c3.235-9.01,16.118-29.727,27.514-25.073c9.508,3.883,11.65,20.433,16.712,28.562c1.376,2.21,2.551,6.093,5.387,6.129   c2.904,0.037,1.159-5.817,2.736-6.34c0.872-0.289,5.518,10.256,5.487,11.513c-0.202,8.234-10.569,8.902-16.382,13.065   c-6.356,4.554-12.407,11.386-15.156,18.839c-2.071,5.611-1.599,11.5-4.537,17.072c-11.674,22.136-40.495,18.308-61.594,19.862   c-25.916,1.908-53.598,21.119-73.37,36.547c-5.779,4.509-12.109,8.899-14.315,16.289c-1.359,4.552,0.283,8.725-0.654,12.962   c-1.888,8.542-8.148,17.617-11.833,25.585c-10.807-5.112-21.526-10.49-32.449-15.347c-12.955-5.761-20.125-2.231-26.605,9.755   c-6.459,11.947-14.437,24.458-19.266,37.146c-4.987,13.104,6.363,14.465,14.127,22.853c7.021,7.586,5.921,11.365,17.323,10.631   c7.477-0.482,13.152,1.684,20.519,1.862c12.613,0.306,21.942-15.358,29.709-23.672c4.582-4.905,8.874-9.79,15.011-12.881   c9.087-4.578,11.608-2.841,16.926-11.209c6.165-9.701,9.57-9.35,21.359-6.102c9.145,2.519,12.886-0.152,21.078-3.832   c19.365-8.698,16.544,11.896,27.621,21.959c3.284,2.984,25.696,26.204,29.217,25.074c2.066-0.663-20.032-48.968-16.751-54.915   c8.339-15.108,49.155,26.652,51.225,37.205c0.818,4.167-0.825,9.299,0.535,13.3c1.252,3.683,5.598,7.878,7.814,10.997   c5.14,7.234,10.654,19.733,18.173,24.717c12.508,8.291,21.318-12.942,17.056-22.4c-4.046-8.978-19.104-17.173-2.771-22.862   c8.59-2.992,21.217-2.925,28.455-9.003c8.172-6.864,2.607-9.568-0.632-16.702c-4.539-9.995,3.258-22.594,6.816-32.021   c4.324-11.452,5.972-19.556,18.689-11.822c15.859,9.643,18.947,0.282,33.041-4.161c13.853-4.366,32.039,10.391,46.786,11.306   c9.825,0.609,20.924-2.242,30.707-3.29c9.619-1.03,21.952-0.242,31.137-3.336c5.571-1.877,10.217-6.633,5.76-12.447   c-3.526-4.599-12.496-4.382-17.59-5.796c-18.628-5.17-28.885-19.851-23.029-39.198c2.638-8.715,9.843-17.801,6.439-25.738   c-4.068-9.486-15.78-19-22.468-27.054c8.758-7.125,17.312-14.67,26.349-21.437c2.326-1.742,6.235-3.705,8.2-5.63   C484.055,200.914,485.519,189.609,474.566,187.709z" data-original="#78D2FA" class="active-path" data-old_color="#69787F"/>
	<path style="fill:#68777E" d="M81.968,288.148c23.284,0,60.444,4.963,54.018-30.668c-2.008-11.133-8.295-23.366-8.52-34.641   c-0.169-8.509,8.509-22.314,0.849-29.632c-7.124-6.808-30.063-7.103-33.144,3.502c-3.068,10.562,4.262,21.911,0.851,33.162   c-3.161,10.427-8.708,20.614-12.952,30.658C80.884,265.706,67.799,288.148,81.968,288.148z" data-original="#78D2FA" class="active-path" data-old_color="#69787F"/>
</g><path d="M290.765,470.218c-3.774,0-7.609-1.168-11.159-3.521c-7.175-4.756-12.125-13.058-16.493-20.384  c-1.548-2.596-3.01-5.048-4.313-6.882c-0.473-0.665-1.26-1.608-2.094-2.606c-2.616-3.132-5.581-6.682-7.038-10.969  c-1.387-4.076-1.141-7.989-0.942-11.135c0.069-1.093,0.161-2.552,0.089-3.267c-0.94-2.328-6.512-10.222-15.958-19.121  c-5.969-5.624-10.673-9.021-14.021-10.992c2.36,7.604,6.544,18.524,8.934,24.758c6.77,17.67,7.81,20.386,5.507,25.187  c-1.207,2.517-3.419,4.448-6.068,5.297c-6.815,2.184-12.641-2.423-20.765-9.698c-5.265-4.717-11.018-10.397-14.825-14.156  c-1.519-1.498-2.951-2.914-3.427-3.346c-5.33-4.843-8.111-10.895-10.344-15.758c-0.851-1.851-2.082-4.531-2.926-5.648  c-0.564,0.085-1.679,0.353-3.504,1.173c-0.95,0.427-1.837,0.839-2.679,1.231c-6.985,3.247-13.581,6.313-25.167,3.122  c-1.856-0.511-6.023-1.659-7.621-1.701c-0.371,0.356-1.199,1.283-2.617,3.514c-5.143,8.092-9.368,10.149-15.226,12.367  c-1.68,0.635-3.417,1.293-5.65,2.418c-4.094,2.062-7.388,5.604-11.202,9.704l-0.994,1.067c-1.44,1.542-3.067,3.527-4.788,5.63  c-7.46,9.106-17.672,21.576-32.487,21.22c-3.863-0.093-7.255-0.626-10.248-1.097c-3.361-0.528-6.263-0.988-9.384-0.783  c-12.939,0.831-17.417-3.677-21.929-9.664c-0.981-1.302-1.996-2.648-3.396-4.16c-1.573-1.699-3.57-3.139-5.683-4.664  c-5.848-4.218-16.733-12.068-10.457-28.563c3.801-9.985,9.217-19.527,14.456-28.754c1.887-3.325,3.669-6.465,5.361-9.593  c9.299-17.203,22.219-21.83,39.494-14.147c7.426,3.303,14.808,6.865,21.949,10.31c0.666,0.322,1.332,0.643,1.998,0.964  c2.741-5.049,5.531-10.24,6.475-14.517c0.129-0.585,0.054-1.861-0.021-3.096c-0.161-2.708-0.383-6.418,0.856-10.569  c2.952-9.884,10.397-15.636,16.379-20.258l1.376-1.066c7.934-6.192,20.041-15.311,33.506-22.984  c4.812-2.74,10.931-1.063,13.672,3.747c2.74,4.809,1.063,10.93-3.746,13.671c-12.335,7.028-23.657,15.563-31.099,21.371  l-1.452,1.126c-4.464,3.45-8.321,6.43-9.426,10.13c-0.227,0.757-0.146,2.092-0.054,3.638c0.141,2.361,0.316,5.301-0.416,8.617  c-1.578,7.139-5.325,14.035-8.629,20.121c-1.454,2.677-2.828,5.206-3.894,7.51c-1.122,2.426-3.166,4.304-5.68,5.215  c-2.513,0.912-5.285,0.781-7.703-0.362c-3.623-1.714-7.239-3.458-10.853-5.202c-7.001-3.379-14.242-6.872-21.383-10.047  c-3.655-1.627-6.493-2.195-7.988-1.609c-0.928,0.365-2.906,1.756-5.726,6.972c-1.79,3.312-3.708,6.689-5.563,9.957  c-4.866,8.572-9.899,17.436-13.153,25.987c-0.398,1.047-0.518,1.683-0.554,1.992c0.672,0.781,2.651,2.209,4,3.182  c2.556,1.842,5.736,4.137,8.668,7.305c2.088,2.255,3.532,4.172,4.694,5.712c0.45,0.597,0.983,1.305,1.343,1.73  c0.48,0.055,1.474,0.112,3.286-0.006c5.333-0.343,9.824,0.362,13.787,0.984c2.611,0.411,5.079,0.798,7.622,0.86  c0.036,0.001,0.074,0.001,0.111,0.001c5.007,0,11.577-8.019,16.383-13.886c1.935-2.361,3.763-4.592,5.646-6.609l0.966-1.036  c4.479-4.816,9.557-10.275,16.862-13.954c3.171-1.598,5.715-2.561,7.574-3.264c3.391-1.283,3.456-1.308,5.401-4.369  c9.729-15.31,19.177-14.053,32.481-10.389c4.49,1.236,5.545,0.745,11.394-1.974c0.915-0.426,1.881-0.875,2.914-1.338  c9.145-4.108,16.919-3.947,23.1,0.477c5.016,3.588,7.536,9.077,9.761,13.918c1.699,3.701,3.306,7.197,5.608,9.288  c0.187,0.169,0.399,0.368,0.645,0.602c-5.69-16.2-6.532-22.729-3.696-27.867c3.485-6.314,10.118-9.374,17.757-8.176  c18.873,2.955,49.529,35.297,52.079,48.295c0.617,3.144,0.428,6.159,0.275,8.581c-0.071,1.136-0.178,2.833-0.067,3.464  c0.417,0.926,2.297,3.177,3.427,4.53c1.044,1.25,2.124,2.543,3.05,3.846c1.769,2.49,3.431,5.276,5.19,8.227  c3.067,5.143,6.872,11.527,10.21,13.845c1.833-1.96,3.412-7.702,2.52-9.835c-0.603-1.338-2.278-3.383-3.758-5.187  c-3.829-4.671-9.073-11.068-6.807-19.112c2.308-8.196,10.835-11.166,13.637-12.141c3.676-1.28,7.624-2.042,11.441-2.777  c5.196-1.001,10.558-2.036,13.421-4.092c-0.875-1.407-1.915-3.125-2.869-5.225c-5.47-12.043,0.127-24.8,4.214-34.116  c0.885-2.019,1.722-3.925,2.35-5.589c0.331-0.876,0.646-1.731,0.949-2.56c2.73-7.427,5.554-15.107,13.572-17.908  c7.288-2.544,14.192,0.847,18.752,3.62c6.237,3.793,6.985,3.384,12.805,0.216c3.083-1.678,6.92-3.766,12.017-5.372  c11.547-3.638,23.437,1.28,33.928,5.619c5.901,2.441,12.002,4.965,16.491,5.242c5.485,0.343,12.117-0.724,18.53-1.753  c3.449-0.554,7.016-1.127,10.489-1.498c3.45-0.37,7.128-0.523,10.687-0.673c3.372-0.141,6.803-0.285,9.999-0.606  c-1.01-0.187-2.015-0.404-2.991-0.676c-12.421-3.447-22.175-10.642-27.467-20.258c-5.069-9.21-5.924-20.103-2.475-31.502  c0.995-3.29,2.378-6.322,3.716-9.254c1.394-3.058,3.729-8.178,3.106-9.628c-2.029-4.73-7.784-10.639-12.861-15.852  c-2.935-3.012-5.705-5.858-8.107-8.749c-1.709-2.059-2.525-4.715-2.264-7.378c0.26-2.663,1.574-5.112,3.65-6.801  c2.865-2.331,5.784-4.771,8.606-7.13c5.81-4.857,11.818-9.88,18.062-14.555c1.27-0.95,2.657-1.811,3.999-2.643  c1.015-0.628,2.712-1.681,3.21-2.139c0.652-0.638,1.093-1.417,1.34-2.062c-1.339-0.198-3.364-0.371-5.495-0.551  c-10.137-0.86-22.756-1.93-28.909-9.79c-4.468-5.705-3.809-11.584-2.988-15.241c-1.855-0.481-3.99-1.383-5.964-3.149  c-5.745-5.138-6.191-10.462-6.457-13.644c-0.078-0.93-0.14-1.666-0.32-2.419c-1.808-7.564-7.005-14.227-12.508-21.281  c-1.31-1.679-2.618-3.359-3.892-5.056c-1.358-1.812-3.286-3.992-5.326-6.302c-5.355-6.058-11.423-12.925-13.936-20.446  c-2.37-7.094-1.52-14.318-0.769-20.691c0.543-4.612,1.056-8.967,0.206-11.97c-0.888-3.136-3.366-5.158-6.319-5.158  c-0.012,0-0.022,0-0.034,0c-3.391,0.018-4.93,1.727-9.152,10.161c-5.513,11.007-10.968,22.32-16.246,33.258  c-2.692,5.581-5.384,11.163-8.096,16.733c-0.843,1.729-1.977,4.569-3.176,7.576c-6.212,15.56-15.577,39.007-33.654,39.01  c-0.152,0-0.303-0.001-0.456-0.005c-6.891-0.149-12.433-2.378-16.472-6.622c-7.171-7.538-6.858-18.698-6.605-27.666  c0.094-3.325,0.251-8.891-0.449-10.437c-1.965-3.535-16.651-6.812-21.477-7.888c-2.218-0.495-4.314-0.962-6.139-1.444  c-0.152-0.041-0.311-0.082-0.47-0.124c-0.333,0.472-0.696,0.98-1.095,1.526l-22.538,30.842c-2.514,3.439-5.07,7.438-7.776,11.673  c-8.375,13.103-17.868,27.955-32.033,35.374c-1.065,0.558-2.054,1.068-2.97,1.542c-2.749,1.419-5.866,3.028-6.446,3.691  c-0.648,1.012-1.425,6.384-1.68,8.149l-0.206,1.41c-0.419,2.832-1.642,11.115-0.653,13.963c0.364,0.034,0.964,0.044,1.867-0.064  c0.36-0.149,1.087-0.553,1.63-0.856c3.11-1.733,9.582-5.337,17.426-1.636c6.348,2.996,8.05,8.55,8.775,11.043  c0.306,0.139,0.682,0.222,1.194,0.207c1.692-0.056,3.712-1.145,5.143-2.773c3.275-3.728,5.842-10.595,5.283-14.13  c-0.303-1.911-0.807-2.822-1.642-4.332c-2.282-4.128-4.466-9.231-1.464-17.594c2.15-5.986,11.326-24.428,24.84-30.449  c5.37-2.393,10.869-2.57,15.897-0.516c10.395,4.246,14.52,15.285,17.833,24.156c0.456,1.22,0.917,2.455,1.378,3.62  c2.775-0.518,5.683,0.145,8.005,1.867c4.342,3.219,9.439,15.586,9.335,19.75c-0.299,12.111-10.6,16.474-16.134,18.818  c-1.727,0.732-3.512,1.487-4.431,2.146c-5.336,3.824-9.778,9.249-11.59,14.16c-0.566,1.536-0.885,3.388-1.253,5.532  c-0.622,3.63-1.398,8.148-3.823,12.746c-3.889,7.376-9.599,13.128-16.971,17.095c-2.668,1.436-5.616,2.668-8.761,3.66  c-5.277,1.663-10.909-1.263-12.575-6.541c-1.666-5.279,1.262-10.909,6.541-12.575c1.949-0.615,3.731-1.354,5.294-2.196  c3.908-2.103,6.685-4.897,8.74-8.793c0.939-1.779,1.337-4.098,1.797-6.785c0.468-2.726,0.998-5.816,2.204-9.083  c3.219-8.727,10.044-17.298,18.721-23.515c1.834-1.314,3.772-2.31,5.635-3.157c-2.702-2.288-4.232-5.262-5.017-6.791  c-0.177-0.344-0.42-0.816-0.519-0.976c-2.219-3.563-3.815-7.835-5.358-11.966c-1.478-3.956-4.189-11.213-6.419-12.507  c-3.378,0.77-11.546,10.831-14.506,19.075c-0.077,0.215-0.136,0.394-0.179,0.539c0.104,0.192,0.22,0.401,0.319,0.58  c1.213,2.193,3.045,5.508,3.898,10.9c1.68,10.615-3.771,23.374-10.022,30.492c-5.138,5.849-12.261,9.341-19.546,9.579  c-6.343,0.205-12.281-2.132-16.744-6.586c-1.539-1.536-2.517-3.179-3.177-4.668c-1.828,0.948-4.104,1.93-6.884,2.302  c-9.932,1.33-15.794-2.214-18.959-5.423c-8.332-8.446-6.306-22.167-4.964-31.246l0.197-1.347  c2.423-16.769,5.719-20.047,18.769-26.785c0.884-0.457,1.837-0.948,2.866-1.487c9.445-4.947,17.068-16.876,24.444-28.413  c2.879-4.505,5.599-8.76,8.481-12.703l22.538-30.842c0.643-0.879,1.176-1.646,1.637-2.308c2.119-3.043,4.521-6.493,9.426-7.758  c3.848-0.992,7.185-0.11,11.806,1.11c1.45,0.383,3.362,0.81,5.384,1.261c11.944,2.665,28.301,6.315,34.664,17.774  c3.348,6.027,3.138,13.476,2.936,20.681c-0.099,3.531-0.332,11.8,1.091,13.285c0.12,0.084,0.848,0.366,2.383,0.399  c-0.017-0.002,2.375-0.613,6.458-7.553c3.348-5.689,6.259-12.983,8.6-18.844c1.399-3.503,2.607-6.528,3.77-8.918  c2.701-5.548,5.383-11.107,8.065-16.666c5.308-11.004,10.797-22.384,16.376-33.524c4.215-8.419,10.586-21.146,26.97-21.233  c0.048,0,0.097,0,0.145,0c11.978,0,22.255,7.918,25.603,19.746c1.936,6.844,1.128,13.713,0.413,19.774  c-0.554,4.705-1.077,9.148-0.126,11.995c1.22,3.653,6.057,9.125,9.943,13.521c2.315,2.619,4.501,5.094,6.344,7.548  c1.198,1.598,2.43,3.176,3.661,4.756c6.271,8.04,13.377,17.151,16.196,28.948c0.445,1.861,0.626,3.449,0.739,4.704  c2.566,0.391,6.119,1.436,9.096,4.847c5.862,6.716,4.221,13.811,3.296,17.41c3.501,1.103,10.438,1.691,13.707,1.968  c2.937,0.25,5.473,0.464,7.646,0.842c7.782,1.35,13.459,6.029,15.577,12.838c2.372,7.623-0.341,16.964-6.752,23.245  c-1.982,1.941-4.466,3.482-6.66,4.841c-0.974,0.604-1.983,1.229-2.547,1.652c-5.811,4.351-11.61,9.199-17.218,13.887  c-0.193,0.161-0.388,0.324-0.582,0.486c0.066,0.068,0.133,0.136,0.199,0.204c6.294,6.463,13.428,13.788,16.924,21.938  c4.117,9.6,0.011,18.608-3.29,25.846c-1.112,2.439-2.162,4.742-2.768,6.746c-1.876,6.2-1.591,11.594,0.851,16.029  c2.706,4.918,7.985,8.586,15.266,10.607c0.869,0.242,2.402,0.477,3.882,0.706c5.91,0.91,14.002,2.156,18.982,8.651  c3.609,4.708,4.733,10.131,3.165,15.272c-1.762,5.78-6.748,10.435-13.68,12.772c-7.554,2.545-16.228,2.908-23.88,3.227  c-3.387,0.141-6.586,0.276-9.389,0.575c-2.95,0.316-6.106,0.823-9.447,1.359c-7.493,1.203-15.24,2.446-22.949,1.969  c-7.824-0.485-15.494-3.658-22.912-6.727c-7.333-3.033-15.643-6.474-20.24-5.024c-3.246,1.023-5.778,2.402-8.46,3.861  c-7.443,4.05-16.705,9.093-32.803-0.695c-0.471-0.287-0.885-0.522-1.247-0.716c-0.611,1.43-1.292,3.28-1.848,4.792  c-0.324,0.882-0.659,1.791-1.01,2.722c-0.815,2.156-1.796,4.395-2.746,6.561c-2.712,6.183-6.088,13.879-4.32,17.774  c0.496,1.095,1.162,2.161,1.865,3.29c2.687,4.31,8.98,14.403-3.913,25.232c-6.711,5.636-15.344,7.3-22.961,8.769  c-2.423,0.467-4.745,0.915-6.724,1.443c0.054,0.066,0.107,0.131,0.159,0.195c2.268,2.766,4.837,5.902,6.534,9.663  c4.636,10.284,0.783,26.036-8.244,33.708C299.431,468.648,295.14,470.217,290.765,470.218z" data-original="#000000" class=""/><path d="M189.822,289.438c-5.195,0-9.626-4-10.025-9.261c-0.42-5.52,3.673-10.332,9.193-10.751l0.146-0.011  c5.534-0.424,10.377,3.714,10.796,9.231c0.42,5.52-3.673,10.332-9.193,10.751l-0.146,0.011  C190.334,289.429,190.076,289.438,189.822,289.438z" data-original="#000000" class=""/><path d="M98.511,298.407c-3.076,0-6.098-0.063-9.003-0.125c-2.671-0.056-5.194-0.109-7.539-0.109c-8.356,0-12.406-4.479-14.077-7.15  c-5.584-8.926-0.688-20.701,4.808-31.997c0.467-0.96,0.95-1.955,1.138-2.397c1.473-3.487,3.089-6.975,4.653-10.35  c3.101-6.693,6.03-13.015,7.941-19.317c1.037-3.422,0.265-7.624-0.631-12.49c-1.132-6.149-2.415-13.119-0.253-20.56  c2.01-6.919,7.772-11.982,16.227-14.256c10.165-2.735,25.348-1.454,33.465,6.304c9.398,8.979,6.014,21.368,3.775,29.567  c-0.692,2.536-1.555,5.691-1.526,7.112c0.104,5.226,2.08,11.338,4.172,17.81c1.602,4.953,3.258,10.075,4.191,15.253  c2.257,12.514,0.215,22.591-6.069,29.951C130.229,296.84,113.736,298.407,98.511,298.407z M86.264,278.167  c1.197,0.021,2.417,0.046,3.667,0.072c12.362,0.262,29.292,0.619,34.605-5.603c2.19-2.565,2.723-7.065,1.586-13.376  c-0.695-3.852-2.076-8.123-3.537-12.644c-2.447-7.57-4.978-15.396-5.14-23.577c-0.086-4.312,1.092-8.623,2.231-12.793  c0.788-2.886,2.245-8.222,1.69-9.813c-2.913-2.489-13.862-2.769-16.678-0.508c-0.66,2.841,0.031,6.599,0.826,10.919  c1.137,6.172,2.55,13.855,0.1,21.935c-2.317,7.642-5.681,14.904-8.935,21.927c-1.562,3.37-3.036,6.552-4.375,9.723  c-0.394,0.931-0.916,2.005-1.577,3.365C88.584,272.198,87.094,275.665,86.264,278.167z" data-original="#000000" class=""/></g> </svg>
