<svg xmlns="http://www.w3.org/2000/svg" xmlns:xlink="http://www.w3.org/1999/xlink" version="1.1" x="0px" y="0px" viewBox="0 0 100 125" style="enable-background:new 0 0 100 100;" xml:space="preserve"><path d="M25.19686,61.13434c-0.16144-0.03215-0.32288-0.06431-0.48432-0.09646h-0.40229l-0.09578,0.21072h-0.28735  l-0.13409,0.24903h-0.26819l0.28735-0.45975l0.51723-0.68963l0.80457-0.61301h0.61301l0.47891-0.4406h-0.36397l-0.22988,0.15325  l-0.38313-0.24903h-0.45975l-0.03831-0.21072h-0.78542l-0.11494-0.40229l0.47891-0.3065l0.42144-0.13409l0.12452-0.61301  l-0.0862-0.45975l-0.49807,0.13409V57.0725l0.3065-0.28735l-0.1341-0.21072l0.09578-0.36398l0.31608,0.32566l0.56512-0.05747  l0.05747-0.15325l0.42144,0.19156l-0.07663-0.51722l0.24836-0.73584l-0.41108-0.58415l-0.2452-0.39666l0.11539-0.51204  L25.406,53.65566l-0.33175,0.20193l-0.34617-0.05769l-0.28848,0.17308l-0.2452-0.18751h-0.30289l0.03606-0.28847l0.31732-0.43993  l0.11539-0.39665l-0.22357-0.38223l0.18029-0.28126l-0.18751-0.12982l-0.2452,0.28848l-0.17308-0.22356l-0.15145,0.03606  l-0.10818,0.88706l-0.12981-0.08655l0.06491-0.851l0.05048-0.23077v-0.49762l0.3678-0.51204l-0.05048-0.16587l-0.27405,0.25241  l-0.22357,0.23078v0.23078l-0.27405,0.07212l-0.22357-0.05048l0.09375-0.20193l-0.01442-0.15145l0.3678-0.38223l0.12981-0.4255  l0.05048-0.3029l-0.08654-0.23078l-0.07212-0.31732l0.17308-0.36781l-0.11539-0.15866l0.10818-0.11539l0.36059-0.08655  l0.00721-0.39665l-0.10818-0.14423l0.09376-0.11539h0.22357l0.02885-0.4904h0.43992h0.6707l0.12981-0.10097l0.19472-0.07212h0.32453  l0.07212,0.32453l-0.25241,0.21635l-0.74282,0.81494l0.11539,0.10818l-0.08654,0.13702l-0.08654,0.14424l0.03606,0.29568  l0.23078-0.14424l0.4904-0.16587l0.56252-0.02164L26.87,48.93912l0.19472,0.28127l-0.27405,0.38223l-0.02164,0.33895  c0,0-0.17308,0.37502-0.17308,0.41108c0,0.03606-0.27405,0.3606-0.27405,0.3606l-0.21635,0.26683l-0.27405,0.00721l-0.03606,0.17309  l0.1226,0.09375l0.10818-0.02163l0.10097,0.07212l0.02164,0.14424l-0.26684-0.02164l-0.08654,0.10818l-0.2452,0.27405  l0.15145,0.11539l0.41829,0.07933l0.4255-0.02885l0.28126,0.25242l0.21195,0.38536l0.21354,0.206l0.07212,0.53368l0.26684,0.56253  l0.15145,0.42685l0.3029,0.30154l0.37502,0.14424l0.25241,0.31011l0.04327,0.851l0.17308,0.20193l0.15145,0.16587l0.08654,0.33175  l-0.23799,0.31732l0.12981,0.17309l0.44714-0.02885l0.25963-0.16587l0.46156,0.1226l0.23799,0.25962v0.4832l-0.08654,0.36059  l-0.31011,0.39665l-0.31011,0.37502l-0.44713,0.28847l0.06491,0.22357l0.41829,0.13702l0.34617-0.08654l0.08654,0.10096  l-0.07933,0.1875l-0.95918,0.57695l-0.20193-0.03606l-0.15866-0.10096l-0.80051,0.13702l-0.3678-0.1226l-0.16587,0.10096  l-0.15145,0.08654l-0.23078-0.05769l-0.41829,0.16587l-0.60579-0.15145l-0.38223,0.1226l-0.28126,0.27406  C25.32186,60.90356,25.25936,61.01895,25.19686,61.13434z"/><polygon points="22.75925,53.24121 23.06508,54.00747 23.4099,54.2565 23.4099,54.563 22.75925,55.23348   22.66279,55.36757 22.75925,55.98058 22.87352,56.72768 22.75925,57.49394 22.54786,57.91538 22.54786,58.14526 22.03063,58.14526   21.83907,58.14526 21.45594,58.2602 20.9004,58.81573 20.21077,59.17971 19.52114,59.17971 19.52114,58.95156 19.18699,59.00925   19.34084,58.76886 19.03313,58.79771 18.89851,58.59578 19.18699,58.29768 19.02352,58.19191 19.12929,58.1246 19.36969,58.08614   19.32161,57.8842 19.45623,57.69189 19.79278,57.56689 19.7447,57.42265 19.29276,57.52842 19.34084,57.3938 19.54277,57.20148   19.55239,56.98994 19.77355,56.83609 19.73408,56.6401 19.437,56.6053 19.30238,56.4803 18.97304,56.46107 19.04515,56.15096   18.9514,55.9923 19.29036,55.8697 19.61489,55.63892 19.54998,55.37208 19.26872,55.42978 19.26151,55.20621 19.30478,55.04034   19.15333,54.87447 19.43459,54.75186 19.82403,54.83841 20.03318,54.96101 20.42262,54.8961 20.79763,54.53551 20.94908,54.24703   20.73994,54.11001 20.58128,54.08116 20.76157,53.83596 20.70388,53.60518 21.00677,53.35998 21.41785,53.1941 21.51882,53.32392   21.60536,53.1941 21.73517,53.10756 21.90825,53.10756 22.10298,53.30949 "/><polygon points="23.05494,49.85502 23.26408,49.66751 23.05494,49.58818 22.9107,49.55212 22.86743,49.1699   22.75925,49.1699 22.7881,48.93912 22.62223,48.93912 22.56453,49.20596 22.44193,49.35019 22.47799,49.48001 22.67271,49.47279   22.72319,49.73963 "/><polygon points="22.02365,48.15303 22.2977,47.73474 22.61502,47.49675 22.81695,47.61214 22.57174,47.95831   22.58617,48.34053 22.26885,48.4992 "/><polygon points="6.87787,36.49847 7.56751,36.49847 8.19967,36.40268 9.34906,37.20725 9.65556,37.20725   10.15363,37.4946 10.69001,37.4946 11.13061,37.34135 11.62868,36.78581 12.03096,36.69003 12.20337,36.40268 12.50987,36.57509   12.75891,36.40268 13.44854,35.73221 14.25311,35.52148 14.6554,35.10004 14.6554,34.8127 15.19178,34.52535 15.44081,34.19969   15.07684,33.89319 15.53659,33.89319 15.53659,33.625 15.42165,33.31849 15.53659,32.8495 15.38875,32.58987 14.95604,32.41679   14.8118,32.21486 14.39352,32.21486 14.42236,31.59464 14.19158,31.42155 14.17716,31.01769 13.74445,31.19077 13.52809,30.87345   13.31174,30.44074 12.90788,30.54171 12.87903,31.2052 12.41747,31.37828 12.14342,31.24847 11.94149,31.6956 11.66744,31.6956   11.39339,31.32059 11.20723,31.32059 11.20723,31.62349 11.33569,32.07062 11.278,32.27255 11.07607,31.88311 10.81644,31.68118   10.57124,31.17635 10.03756,31.66676 10.09526,32.21486 9.83563,32.3014 9.25868,31.36386 9.04233,31.46482 9.20099,31.9985   9.17214,32.63314 8.62404,32.53218 8.2923,33.3976 8.17691,33.02258 8.06152,32.57545 7.84516,32.27255 8.16248,31.89754   7.96055,31.62349 7.6865,31.49367 7.02301,30.52728 6.54703,30.58498 6.40279,30.77249 6.53261,30.88788 6.79223,30.77249   7.02301,30.97442 6.63357,31.13308 6.69127,31.24847 7.02301,31.40713 7.1384,31.89754 6.8932,31.65233 6.73454,31.62349   6.648,31.72445 6.27298,31.19077 6.05663,31.29174 5.97008,31.56579 5.76094,31.59464 6.04941,31.89754 5.76094,31.94081   5.99172,32.10668 6.28019,32.26534 6.11432,32.51054 5.57343,32.18601 5.65276,32.48891 5.57343,32.66199 5.24169,32.51054   5.14793,32.73411 5.64555,32.9721 6.09269,32.73411 6.57588,32.58987 6.83551,32.56102 6.97974,32.43121 7.1961,32.61151   7.65766,32.87113 7.54948,33.08749 7.00859,33.42645 7.41966,33.63559 7.6865,33.44087 7.69371,33.81588 7.47015,33.96767   6.85714,33.96767 6.31625,34.13321 5.797,34.1909 5.76094,34.47216 5.98451,34.34235 6.39558,34.30629 7.12398,34.35677   7.29706,34.65246 7.28985,35.03469 7.72256,34.74621 7.64323,35.12123 7.73699,35.22219 8.07594,35.33037 7.72256,35.66933   7.69371,35.96502 7.31149,36.21743 7.00138,36.28233 6.82829,36.23185 6.79223,36.36166 "/><path d="M87.98631,60.46319l0.5747-0.1341l0.22987-0.68963l-0.70879-0.34481l-0.09579-0.22988h-0.49806  l0.11494-0.26819l-0.53638-0.3065l-1.69854-1.13023l-0.28096-0.56192V56.236l0.81734-1.83902l0.05109-0.94505l-0.56193-0.66409  h-1.12384l-1.66023,0.43421l-0.76626-0.33204l-0.40867-0.76626l-0.45975-0.43035l0.14531-1.0807l2.63903-2.53037l0.02528-0.55613  l-0.35759-0.81734l-1.80975,0.12766l-0.68059-1.1774l0.49807-0.90035l1.16292-0.77224l1.2597-3.12677l0.68577-4.26551  l1.71517-2.60528l4.14552-1.96673l2.29877-1.81348l1.75568-2.50043l0.44149-1.65595l-0.89839-1.41176l-1.5836-0.97059  l-1.12384-0.91951l-1.2771-0.56192L88.561,21.97787l-0.32566-0.24903l-0.38313,0.11494l-0.03831,0.26819l-0.34519,0.11689  l-0.06731,0.37502l0.38463,0.59618l-0.03846,0.39425l0.34617,0.26924l-0.01923,0.50002l-0.41348,0.43271l-0.59618,0.04808  l-0.125,0.15385l0.23077,0.41348l-0.33655,0.38463l-0.37502-0.05769l-0.25002-0.24039l0.05769-0.34617l0.04808-0.31732  l0.20193-0.06731l-0.26924-0.50002l-0.02885-0.22116l-0.38464,0.11539l-0.53848,0.29809l-0.35578,0.1827l-0.17309,0.38463  l-0.28848,0.31732l-0.33655-0.07693l-0.17309-0.16347h-0.57694l-0.1827-0.08654l-0.40386,0.24039l-0.27886,0.11539l-0.31732,0.5481  l-0.03846,0.41348l-0.37502-0.33655h-0.09616l-0.34617,0.61541l-0.09616-0.15385l0.07693-0.31732l-0.78849-0.07693v-0.23078  l0.39425-0.24039l0.27885-0.01923l-0.05769-0.21155l-0.10577-0.22116l0.04808-0.39425l0.08654-0.24039l-0.10577-0.08654  l-0.13462-0.17308l-0.28848,0.04808l-0.87504,0.68272l0.16347,0.27886l0.09616,0.35579l-0.40386,0.22116l-0.10577-0.10577  l0.10577-0.13462l-0.04808-0.17308l-0.32693-0.11539l-0.32694,0.09616L78.76642,25.604l-0.69234,0.23078l-0.46156,0.50002  l-0.34617,0.29809l-0.58656,0.34617l-0.15385,0.11539l-0.25963-0.00961l-0.04808,0.19232l0.16348,0.15385l-0.25002,0.06731  l-0.74042,0.24039l-0.08654,0.75965l-0.08654,0.43271l-0.04808,0.47117l-0.51925,0.10577l-0.4231,0.13462l-0.64426-0.06731  l-0.3654-0.1827l-0.11539-0.45194l-0.22117-0.26924l-0.33655-0.14424l-0.08655-0.4904l0.39425-0.3654v-0.33655l0.32693-0.16347  l0.79811-0.0577l0.13462-0.12501l-0.08654-0.25001l-0.09615-0.40386l-0.27886-0.50964l-0.35578-0.28848l-0.47118-0.24039  l-0.55772-0.00961l-0.55772,0.00961l-0.32693-0.11539l-0.33656-0.25001l-0.04807,0.07693l0.18269,0.25963l0.25963,0.20193  l0.33656,0.27886l0.05769,0.37502v0.58656l-0.05769,0.53848l-0.21155,0.61541l-0.11539,0.4904l-0.04807,0.27886l0.06731,0.12501  l0.3654,0.15385l0.20193,0.3654l0.07693,0.35578l-0.08654,0.14424l-0.00961,0.10577l0.14423,0.13462l-0.14423,0.22116  l-0.16347,0.42309l-0.1827,0.39425l0.02885,0.16347l0.07693,0.1827l-0.10577,0.26924l-0.11539-0.22116l-0.28847-0.21155  l-0.20193-0.10577l0.05769-0.11539l-0.125-0.10577l-0.12501-0.04808v-0.17308h-0.24039l-0.17309,0.05769l-0.50002-0.32694  l-0.31732,0.37502l-0.45194,0.57695l-0.39425,0.17308l-0.32693,0.09616l-0.19232,0.26924l-0.16347,0.28847l-0.31732,0.19232  l-0.25962,0.23078l-0.06731,0.27886l0.10577,0.38463l0.34617,0.5481l0.34617,0.77407l-0.01442,0.33175l-0.24521,0.07212  l-0.27405-0.37502l-0.18751,0.15866l-0.01443,0.3029l-0.33174-0.11539l-0.41829-0.27405l-0.36059-0.14423L66.088,34.63803  l-0.15866,0.14424l-0.07211-0.20193l0.12981-0.17308l-0.27406-0.11539l-0.23077-0.10096v-0.25963l-0.66349-0.28848l-0.15866,0.08654  v0.36059l-0.33175,0.05769l0.07212,0.28848l0.2452,0.37502l0.18751,0.37502l0.27406,0.21635l0.30289-0.18751l0.17308,0.0577  l0.20914,0.32453l-0.10097,0.19472l0.16588,0.38944l-0.13702,0.21635l-0.41108,0.35338l-0.40386-0.10097l-0.46877-0.26684  l-0.44713-0.10097l-0.05048-0.40386l-0.49762-0.41108l-0.2452,0.17308l-0.56253-0.56252l0.06491-0.7284l-0.18751-0.25962  l-0.07212-0.5481l-0.21635-0.33175l0.23078-0.49041l0.11539-0.2452l-0.11539-0.23078l0.07212-0.17308l0.15866,0.11539  l-0.01442-0.28847l-0.20193-0.26684l-0.36781-0.35338l-0.44713-0.21636l-0.23078-0.15145v-0.29569l-0.20193-0.10097l-0.07212-0.3029  l-0.29568-0.25241l-0.21635-0.10097l-0.1226-0.2452l-0.18029-0.17308l0.07933-0.19472l-0.07933-0.17308l-0.18751-0.17308v-0.1803  l0.20193,0.04327l0.10097,0.0577l0.23799,0.20193l0.23078,0.36059l0.33895,0.28126l0.15866,0.12981l0.07212-0.20914l0.23799,0.23799  l0.29568,0.08654l0.28127,0.08654l0.09375,0.28126l0.29568-0.1803l0.31011,0.23799l0.38223,0.28126l0.41108,0.1226l0.47598,0.07212  l0.45435,0.11539l0.41108,0.1226l0.38223,0.22357l0.28127,0.14424l0.58415-0.05769l0.49041-0.07933l0.39665-0.20193l0.36059-0.16587  l0.41829-0.33175l0.31011-0.38223l0.2452-0.33174l0.1803-0.27405l0.07933-0.37502l0.08654-0.39665l-0.23078-0.25963l-0.10818-0.5481  l0.01443-0.43271l-0.3606-0.36781l-0.41107-0.22357l-0.1226-0.18751l-0.51204-0.23799l-0.70676-0.72118h-0.43992l-0.14424-0.27405  l-0.63464-0.74282l-0.56253-0.53368l-0.57694-0.4255l-0.77888-0.38944l-0.34617-0.10818l-0.33895,0.06491l-0.41829-0.11539  l-0.33895-0.12981l-0.41108,0.10818l-0.05769,0.31732l-0.26684,0.25241L61.11183,23.777l0.17308-0.26684v-0.56973l-0.34617-0.13703  l-0.5481-0.10818l-0.41108-0.31011l-0.05769-0.20193l0.15866-0.20193l0.23799,0.25241l0.35338,0.15145l0.23078-0.08654  l0.05048-0.20914l-0.1226-0.20914h-0.35338l-0.17308-0.15145l-0.22357-0.23799l-0.20914,0.05048v0.34617l-0.17308,0.05048v0.1226  l0.04327,0.18751l-0.25241,0.02164l-0.16587-0.21635l-0.32453-0.12981l-0.40387-0.0577l-0.28126-0.22357l-0.10818,0.06491  l-0.13702,0.3678l-0.26684-0.17308l0.05048-0.15866l-0.05048-0.20193l-0.23078-0.13703l-0.28848-0.22357l-0.36781-0.1226  l-0.33895-0.16587l0.04327-0.23799l0.33175,0.11539l0.39665,0.08654l0.4255,0.11539l0.28847-0.04327l0.27405-0.27405  l0.33175-0.20193h0.26684l0.04327-0.2452l-0.10818-0.23799l-0.15145,0.07933l-0.07933-0.17308l-0.07212-0.19472l-0.46877,0.12981  l-0.09375-0.12981l0.19472-0.23799l-0.25963-0.20914l-0.21635,0.20193l-0.02885-0.28126l-0.32454,0.10818l-0.13702-0.0577  l0.07933-0.1803l-0.3029-0.35338l-0.22356,0.18751l-0.2452,0.32453v0.47598L56.59,19.8177l-0.17308,0.02885l-0.34617-0.06491  l-0.08654-0.16587l0.19472-0.19472l0.10818-0.20193l-0.23078,0.11539l-0.22357,0.04327l0.07212-0.17308l0.14423-0.09375  l-0.0649-0.12981l0.12981-0.15145l0.20914-0.07933l0.1226-0.07933l0.03606-0.18751l-0.26684-0.10818l-0.07933-0.28848  l-0.3029,0.12981l-0.15866-0.18751l-0.10096,0.09375l0.09375,0.28126l-0.26684-0.0577l-0.1226,0.11539l0.25241,0.3029  l0.07933,0.15866l-0.4255,0.3678v0.41108l-0.23799,0.26684l-0.33896,0.19472l-0.04327-0.37502v-0.44713l-0.05769-0.21636  l0.2452-0.2452l-0.2452-0.23799L54.275,19.07488l-0.11539,0.34617l-0.20193,0.28847l-0.28847,0.31732l-0.05769,0.53368  l-0.31732,0.47598l-0.28126-0.14424l0.07933-0.52646l0.21635-0.4904l-0.14424-0.20914l0.28126-0.26684l0.15145-0.3029  l0.25241-0.23799l-0.07212-0.12981l-0.20193-0.16587l-0.07933,0.23078l-0.23799-0.14424l-0.36059-0.17308l-0.14424,0.41107  l-0.2452-0.10097l-0.05048,0.16587l0.34617,0.19472l-0.09375,0.28848l-0.16587-0.12981l-0.16587,0.15866l0.05769,0.35338  l-0.25962-0.03606l0.03606-0.3029l-0.13703-0.28126l-0.15145-0.12981l-0.07212,0.11539l0.0577,0.31011l0.08654,0.16587  l0.04327,0.18751l-0.18751,0.28126l-0.28126,0.33174l-0.04327,0.43992l0.17308,0.31732c0,0-0.26684,0.15866-0.28848,0.16587  c-0.02163,0.00721-0.31011-0.26684-0.31011-0.26684l-0.16587-0.28847l0.10096-0.15866l-0.34617-0.10097l0.04327,0.20914  l-0.08654,0.12981l-0.18751-0.19472l-0.05048-0.28847l-0.20193-0.05048l-0.14424,0.20914l-0.25241-0.09375l-0.28847,0.09375  l0.14423,0.33175l0.28848,0.07212l0.27405,0.16587l-0.06491,0.25241l0.05048,0.21636l-0.3029-0.1226l-0.33175-0.25241  l-0.09375,0.29569l-0.1226,0.03606l-0.08654,0.1803l-0.16587-0.07212l0.07212-0.23078l-0.1226-0.28848l-0.05048,0.3029  l-0.05048,0.3029l-0.07933,0.23799l-0.11539,0.25963l0.10096,0.20914l-0.16587,0.0577l-0.17308,0.08654l-0.04327-0.21635  l0.06491-0.43992l-0.02164-0.26684l0.08654-0.36781l-0.12981,0.00721l-0.19472,0.48319l-0.16587,0.28126l0.05769,0.26684  l-0.15866-0.05048l-0.10818-0.21636l0.05048-0.23078l-0.20193,0.02164l-0.39665,0.10818L47.33,21.82259l0.29568-0.21636  l0.26684-0.26684l-0.04327-0.19472l-0.18029-0.00721l-0.10818,0.07933l-0.10818-0.15866l-0.37502,0.31732l0.10818,0.22357H47.0271  l-0.15145,0.27405l-0.25241,0.33174l-0.07212,0.12981l0.05048,0.08654l0.28126,0.01442l0.16587-0.10097l0.02164-0.25241  l0.1226-0.04327l0.06491,0.27405l0.10096,0.23799l0.05048,0.23799l0.28848,0.17308l0.03606,0.34617l-0.14423,0.14424  l-0.11539-0.08654l0.04327-0.20914l-0.17308-0.21635l-0.2452-0.33896l-0.25241,0.14424l0.15866,0.40386l-0.20914,0.03606  l-0.11539-0.36059h-0.12981l-0.14424,0.14424l-0.08654-0.22357l-0.41107-0.28847l-0.20914,0.21636l0.04327,0.20914l-0.32453,0.18751  v0.19472l-0.08654,0.1226l0.0577,0.15866l-0.0577,0.07933v0.12981l0.32454-0.1803l0.15145-0.1226l0.33175,0.04327l0.19472-0.22357  l0.15866,0.32453l-0.3678,0.12981l-0.22357,0.16587l-0.08654,0.38223l0.05048,0.23078l-0.29568,0.29568l-0.47598,0.14424  l-0.23078-0.06491v-0.3029l-0.25241-0.12981v0.31011l-0.25241,0.10097l-0.04327-0.26684l-0.10818-0.13703l0.08654-0.27405  l-0.32453,0.14424v0.35338h-0.20193l-0.12981-0.51204l-0.1226,0.06491l-0.17308,0.31732L43.1255,24.5703l-0.25963,0.27405  l0.08654,0.1803l0.31011-0.22357l0.20914-0.04327L43.313,25.04629l0.26684-0.04327l0.20193-0.16587l0.16587,0.04327v0.18751  l-0.27405,0.2452l-0.04327,0.14424L43.36349,25.479l-0.2452,0.13702l-0.25241,0.17308l-0.37502,0.05048l-0.20914,0.09375  l-0.25962,0.28126l-0.23078,0.13703l-0.27405,0.10097l-0.15145,0.4255l0.44713-0.27405l0.26684-0.23799l0.37502-0.35338  l0.27405-0.00721l0.02885,0.14424l0.28126-0.18751l0.29568-0.21635l0.38944-0.22357l0.20914,0.23078l0.23078-0.21636  l0.29568-0.28126l0.15145-0.10818l0.12981,0.28847l0.43992-0.05048l0.46156-0.20914l0.34617,0.07212l0.10096,0.29568  l-0.38944,0.00721l-0.41108,0.22357l-0.25241-0.20914l-0.48319,0.25241l0.31732,0.31011l-0.13703,0.43271l-0.08654,0.18751  l-0.13702-0.1803l-0.11539-0.53368l-0.23799,0.2452l-0.37502,0.02164l-0.07212,0.23799l0.27405-0.05048l0.21635,0.07212  l0.12981,0.20914l-0.26684-0.00721l-0.28848,0.15866l-0.14423,0.02885l-0.11539-0.25241l-0.16587,0.22357l-0.10096,0.22357  l0.18029,0.13702l0.27405-0.13702l0.2452,0.02164l0.02164,0.2452l-0.28848,0.05769l-0.05048,0.09375l0.28847,0.35338  l-0.18029,0.02885l-0.31732-0.27405l-0.28126,0.23799l-0.03606,0.28126l0.15145,0.21635l0.36059-0.02885l0.17308,0.10097  l0.15866,0.16587l-0.07212,0.25963l-0.21635-0.20914l-0.26684-0.07933l-0.31732,0.00721l-0.23799,0.12981l-0.31732,0.2452  l-0.25962,0.37502l-0.00721,0.15145l0.13702,0.10818l-0.08654,0.16587l-0.49041,0.0577l-0.15145,0.5481l-0.05769,0.17308  l0.14423,0.16587l0.28126,0.10818l-0.05769,0.0577l-0.27405,0.01442l-0.03606,0.29568l-0.37502,0.15145l0.18751,0.20193  l-0.04327,0.07933l-0.22357-0.04327l-0.05048,0.07212l0.05048,0.34617l-0.35338,0.32454v0.18751l0.31011,0.22356l-0.07212,0.15866  l-0.43992-0.07212l-0.06491,0.13702l0.06491,0.26684l0.38944,0.29568l-0.02885,0.31011l-0.36059-0.32454l-0.43271,0.43992  l-0.32934,0.11058l-0.05769,0.10577l0.25962,0.23078l-0.06731,0.15385l-0.55772,0.45194l-0.24039,0.22116l-0.39425,0.50002  l-0.19232,0.38463v0.3077l-0.38463,0.16347v0.26924l0.29809-0.14424l-0.10577,0.3077l0.09616,0.10577l0.08654,0.14424  l0.28848-0.25001l0.27886-0.125l0.29809-0.3077l-0.06731-0.28848l0.28848-0.21155l0.16347-0.03846l0.09616,0.24039l-0.35578,0.14424  l0.09616,0.08654l0.24039-0.03846l-0.00962,0.26924l-0.32693,0.16347l-0.17308,0.13462l-0.02885,0.45194l-0.64426-0.08654v0.25001  l-0.3077-0.00961v-0.25963l-0.34617-0.27886l-0.25001,0.38463l-0.1827,0.12501l-0.25963-0.07693l-0.24039,0.07693l-0.09616,0.22116  l-0.32694,0.01923l-0.08654,0.60579l-0.26924,0.03846l-0.12501-0.23078l-0.48079,0.21154l-0.08654,0.4231l0.39425-0.04808  l-0.09616,0.51925l-0.52887-0.15648l-0.27885,0.09879l0.41348,0.25001l-0.41348,0.13462l-0.47118,0.25963v0.29809l-0.19231-0.16828  l-0.1827-0.2452l-0.06731,0.125v0.24039l-0.32694-0.1202L33.82222,40.22l0.37502,0.3654h-0.13462l-0.19232-0.125l-0.1827,0.43271  l0.28847,0.40387l-0.13462,0.38463l0.125,0.48079h0.50964l0.55772-0.10577l-0.0577,0.23078l-0.52887,0.15385l-0.63464,0.14423  l0.08654,0.24039l-0.15385,0.20193l-0.00962,0.11539l0.1827,0.17308l-0.23078,0.15385l0.08654,0.50002l0.25001-0.06731  l0.27886,0.27886l0.06731,0.1827l-0.23078,0.09616l-0.19231,0.41348l0.125,0.04808l0.32694-0.37502l0.21155-0.20193l0.09616-0.28847  l0.14424-0.32694l0.53848-0.1827l-0.00961,0.25001l-0.50964,0.19232l-0.07693,0.3654l-0.26924,0.31732l0.07693,0.27886  l-0.25001,0.29809l-0.11539,0.15385l-0.08654-0.12501l-0.14424,0.02885l-0.06731,0.34617l0.14424,0.1827l0.35579-0.125l0.125-0.3077  l0.23078,0.1827l-0.02885,0.39425l-0.14423,0.05769v0.33656l0.11539,0.27886l-0.20193-0.00962l-0.16347-0.14424l-0.09616,0.10577  l-0.01923,0.46156l0.39425,0.34617l0.19231,0.1827l0.38463,0.15385l0.01923,0.35579l0.22116,0.02885l0.75003-0.04808  l0.37502-0.04808l0.74042-0.55772l0.80773-0.92312l0.23078-0.34617l0.24039,0.19232l0.33655-0.33655l0.02885-0.32694  l-0.10577-0.31732l0.1827-0.15385l0.25001,0.17308l0.09616,0.56733l0.32694,0.19232l-0.00962,0.39425l0.13462,0.7308  l0.23078,0.47117l-0.11539,0.22116l0.32693,0.45194l0.07693,0.53848l0.38463,0.74042l0.25962,0.60579l0.35579,0.49041  l-0.125,0.38463l-0.07693,0.47117l0.3077,0.52887l-0.00962,0.58656l0.49041,0.05769l0.69234-0.125l-0.04808-0.50964l0.23078-0.43271  l0.31732-0.11539l0.22116-0.24039l0.77888,0.11539l0.35578-0.58656l0.25963-0.71157l0.20193-1.00966L45.14,48.22995l-0.12501-1.1539  l0.69234-0.31732l0.20193-0.37502l0.35578,0.1827l0.41348-0.43271l0.14424-0.39425l0.34617-0.47117l-0.01923-0.71157  l-0.14424-0.42309l-0.72118-0.68272l-0.38463,0.07693l-0.05769-0.23078l-0.44233-0.44233l0.04808-1.65392l0.25962-0.27886  l0.09616-0.87504l0.11539-0.08654l-0.24039-0.29809l0.16347-0.22116l0.25001,0.11539l0.13462-0.31033l0.03846-0.5647  l0.49041-0.00961l-0.02885-0.49041l0.68272-0.44233l0.10577-0.25963l0.90388-0.51925l0.09616-0.25962l0.31732-0.07693  l0.27886-0.56733l0.08654-0.33656l0.50002-0.42309l-0.05769-0.31732l-0.31732-0.31732l0.125-0.21155l-0.10577-0.3077  l0.39425-0.52887l0.00961-0.71157l0.43271-0.05769l0.32693-0.31732V31.8735l0.27886,0.10577h0.37502l0.13462,0.19232  l0.20193-0.20193l0.71157,0.09616l0.39425,0.03846l0.50964,0.31732l0.28848,0.62503l0.21155,0.71157l-0.12501,0.51925  l-0.23078-0.11539l-0.39425,0.11539l-0.25001,0.48079l-0.53848,0.90388l-0.51925,0.70195l-0.23078,0.3077l-0.29809-0.08654  l-0.09616,0.08654l-0.06731,0.40386l-0.28847,0.16347l0.06731,0.59618l-0.75965,0.05769l-0.01923,0.53849l-0.38463,0.26924  l-0.13462,0.40386l0.11539,0.37502l0.25001,0.38463l-0.14424,0.66349l0.3077,0.51925l-0.05769,0.8558l-0.12501,0.45194  l-0.13462,1.05774l0.08654,0.06731l0.22116-0.13462l0.26924,0.28848l0.27886,0.08654l-0.01923,0.3654l0.26924,0.125l0.03846,0.25001  l0.39425,0.04808l0.07693,0.34617l0.45194-0.17308l0.62503-0.25001l0.53848-0.07693l0.53849-0.40386l0.62503-0.11539  l0.58656-0.27886l0.61541-0.125l0.50002,0.125l0.48079-0.15385l0.57695-0.35579l0.09616,0.125l-0.35579,0.32694l0.46637,0.48079  l0.26443,0.23078l0.71157-0.125l0.19231,0.34617l0.05769,0.34617l-0.31732-0.09616l-0.59618-0.07693l-0.22116,0.28848  l-0.37502,0.02885l-0.17308,0.25962l-0.33655,0.06731l-0.09616,0.38463h-0.55772L54.6981,45.5183l-0.58656-0.19231l-0.38463,0.10577  l-0.51925,0.13462l-0.29809-0.02885l-0.55772,0.33655l-0.47117,0.14424l-0.13462,0.43271l-0.09616,0.40387l0.19232,0.4231  l0.02885,0.3077l0.34617,0.125l0.25962-0.22116l0.31732,0.1827l-0.17308,0.27886l-0.10577,0.80773l0.07693,0.63464l-0.06731,0.48079  l-0.44233,0.34617l-0.47118-0.05769l-0.26924-0.28848l-0.06731-0.42309l-0.19231-0.06731l-0.39425-0.5481l-0.34617,0.16347  l-0.49041,0.29809l-0.125,0.25963l-0.07693,0.55771l-0.32693,0.31732L49.23633,51.057l0.14424,1.11543l0.20193,1.15389  l-0.06731,0.48079l-0.48079-0.02885l-0.32693-0.08654l-0.43271,0.08654l0.00962,0.25001l0.21155,0.07693l-0.00962,0.10577  l-0.20193,0.07693l-0.27886,0.33655l-0.22116,0.22116l-0.3654-0.10577l-0.47118-0.03846l-0.23078-0.75965l-0.21155-0.02885  l-0.64426,0.07693l-0.56733,0.32694l-0.38463,0.03846l-0.43271,0.51925l-0.44233,0.11539l-0.59618,0.17308l-0.50002,0.26924  l0.06731,0.20193l-0.06731,0.15385l-0.23078-0.02885l-0.26924-0.25001l-0.15385-0.25962l-0.14424-0.16347l-0.17308,0.03846  l-0.22116-0.16347l0.14424-0.26924l0.23078-0.04808l0.01923-0.25001l-0.4231-0.08654l-0.06731,0.26924l-0.14424,0.15385  l-0.28848-0.0577l-0.26924,0.11539l-0.29809,0.22116l-0.48079,0.09616l-0.25963,0.3077l-0.52887-0.05769v-0.3077l0.3654-0.44233  l-0.11539-0.13462l-0.16347,0.04808l-0.125,0.24039l-0.23078-0.07693l-0.40386-0.10577l-0.26924-0.13462l-0.01923-0.35579  l-0.31732-0.1827l-0.00962-0.14424l0.27886-0.07693l-0.01923-0.125l-0.31732-0.08654l0.08654-0.25001l0.15385-0.06731  L38.17817,52.884l0.06731-0.17308l0.20193,0.14424l0.125,0.26924l0.20193,0.19232l0.25001,0.10577l0.17308,0.00961l0.07693-0.1827  l0.06731-0.16347l-0.13462-0.22116l-0.25001-0.23078l-0.20193-0.03846l-0.23078,0.04808l-0.11539,0.00962l-0.12501-0.17308  l0.20193-0.24039l0.01923-0.25963l0.17308-0.07692l0.06731-0.40387l0.06731-0.11539l0.1827-0.07693l0.125,0.07693l0.14424,0.04808  l0.07693-0.14424l0.07693-0.1827l-0.12501-0.20193l-0.21155-0.0577l-0.24039,0.06731l-0.06731-0.25001l-0.04808-0.41348  l0.19231-0.35578l0.15385-0.29809l-0.03846-0.69234l-0.35579,0.17308l-0.24039,0.16347l-0.20193,0.40386l-0.15385,0.15385  l-0.45194,0.08654l-0.43271,0.13462l-0.27886,0.25963l-0.01923,0.16347l0.125,0.13462l0.17308-0.08654l0.16347,0.23078v0.22116  l-0.16347-0.00961l-0.33655-0.11539l0.02885,0.56733l-0.11539,0.34617l-0.00962,0.60579l0.11539,0.25001l0.25001,0.28847  l0.16347,0.33656l0.03846,0.70195l0.19231,0.3077l-0.125,0.43271l0.19231,0.4231l-0.02885,0.25962l0.32694,0.19232l-0.14424,0.07692  l-0.25962-0.11539l-0.21155,0.03846l-0.10577,0.25962l0.00961,0.1827l-0.28847,0.01923l-0.20193,0.1827l-0.07693-0.38463  l-0.80773,0.17308l-0.1827,0.41348l-0.21155-0.16347l-0.37502,0.04808l-0.5481,0.0577l-0.32693,0.43271l-0.00962,0.22116  l0.14424,0.17308l0.15385,0.07693l-0.12501,0.34617l-0.50002,0.44233L33.6876,57.8842l0.10577-0.35578l0.06731-0.21155  l-0.17308-0.24039l-0.22116,0.06731l-0.13462,0.25001l-0.09616,0.50002l-0.09616,0.39425l-0.24039,0.29809l-0.37502,0.3077  l0.25001,0.1827l0.08654,0.13462l-0.125,0.07693L32.351,59.21119l-0.22116,0.24039l-0.41348,0.24039L31.3125,59.9516  l-0.61541,0.15385l-0.19232,0.14424l-0.07933,0.41348v0.48079l-0.28607,0.35368l-0.46156,0.29058l-0.42309,0.16347L29.05279,62.019  l-0.08654,0.24039l0.16347,0.15385l-0.07693,0.13462l-0.24039,0.09616l-0.58656-0.04808l-0.37502-0.10577l-0.26924-0.15385  l-0.25963-0.28847l-0.20193,0.00961l-0.06731,0.22116l0.16347,0.25001l0.21155,0.52887l0.06731,0.47117l-0.20193,0.125h-0.27886  h-0.42189l-0.4243,0.04808l-0.15385-0.17308l-0.1827-0.1827l-0.44233,0.13462l-0.37502,0.11539h-0.32694l-0.38463,0.15385  l-0.07693,0.25001l0.14424,0.04808l0.33655-0.04808l0.03846,0.26924l-0.25963,0.23078l0.17308,0.25001l0.27886-0.04808  l0.37502,0.04808l0.27886,0.16347l0.16347,0.13462l0.52887-0.04807l0.24039,0.27885l0.01923,0.22116l0.23078,0.16348  l0.14424,0.35578L26.745,66.23071l0.25963,0.28848l0.25001,0.22116l0.34617,0.17308l0.19231,0.25963l0.01923,0.58656  l0.28848,0.33656l0.01923,0.24039l-0.23078-0.08654l-0.12501,0.08654l-0.0577,0.50964l0.03846,0.4904l-0.11539,0.25963  l-0.09616,0.69234c0,0-0.11539,0.48079-0.125,0.50964c-0.00962,0.02885-0.48079,0.32693-0.48079,0.32693l-0.5481-0.08654  l-1.18274-0.03846l-0.3077-0.06731l-0.53848,0.01923l-0.48079-0.14423l-0.57695-0.13463l-0.9712,0.09616l-0.43271,0.04808  l-0.53848-0.26924h-0.24039l-0.34617,0.52887l-0.41348,0.04807l-0.46156,0.25963l0.12501,0.27886l0.04808,0.28847h0.28848  l-0.0577,0.65388l-0.06731,0.48079l0.24039,0.58656l-0.12501,0.82696l-0.06731,0.50002l-0.10577,0.58656l-0.27886,0.62502  l-0.09616,0.12501l-0.11539,0.51925l0.29809,0.09616l-0.02885,0.24039l0.21155,0.05769l0.15385-0.1827l0.03846,0.50964  l-0.06731,0.5481l-0.06731,0.63464l0.00962,0.20193h0.3077l0.60579-0.06731l0.40386,0.06731l0.43271-0.08654l0.61541,0.17309  l0.15385,0.51925l0.25001,0.46156l0.47117,0.19231l0.25001-0.30771l0.37502-0.26924l0.25963-0.03846l0.31732-0.24039  l0.51925,0.00961l0.51925-0.01923l0.51925-0.02885l0.47117-0.02885l0.26924-0.28848l0.31732-0.4904l0.35578-0.22116l0.33655,0.03846  l0.14424-0.38463l0.25001-0.47118l0.50964-0.5481l-0.49041-0.69234l0.27886-0.52886l0.59618-1.06736l0.43271-0.58656  l0.45194-0.21154l0.42309-0.07693l0.4231-0.30771l0.64426-0.33656l0.25001-0.28847l-0.01923-0.50964l-0.19232-0.61542  l0.11539-0.39424l0.62502-0.58656l0.88465-0.07693l0.06731,0.3077l0.49041-0.01923l0.60579,0.31731l0.72118-0.08654l0.83657-0.74042  l0.63464-0.20193l0.31732-0.41348l0.50002-0.34617l0.41348,0.20193l0.87503,0.4904l0.13462,0.59618l0.21154,0.45194l0.03846,0.25962  l0.3654,0.33656l0.27886,0.35578l0.39425,0.1827l0.26924,0.32694l0.32694,0.39424l0.43271,0.3654l0.48079,0.25001l0.63464,0.15385  l0.14424,0.28848l0.32694,0.22116l0.20193,0.14424l0.41348,0.04808l-0.0577,0.45193l0.3077,0.19232l0.45194,0.22116l0.17308,0.50964  l0.25001,0.5481l0.04808,0.41348l-0.21155,0.20193l-0.11539,0.25962l-0.16347,0.45194l0.125,0.11539l0.22116,0.00961  l0.28848-0.39425l0.13462-0.39424l0.07692-0.27886l0.25001-0.19231l0.23078-0.04808v-0.26924l-0.11539-0.31732l-0.27886-0.10577  l-0.21155-0.14423v-0.25002l0.51925-0.84618l0.125-0.02885l0.14424,0.12501l0.24039,0.20193l0.31732,0.00961l0.13462,0.15385  l0.07693,0.22116l0.21155,0.15385l0.10577-0.01923l0.06731-0.23077l-0.07693-0.25963l-0.27886-0.25963l-0.45194-0.33656  l-0.44233-0.31731l-0.7308-0.28848l-0.55772-0.30771l0.03846-0.24039l0.24039-0.16347l-0.07693-0.09616l-0.26924-0.06731  l-0.24039,0.08654l-0.43271-0.08654l-0.4231-0.29809l-0.50002-0.52887l-0.32693-0.6058l-0.06731-0.35578l-0.25001-0.4231  l-0.24039-0.14423l-0.33655-0.32694l-0.40386-0.19231l-0.14424-0.3654L40.54366,69.452l0.09616-0.31732l0.21155-0.23078  l-0.10577-0.31732l-0.11539-0.25963l0.09616-0.25962l0.29809-0.13462l0.08654,0.07693l0.3654-0.20193l0.35579-0.14423  l0.37502,0.08654l-0.11539,0.3077l-0.06731,0.25963l0.16347,0.32693l0.15385,0.24039l0.24039-0.19231l0.08654-0.37502  l0.14424-0.24039l0.19232,0.29809l0.23078,0.15385l0.15385,0.21155l-0.00962,0.38463l0.09616,0.31732l0.19231,0.40386  l0.28848,0.35579l0.25963,0.32693l0.21154,0.24039l0.5481-0.00961l0.44233,0.31732l0.28847,0.29809l-0.18751,0.10097  l0.23078,0.18751l0.5481,0.10096l0.51925,0.3606l0.36059,0.20193l0.28847,0.46156l0.41829,0.21635l-0.07212,0.4904l-0.02885,0.49041  l0.07212,0.25963l-0.25963,0.53368l0.08654,0.25962l0.33175,0.11539l0.28847,0.33174l-0.26684,0.19472l0.18751,0.40387  l0.25963,0.41828l0.38944,0.10818l0.17308,0.29568l0.26684,0.13702l0.10818,0.34617h0.29568l0.4255-0.07211l0.64185,0.10097  l0.49041,0.15866l0.01442,0.21635l-0.25241,0.1226l-0.3678-0.20914l-0.33896-0.02885l-0.18751-0.18029l-0.19472,0.09375  L49.86135,77.736l-0.23078-0.02163l-0.26684,0.27405l0.25241,0.27405l0.30289,0.3029l-0.1226,0.20193l0.19472,0.50483  l0.23799-0.20914l0.13702-0.00721l0.12981,0.31011l0.09375,0.29568l0.13702-0.07933l0.09375-0.28848l0.20193-0.00721  l0.19472,0.33174l0.02163-0.23078l-0.09375-0.33895l-0.10096-0.29568l-0.13702-0.26684l0.11539-0.10097l0.20914,0.08654  l0.22357,0.1226l0.03606-0.13702l-0.19472-0.27406l-0.10818-0.15866l0.20914-0.14423l0.22357-0.02885l0.23078,0.10097  l0.15866,0.10096l0.12981-0.02885l0.03606-0.28848l0.18029-0.21635l-0.01442-0.30289l-0.14424-0.10097l-0.29568-0.10097  l-0.25241-0.28126l-0.18029-0.07212l-0.11539,0.07212l0.1226,0.15866l0.27405,0.25963l-0.01442,0.15866l-0.17308,0.00721  l-0.07212-0.13702l-0.21635-0.14424l-0.19472-0.20193l0.10096-0.1803l-0.09375-0.18751l0.05048-0.22357l-0.05048-0.10096  l0.16587,0.13702l0.16587-0.03606l-0.11539-0.22356l-0.29568-0.30289l-0.11539-0.29568l-0.14423-0.22357l-0.07212-0.26684  l0.07933-0.25241l0.17308-0.08655l0.20914-0.05048l0.11539,0.20193l0.23799,0.23799l0.25241,0.05769l0.15866-0.10097  l0.11539-0.15865l-0.05048-0.26684l0.14424-0.1803l0.29568-0.10818l0.32453-0.07933l0.34617-0.04327l0.23078-0.10097  l0.25962,0.11539l0.29568,0.09375l0.33896,0.07212l0.23078-0.20914l0.01442-0.35338l0.23799-0.08654l-0.18029-0.45435  l0.57695-0.52646l0.86542,0.1226l-0.09375-0.31732l-0.29568-0.26684l0.07933-0.20914L55.977,71.4617l0.06491-0.48319  l0.28126-0.15866l0.23078,0.00721l0.02885-0.7356l0.01443-0.49041l0.37502-0.33174l0.25241-0.31732h0.31732l0.09375-0.46877  l0.08654-0.33174l-0.23078-0.13702l0.08654-0.20914l0.12981-0.17309l0.10096,0.13703l0.41108-0.27406l0.15866-0.25962  l-0.31011-0.33175l0.05769-0.16587l0.31011,0.20914l0.15145,0.08654l0.09375-0.30289l0.03606-0.19473l0.2452-0.05048  l0.44714,0.01443l0.26684-0.03606l0.0649-0.25242l0.21636,0.09376l0.07212,0.16587l0.25963,0.13702l-0.11539,0.23078  l-0.20193,0.07211l0.16587,0.20914l0.26684,0.09376l0.23078-0.03606l0.28847-0.05769l0.28126,0.05769l0.31011,0.0577  l0.00961,0.31251l-0.23078,0.10577l-0.33655,0.12501l-0.39425,0.34617l0.22116,0.07693l0.25962,0.16347l0.07693,0.22116  l0.28848-0.02885l0.05769,0.27886l-0.06731,0.32693l0.10577,0.23078l0.10577,0.15385l0.22116-0.02885l0.28848-0.11539  l0.19231-0.21155l0.07693-0.16347l0.22116-0.00962l0.3077-0.07692l0.15385-0.12501l0.11539-0.16347l0.25963-0.07693l0.23078,0.09615  l0.29809-0.00961h0.17309l0.03846-0.26924l-0.16347-0.27885l-0.29809,0.17308l-0.29809,0.08654l-0.16347,0.08655l-0.25963-0.0577  l-0.1827-0.38463l-0.11539-0.20193l-0.33655-0.22116l0.02885-0.34617l0.21155-0.21155l0.43271-0.25001l0.06731-0.35579  l0.22116,0.19232l0.24039-0.14424l0.45194-0.08654l0.48079-0.13462l0.39425-0.14424l0.38463-0.23077l0.37502-0.14424l0.3654,0.02885  l0.53848-0.16347l0.37502-0.08654L67.064,65.7403l-0.22116,0.33656l-0.51926,0.17309l-0.04808,0.20193l-0.26924-0.05769  l-0.39425,0.13462l0.11539,0.28848l0.31732,0.12501l-0.08655,0.48079l-0.25962,0.02885l-0.11539,0.38463l-0.23077,0.39425  l-0.15385,0.07693l-0.43271-0.06731l-0.17309,0.27886l0.09616,0.05769l0.19231-0.15385l0.12501,0.26924l0.15385,0.3654  l0.40386,0.15385l0.4231,0.27885l0.32693,0.13462l0.4231,0.22116l0.32693,0.3654l0.32693,0.38464l0.25963,0.24039l0.35578-0.16348  l1.10582,0.41348l0.97119,0.04808l1.13467,0.53848l0.15385,0.27885l0.42309,0.02885l0.17309-0.23078l0.59618,0.04808  l0.76926,0.39424l-0.17308,0.2981l0.7308,0.36539l0.57695,0.30771l0.25962,0.43271l0.61542,0.07693l0.61541-0.66349l-0.40386-0.6058  l-0.61542-0.87503l0.00962-0.62503l0.17308-0.63464l-0.23077-0.06731l-0.39425-0.55772l-0.41348-0.02885l0.1827-0.43271  l0.89427-1.25005l0.21155-0.11539l0.02885,0.17309l0.08654-0.11539l0.14423-0.22117l0.24039,0.20193l0.23078-0.10577  l0.12501-0.35579l0.20193-0.48079l-0.53368-0.41348l0.49041-0.23078l-0.77888-1.31255l-0.69233-0.27405l-0.07212,0.25962  l-0.31732-0.18751l0.07212-0.64906l-0.63464-0.20193l0.43271-1.24044l0.01443-0.98081l0.59137-0.7933l0.77888,0.86542  l0.53368-0.20193l-0.28848-0.87984l0.83658-0.41829l-0.01443-0.36059l1.24044-0.80772v-0.28848l0.63464,0.23078l0.01443,0.2452  l0.30289,0.02885l0.12981-0.2452l0.59137-0.25962l0.11539,0.50483l0.76445-0.0577l1.08178,0.93754l0.05769,0.57695l0.21635-0.15866  l-0.07211-0.63464l1.06735,0.7933l0.7356-0.86542l0.25963,0.14424l0.28848-0.20193l0.44713,0.38944l0.24521-0.40386h0.63464  l0.38944,0.62022l0.53368,0.07212l0.07212,0.30289l0.53368-0.5481l0.50483,0.31732L87.98631,60.46319z"/><polygon points="75.63039,24.04677 75.74533,23.37629 76.16677,22.72497 76.87556,22.72497 77.68014,23.38587   77.33532,24.04677 76.65527,24.65977 76.20509,24.65977 75.86027,24.44905 "/><polygon points="85.82162,20.33042 86.22392,19.94729 86.74113,20.75186 87.02849,20.96258 87.64149,21.65221   87.3733,22.07365 86.85608,22.07365 86.73156,21.67137 86.33885,21.55643 86.12813,21.49896 85.82162,21.01047 85.55344,20.61776   86.01319,20.80933 "/><polygon points="39.55323,52.41282 39.66862,52.98015 40.2071,53.2494 40.53404,53.41286 40.88982,52.98015   40.70712,52.77822 41.16868,52.41282 40.85136,51.85511 40.48596,51.96088 40.48596,52.24936 39.99556,52.34551 39.67823,52.28782   "/><polygon points="40.65905,53.51864 40.85136,53.60518 40.60135,53.82634 40.48596,54.27829 39.75516,54.03789   39.75516,53.78788 40.13979,53.89846 40.40903,53.76865 "/><polygon points="37.20255,72.58923 37.20255,72.24441 37.58567,71.97622 37.98796,71.74635 37.98796,72.28272   38.1029,72.47429 37.9688,72.58923 37.98796,73.02982 37.75808,73.54705 37.43242,73.37464 "/><polygon points="37.87302,73.91103 38.1029,74.10258 38.33278,74.71559 38.1029,74.888 38.21783,75.3286   38.19868,75.96076 38.00711,76.3822 37.56652,76.3822 37.39411,76.61208 37.10676,76.40136 37.10676,75.84583 37.20255,75.53932   36.81942,74.40909 37.20255,74.37078 "/><polygon points="41.01468,77.85725 41.01468,78.16376 41.30202,78.43195 41.64684,78.43195 42.08744,78.77676   42.43225,78.94917 42.79623,79.04495 43.00695,79.3323 43.40924,79.3323 43.65827,78.98748 43.42839,78.59478 43.54333,78.10629   43.84983,77.60822 43.21767,77.74232 42.79623,77.89557 42.52804,77.81894 42.24069,77.87641 41.99166,77.85725 41.64684,77.60822   "/><polygon points="46.47179,49.22038 46.6016,49.86945 46.9622,49.63867 47.06316,49.22038 47.23624,48.58574   47.12085,48.47035 46.70257,48.72997 "/><polygon points="50.14983,47.73474 50.45272,47.97994 51.0441,47.73474 51.33257,47.44627 51.21718,47.20107   50.53927,47.20107 50.25079,47.47511 "/><polygon points="50.45272,46.62411 50.87101,46.39334 51.24603,46.62411 50.84938,46.88374 "/><polygon points="47.88531,43.999 48.0584,44.3596 48.47668,44.1793 48.34687,43.73938 48.0007,43.84035 "/><polygon points="51.86144,80.97172 51.86144,81.18327 52.5057,81.24096 52.91918,81.53905 53.95768,81.49097   54.38078,81.29865 54.19808,81.25539 53.84229,81.3275 53.75575,81.1448 52.94802,81.01018 52.53455,81.06787 52.43839,80.97172   52.16914,80.87556 "/><polygon points="31.20672,75.87535 31.77406,75.45226 31.8606,75.71188 32.10099,75.70226 32.0433,75.94266   31.8606,76.11575 31.4952,76.0292 31.47597,75.92342 "/><polygon points="43.84668,24.03663 44.04861,23.60392 44.45247,23.15678 44.52459,23.35871 44.26497,23.79142   44.03419,24.03663 43.9188,24.22413 "/><polygon points="48.73631,20.71918 48.95266,20.53167 49.0969,20.71918 48.9166,21.07977 48.73631,20.97881 "/><polygon points="50.27964,19.3922 50.52485,19.83933 50.77005,19.70952 51.11621,19.61577 51.30372,19.3922   51.52008,18.93064 51.23161,19.10373 51.0441,19.03161 50.89986,19.13257 50.97198,19.30566 50.82774,19.38499 50.61139,19.19027   "/><polygon points="53.56824,18.09407 53.69806,18.39697 53.97211,18.24552 54.05865,17.94983 53.7269,17.94983 "/><polygon points="51.17391,19.98357 51.17391,20.32974 51.30372,20.32974 51.73643,19.83933 51.64989,19.47874   51.2893,19.6951 "/><text x="0" y="115" fill="#000000" font-size="5px" font-weight="bold" font-family="'Helvetica Neue', Helvetica, Arial-Unicode, Arial, Sans-serif">Created by Marvdrock</text><text x="0" y="120" fill="#000000" font-size="5px" font-weight="bold" font-family="'Helvetica Neue', Helvetica, Arial-Unicode, Arial, Sans-serif">from the Noun Project</text></svg>