<svg xmlns="http://www.w3.org/2000/svg" xmlns:xlink="http://www.w3.org/1999/xlink" version="1.1" x="0px" y="0px" viewBox="0 0 100 125" enable-background="new 0 0 100 100" xml:space="preserve"><g><path d="M81.286,14.977l2.72-1.886c0.546-0.378,1.286-0.301,1.742,0.181l3.683,3.894c0.324,0.342,0.841,0.416,1.247,0.177   c0.546-0.321,0.666-1.059,0.249-1.537l-8.651-9.912c-0.255-0.292-0.624-0.46-1.012-0.46h-6.031c-0.089,0-0.177,0.009-0.264,0.026   l-4.257,0.852C70.56,6.342,70.414,6.399,70.28,6.48l-2.81,1.703c-0.244,0.148-0.529,0.214-0.814,0.189l-5.088-0.446   c-0.213-0.019-0.419-0.088-0.6-0.203l-3.08-1.945c-0.345-0.218-0.77-0.267-1.155-0.134l-5.562,1.915   c-0.06,0.021-0.118,0.045-0.175,0.074l-4.174,2.136c-0.103,0.053-0.212,0.092-0.325,0.116l-2.573,0.563   c-0.347,0.076-0.709,0.011-1.009-0.179l-1.281-0.815c-0.324-0.206-0.721-0.264-1.091-0.158l-1.485,0.424   c-0.06,0.017-0.12,0.03-0.182,0.039l-3.724,0.525c-1.298,0.183-2.063-1.411-1.109-2.309c0.254-0.239,0.367-0.593,0.299-0.935   l-0.1-0.498c-0.165-0.826-1.208-1.1-1.758-0.462l-1.737,2.017c-0.062,0.072-0.131,0.137-0.207,0.194l-2.974,2.253   c-0.195,0.148-0.344,0.349-0.43,0.578l-0.264,0.713c-0.14,0.378-0.443,0.673-0.824,0.804l-3.92,1.345   c-0.326,0.112-0.596,0.344-0.755,0.65l-2.076,3.979c-0.092,0.176-0.144,0.37-0.151,0.569l-0.165,4.216   c-0.018,0.448-0.258,0.859-0.641,1.093l-1.965,1.204c-0.378,0.232-0.618,0.635-0.64,1.079l-0.147,2.939   c-0.015,0.297-0.132,0.579-0.331,0.799l-0.485,0.536c-0.587,0.649-1.629,0.572-2.115-0.156l-1.176-1.764   c-0.32-0.48-0.911-0.702-1.467-0.552l-0.906,0.244c-0.506,0.136-0.887,0.555-0.975,1.071l-0.448,2.621   c-0.078,0.46,0.087,0.927,0.437,1.235l0.953,0.839c0.573,0.504,0.612,1.384,0.085,1.936l-2.909,3.051   c-0.216,0.227-0.346,0.521-0.368,0.834l-0.88,12.615C4.997,53.117,5,53.212,5.014,53.307l1.353,9.381   c0.095,0.661,0.662,1.152,1.33,1.152h7.697c0.372,0,0.727-0.154,0.981-0.426l1.839-1.966c0.432-0.461,0.484-1.161,0.124-1.682   l-1.999-2.895c-0.229-0.332-0.596-0.544-0.999-0.576l-0.898-0.072c-0.608-0.049-1.108-0.501-1.216-1.102l-1.095-6.099   c-0.091-0.506,0.212-1,0.705-1.147l0.226-0.068c0.533-0.16,1.095,0.141,1.258,0.672l1.449,4.728c0.13,0.423,0.459,0.755,0.88,0.888   l0.826,0.261c0.292,0.092,0.544,0.281,0.714,0.536l0.569,0.853c0.128,0.192,0.303,0.348,0.509,0.453l5.662,2.878   c0.187,0.095,0.35,0.233,0.474,0.403l4.635,6.312l0.263,0.398l1.56,7.074c0.016,0.15,0.057,0.296,0.122,0.433l3.435,7.251   c0.107,0.225,0.273,0.416,0.482,0.551l2.78,1.807c0.573,0.373,1.335,0.255,1.77-0.272l0.368-0.446   c0.194-0.235,0.271-0.545,0.21-0.844l-1.149-5.659c-0.058-0.285-0.022-0.58,0.102-0.843l1.485-3.136   c0.111-0.235,0.289-0.433,0.51-0.569l5.891-3.625c0.284-0.175,0.624-0.238,0.952-0.176l3.706,0.695   c0.444,0.083,0.816,0.384,0.991,0.8l1.584,3.772c0.181,0.431,0.573,0.737,1.035,0.808l2.598,0.4   c0.417,0.064,0.779,0.32,0.979,0.691l0.902,1.675c0.141,0.262,0.191,0.564,0.142,0.858l-0.29,1.739   c-0.03,0.179-0.023,0.361,0.02,0.537l0.705,2.908c0.034,0.141,0.091,0.276,0.168,0.399l0.676,1.075   c0.581,0.925-0.181,2.107-1.263,1.96c-1.247-0.17-1.971,1.366-1.047,2.22l3.695,3.415c0.054,0.05,0.111,0.095,0.173,0.135   l3.913,2.579c0.315,0.207,0.718,0.223,1.048,0.04l0.56-0.311c0.433-0.241,0.628-0.76,0.46-1.227l-0.544-1.511   c-0.059-0.162-0.148-0.312-0.263-0.441l-1.109-1.858l-0.154-0.636c0.132-0.317,0.138-0.672,0.016-0.993l-0.81-2.135   c-0.085-0.224-0.228-0.42-0.414-0.57l-2.781-2.238c-0.615-0.495-0.673-1.41-0.126-1.978l0.913-0.95   c0.384-0.399,0.972-0.522,1.483-0.31l2.725,1.13c0.399,0.166,0.854,0.129,1.222-0.099l3.239-2.005   c0.311-0.193,0.53-0.503,0.607-0.861l0.355-1.658c0.089-0.413-0.023-0.844-0.3-1.163l-2.154-2.477   c-0.675-0.776-0.263-1.993,0.745-2.198l2.309-0.471c0.3-0.061,0.57-0.223,0.766-0.459l2.485-3c0.125-0.151,0.215-0.326,0.265-0.515   l0.299-1.134c0.089-0.339,0.307-0.63,0.608-0.81l2.243-1.346c0.239-0.144,0.428-0.358,0.54-0.614l3.189-7.288   c0.148-0.339,0.15-0.723,0.006-1.063l-0.924-2.179c-0.054-0.128-0.128-0.247-0.219-0.353l-2.02-2.345   c-0.133-0.154-0.332-0.217-0.428-0.429l-0.25-0.924l0.658-1.68c0.437-0.605,0.09-1.46-0.646-1.588l-0.647-0.113   c-0.912-0.16-1.393-1.172-0.941-1.98l0.117-0.208c0.241-0.431,0.708-0.685,1.201-0.656l1.907,0.116   c0.424,0.026,0.811,0.251,1.044,0.607l1.987,3.043c0.474,0.726,1.501,0.82,2.098,0.192l0.267-0.281   c0.37-0.389,0.46-0.966,0.226-1.449l-2.538-5.235c-0.219-0.453-0.168-0.99,0.134-1.393l0.662-0.883   c0.243-0.324,0.243-0.324,0.841-0.81l0.115-0.635l-0.82-9.838c-0.039-0.208-0.128-0.404-0.26-0.57l-1.77-2.213   c-0.289-0.361-0.787-0.48-1.208-0.289l-0.41,0.187c-0.584,0.265-1.264-0.073-1.405-0.698l-0.964-4.268   C80.62,15.843,80.836,15.289,81.286,14.977z"/><path d="M94.379,35.601l-1.391-2.998l0.237-0.686l0.051-1.026l-0.54-0.921c-0.913-0.309-1.834,0.444-1.713,1.399l0.114,0.897   c0.027,0.209,0.104,0.409,0.224,0.583l1.713,2.454c0.164,0.235,0.246,0.517,0.234,0.803l-0.172,3.997   c-0.009,0.22-0.075,0.434-0.189,0.622l-2.784,4.573c-0.357,0.586-0.198,1.349,0.363,1.745h0c0.66,0.465,1.579,0.225,1.928-0.503   l1.651-3.446c0.029-0.06,0.053-0.121,0.072-0.185l0.766-2.524c0.051-0.168,0.068-0.345,0.049-0.52l-0.398-3.674   C94.571,35.979,94.497,35.777,94.379,35.601z"/><path d="M83.61,80.282c-0.631-0.389-1.455-0.238-1.906,0.351l-2.889,3.774c-0.11,0.144-0.247,0.266-0.402,0.36L74.69,87.01   c-0.494,0.297-0.764,0.86-0.686,1.432l0.101,0.743c0.102,0.755,0.774,1.301,1.534,1.247l4.433-0.317   c0.432-0.031,0.827-0.253,1.076-0.607l2.252-3.183c0.212-0.3,0.302-0.67,0.251-1.034l-0.201-1.438   c-0.051-0.361,0.037-0.728,0.246-1.027l0.341-0.489C84.511,81.657,84.316,80.718,83.61,80.282z"/></g><text x="0" y="115" fill="#000000" font-size="5px" font-weight="bold" font-family="'Helvetica Neue', Helvetica, Arial-Unicode, Arial, Sans-serif">Created by Jolan Soens</text><text x="0" y="120" fill="#000000" font-size="5px" font-weight="bold" font-family="'Helvetica Neue', Helvetica, Arial-Unicode, Arial, Sans-serif">from the Noun Project</text></svg>