<svg xmlns:dc="http://purl.org/dc/elements/1.1/" xmlns:cc="http://creativecommons.org/ns#" xmlns:rdf="http://www.w3.org/1999/02/22-rdf-syntax-ns#" xmlns:svg="http://www.w3.org/2000/svg" xmlns="http://www.w3.org/2000/svg" xmlns:sodipodi="http://sodipodi.sourceforge.net/DTD/sodipodi-0.dtd" xmlns:inkscape="http://www.inkscape.org/namespaces/inkscape" version="1.1" x="0px" y="0px" viewBox="0 0 100 125"><g transform="translate(0,-952.36218)"><g transform="matrix(0.19983875,0,0,0.19983875,-96.27036,861.91949)" style="" fill="#000000"><path style="" d="m 783.92856,917.29074 c 0.99549,-1.1 2.03498,-2 2.30998,-2 0.275,0 -0.31449,0.9 -1.30998,2 -0.99549,1.1 -2.03498,2 -2.30998,2 -0.275,0 0.31449,-0.9 1.30998,-2 z m 35.5,-48.37756 c 0,-0.20765 0.7875,-0.99515 1.75,-1.75 1.58606,-1.24387 1.62143,-1.2085 0.37756,0.37756 -1.30637,1.66575 -2.12756,2.19548 -2.12756,1.37244 z m 46.232,-4.62244 c 0,-1.925 0.2058,-2.7125 0.45733,-1.75 0.25152,0.9625 0.25152,2.5375 0,3.5 -0.25153,0.9625 -0.45733,0.175 -0.45733,-1.75 z m 37.10133,-50.65079 c 0,-0.9845 0.33697,-1.0378 1.33334,-0.21089 0.73333,0.60861 1.33333,1.20147 1.33333,1.31746 0,0.11599 -0.6,0.21089 -1.33333,0.21089 -0.73334,0 -1.33334,-0.59286 -1.33334,-1.31746 z M 646.24106,674.60763 c 0.72187,-0.28887 1.58437,-0.25335 1.91667,0.0789 0.33229,0.33229 -0.25834,0.56864 -1.3125,0.52522 -1.16495,-0.048 -1.4019,-0.28494 -0.60417,-0.60416 z m 236.45653,-29.00988 c 0.97297,-0.25354 2.32297,-0.23687 3,0.0371 0.67703,0.27393 -0.11903,0.48137 -1.76903,0.46099 -1.65,-0.0204 -2.20394,-0.2445 -1.23097,-0.49804 z m -344.39658,-7.05701 c -1.24388,-1.58606 -1.20851,-1.62143 0.37755,-0.37756 0.9625,0.75485 1.75,1.54235 1.75,1.75 0,0.82304 -0.82119,0.29331 -2.12755,-1.37244 z m 297.99999,-42 c -1.24387,-1.58606 -1.2085,-1.62143 0.37756,-0.37756 1.66575,1.30637 2.19548,2.12756 1.37244,2.12756 -0.20765,0 -0.99515,-0.7875 -1.75,-1.75 z" fill="#000000"/><path style="" d="m 727.50751,926.70741 c 0.048,-1.16495 0.28494,-1.4019 0.60416,-0.60417 0.28887,0.72187 0.25335,1.58438 -0.0789,1.91667 -0.3323,0.33229 -0.56864,-0.25834 -0.52522,-1.3125 z m 94.92105,-89.79423 c 0,-0.20765 0.7875,-0.99515 1.75,-1.75 1.58606,-1.24387 1.62143,-1.2085 0.37756,0.37756 -1.30637,1.66575 -2.12756,2.19548 -2.12756,1.37244 z m 47.07895,-12.20577 c 0.048,-1.16495 0.28494,-1.4019 0.60416,-0.60417 0.28887,0.72187 0.25335,1.58438 -0.0789,1.91667 -0.33229,0.33229 -0.56864,-0.25834 -0.52522,-1.3125 z m -165,-40 c 0.048,-1.16495 0.28494,-1.4019 0.60416,-0.60417 0.28887,0.72187 0.25335,1.58438 -0.0789,1.91667 -0.3323,0.33229 -0.56864,-0.25834 -0.52522,-1.3125 z M 911.58645,643.29074 c 0,-1.375 0.22698,-1.9375 0.50439,-1.25 0.27741,0.6875 0.27741,1.8125 0,2.5 -0.27741,0.6875 -0.50439,0.125 -0.50439,-1.25 z m -72.28545,-43.75 c -1.24387,-1.58606 -1.2085,-1.62143 0.37756,-0.37756 1.66575,1.30637 2.19548,2.12756 1.37244,2.12756 -0.20765,0 -0.99515,-0.7875 -1.75,-1.75 z M 674.24106,481.60763 c 0.72187,-0.28888 1.58437,-0.25335 1.91667,0.079 0.33229,0.33229 -0.25834,0.56864 -1.3125,0.52522 -1.16495,-0.048 -1.4019,-0.28494 -0.60417,-0.60417 z" fill="#000000"/><path style="" d="m 725.42856,920.34976 c 0,-0.51754 0.44485,-1.21592 0.98855,-1.55194 0.56686,-0.35034 0.7345,0.0511 0.39301,0.94098 -0.66479,1.73242 -1.38156,2.04939 -1.38156,0.61096 z m 106,-92.43658 c 0,-0.20765 0.7875,-0.99515 1.75,-1.75 1.58606,-1.24387 1.62143,-1.2085 0.37756,0.37756 -1.30637,1.66575 -2.12756,2.19548 -2.12756,1.37244 z m -37.92105,-81.20577 c 0.048,-1.16495 0.28494,-1.4019 0.60416,-0.60417 0.28887,0.72187 0.25335,1.58438 -0.0789,1.91667 -0.33229,0.33229 -0.56864,-0.25834 -0.52522,-1.3125 z m 91.92105,-49.91667 c 1.86578,-1.925 3.61733,-3.5 3.89233,-3.5 0.275,0 -1.02655,1.575 -2.89233,3.5 -1.86578,1.925 -3.61733,3.5 -3.89233,3.5 -0.275,0 1.02655,-1.575 2.89233,-3.5 z m 5.75,-53.16228 c 0.6875,-0.27741 1.8125,-0.27741 2.5,0 0.6875,0.27741 0.125,0.50439 -1.25,0.50439 -1.375,0 -1.9375,-0.22698 -1.25,-0.50439 z m 6,-1 c 0.6875,-0.27741 1.8125,-0.27741 2.5,0 0.6875,0.27741 0.125,0.50439 -1.25,0.50439 -1.375,0 -1.9375,-0.22698 -1.25,-0.50439 z m -360.59211,-9.33772 c 0,-1.375 0.22698,-1.9375 0.50439,-1.25 0.27741,0.6875 0.27741,1.8125 0,2.5 -0.27741,0.6875 -0.50439,0.125 -0.50439,-1.25 z" fill="#000000"/><path style="" d="m 753.17856,927.62846 c 0.6875,-0.27741 1.8125,-0.27741 2.5,0 0.6875,0.27741 0.125,0.50439 -1.25,0.50439 -1.375,0 -1.9375,-0.22698 -1.25,-0.50439 z m 54.32895,-47.00593 c -0.0434,-0.64252 -0.33793,-1.99252 -0.65446,-3 -0.54705,-1.74122 -0.51883,-1.7434 0.57078,-0.0441 0.63045,0.98322 0.92496,2.33322 0.65445,3 -0.35498,0.87499 -0.51379,0.88727 -0.57077,0.0441 z m -113.884,-62.83179 c 0.0204,-1.65 0.2445,-2.20394 0.49804,-1.23097 0.25354,0.97297 0.23687,2.32297 -0.0371,3 -0.27393,0.67703 -0.48137,-0.11903 -0.46099,-1.76903 z m 159.05723,-28 c 0.0111,-2.2 0.21589,-2.98225 0.45508,-1.73834 0.23919,1.24391 0.23011,3.04391 -0.0202,4 -0.25029,0.95609 -0.446,-0.0617 -0.4349,-2.26166 z m -0.17323,-9.08333 c 0.048,-1.16495 0.28494,-1.4019 0.60416,-0.60417 0.28887,0.72187 0.25335,1.58438 -0.0789,1.91667 -0.33229,0.33229 -0.56864,-0.25834 -0.52522,-1.3125 z m -36.07895,-5.41667 c 0,-0.55 0.47656,-1 1.05902,-1 0.58246,0 0.7809,0.45 0.44098,1 -0.33992,0.55 -0.81648,1 -1.05902,1 -0.24254,0 -0.44098,-0.45 -0.44098,-1 z m -8.1875,-46.68311 c 0.72187,-0.28887 1.58438,-0.25335 1.91667,0.0789 0.33229,0.33229 -0.25834,0.56864 -1.3125,0.52522 -1.16495,-0.048 -1.4019,-0.28494 -0.60417,-0.60416 z m -107,-221 c 0.72187,-0.28888 1.58437,-0.25335 1.91667,0.079 0.33229,0.33229 -0.25834,0.56864 -1.3125,0.52522 -1.16495,-0.048 -1.4019,-0.28494 -0.60417,-0.60417 z" fill="#000000"/><path style="" d="m 864.58645,854.29074 c 0,-1.375 0.22698,-1.9375 0.50439,-1.25 0.27741,0.6875 0.27741,1.8125 0,2.5 -0.27741,0.6875 -0.50439,0.125 -0.50439,-1.25 z m 37.92106,-35.58333 c 0.048,-1.16495 0.28494,-1.4019 0.60416,-0.60417 0.28887,0.72187 0.25335,1.58438 -0.0789,1.91667 -0.33229,0.33229 -0.56864,-0.25834 -0.52522,-1.3125 z m -10,-18 c 0.048,-1.16495 0.28494,-1.4019 0.60416,-0.60417 0.28887,0.72187 0.25335,1.58438 -0.0789,1.91667 -0.33229,0.33229 -0.56864,-0.25834 -0.52522,-1.3125 z m -39.884,-4.91667 c 0.0204,-1.65 0.2445,-2.20394 0.49804,-1.23097 0.25354,0.97297 0.23687,2.32297 -0.0371,3 -0.27393,0.67703 -0.48137,-0.11903 -0.46099,-1.76903 z m -0.0371,-11.5 c 0,-1.375 0.22698,-1.9375 0.50439,-1.25 0.27741,0.6875 0.27741,1.8125 0,2.5 -0.27741,0.6875 -0.50439,0.125 -0.50439,-1.25 z m -62,-44 c 0,-1.375 0.22698,-1.9375 0.50439,-1.25 0.27741,0.6875 0.27741,1.8125 0,2.5 -0.27741,0.6875 -0.50439,0.125 -0.50439,-1.25 z m 26.92106,-21.58333 c 0.048,-1.16495 0.28494,-1.4019 0.60416,-0.60417 0.28887,0.72187 0.25335,1.58438 -0.0789,1.91667 -0.33229,0.33229 -0.56864,-0.25834 -0.52522,-1.3125 z m 50.92109,-6.79423 c 0,-0.20765 0.7875,-0.99515 1.75,-1.75 1.58606,-1.24387 1.62143,-1.2085 0.37756,0.37756 -1.30637,1.66575 -2.12756,2.19548 -2.12756,1.37244 z m 4,-4 c 0,-0.20765 0.7875,-0.99515 1.75,-1.75 1.58606,-1.24387 1.62143,-1.2085 0.37756,0.37756 -1.30637,1.66575 -2.12756,2.19548 -2.12756,1.37244 z m -267.25,-26.28472 c 0.6875,-0.27741 1.8125,-0.27741 2.5,0 0.6875,0.27741 0.125,0.50439 -1.25,0.50439 -1.375,0 -1.9375,-0.22698 -1.25,-0.50439 z M 822.76189,563.83473 c 0,-0.80081 0.38234,-1.21971 0.84965,-0.9309 0.4673,0.28881 0.59075,0.94401 0.27431,1.45601 -0.80862,1.30838 -1.12396,1.16106 -1.12396,-0.52511 z m -57.7215,-48.36305 c -0.27841,-0.45048 0.82003,-0.6244 2.44098,-0.3865 1.62096,0.23791 2.94719,0.60648 2.94719,0.81906 0,0.76198 -4.89266,0.3692 -5.38817,-0.43256 z M 655.24106,482.60763 c 0.72187,-0.28888 1.58437,-0.25335 1.91667,0.079 0.33229,0.33229 -0.25834,0.56864 -1.3125,0.52522 -1.16495,-0.048 -1.4019,-0.28494 -0.60417,-0.60417 z" fill="#000000"/><path style="" d="m 742.24106,929.60763 c 0.72187,-0.28887 1.58437,-0.25335 1.91667,0.0789 0.33229,0.33229 -0.25834,0.56864 -1.3125,0.52522 -1.16495,-0.048 -1.4019,-0.28494 -0.60417,-0.60416 z m 43.14571,-14.56689 c 2.45201,-2.6125 4.58951,-4.75 4.75,-4.75 0.75088,0 -0.043,0.89783 -4.45821,5.04179 l -4.75,4.45821 4.45821,-4.75 z m 13.04179,-17.12756 c 0,-0.20765 0.7875,-0.99515 1.75,-1.75 1.58606,-1.24387 1.62143,-1.2085 0.37756,0.37756 -1.30637,1.66575 -2.12756,2.19548 -2.12756,1.37244 z m 24.15789,-41.62244 c 0,-1.375 0.22698,-1.9375 0.50439,-1.25 0.27741,0.6875 0.27741,1.8125 0,2.5 -0.27741,0.6875 -0.50439,0.125 -0.50439,-1.25 z m 49,-19 c 0,-1.375 0.22698,-1.9375 0.50439,-1.25 0.27741,0.6875 0.27741,1.8125 0,2.5 -0.27741,0.6875 -0.50439,0.125 -0.50439,-1.25 z m 29.84211,-25.16667 c 0,-0.45833 0.42344,-0.83333 0.94098,-0.83333 0.51754,0 1.17275,0.375 1.45601,0.83333 0.28327,0.45834 -0.14017,0.83334 -0.94098,0.83334 -0.8008,0 -1.45601,-0.375 -1.45601,-0.83334 z m -80.84211,-18.83333 c 0,-1.375 0.22698,-1.9375 0.50439,-1.25 0.27741,0.6875 0.27741,1.8125 0,2.5 -0.27741,0.6875 -0.50439,0.125 -0.50439,-1.25 z m -3,-6 c 0,-1.375 0.22698,-1.9375 0.50439,-1.25 0.27741,0.6875 0.27741,1.8125 0,2.5 -0.27741,0.6875 -0.50439,0.125 -0.50439,-1.25 z m -19.69901,-20.06653 c -0.36253,-0.58659 -0.44468,-1.281 -0.18255,-1.54313 0.26212,-0.26213 0.74306,0.21781 1.06875,1.06653 0.67618,1.76211 0.0999,2.07206 -0.8862,0.4766 z m -7.37993,-23.5168 c 0.048,-1.16495 0.28494,-1.4019 0.60416,-0.60417 0.28887,0.72187 0.25335,1.58438 -0.0789,1.91667 -0.33229,0.33229 -0.56864,-0.25834 -0.52522,-1.3125 z M 683.58645,696.29074 c 0,-1.375 0.22698,-1.9375 0.50439,-1.25 0.27741,0.6875 0.27741,1.8125 0,2.5 -0.27741,0.6875 -0.50439,0.125 -0.50439,-1.25 z M 533.42856,621.91318 c 0,-0.20765 0.7875,-0.99515 1.75,-1.75 1.58606,-1.24387 1.62143,-1.2085 0.37755,0.37756 -1.30636,1.66575 -2.12755,2.19548 -2.12755,1.37244 z m 41,-90 c 0,-0.20765 0.7875,-0.99515 1.75,-1.75 1.58606,-1.24387 1.62143,-1.2085 0.37755,0.37756 -1.30636,1.66575 -2.12755,2.19548 -2.12755,1.37244 z m 114.5,-29.62244 c -0.33992,-0.55 -0.14148,-1 0.44098,-1 0.58246,0 1.05902,0.45 1.05902,1 0,0.55 -0.19844,1 -0.44098,1 -0.24254,0 -0.7191,-0.45 -1.05902,-1 z m 0.57895,-7.58333 c 0.048,-1.16495 0.28494,-1.4019 0.60416,-0.60417 0.28887,0.72188 0.25335,1.58438 -0.0789,1.91667 -0.3323,0.33229 -0.56864,-0.25834 -0.52522,-1.3125 z" fill="#000000"/><path style="" d="m 733.42856,930.28625 c -1.375,-1.07802 -3.0625,-1.75713 -3.75,-1.50915 -0.78537,0.28328 -1.25,-0.47177 -1.25,-2.03131 0,-1.3652 -0.5625,-3.43488 -1.25,-4.59927 -1,-1.69367 -1,-2.20762 0,-2.56977 1.85294,-0.67103 1.51732,-4.84169 -0.74674,-9.27961 -1.0982,-2.15266 -2.93316,-6.41675 -4.07768,-9.47576 -1.14452,-3.05901 -3.10768,-6.79232 -4.36257,-8.29624 -1.25489,-1.50392 -2.95282,-4.0844 -3.77317,-5.7344 -1.64674,-3.31213 -4.3332,-16.45634 -5.39919,-26.41687 -0.51616,-4.82296 -2.02763,-9.16983 -6.08502,-17.5 -2.96905,-6.09572 -6.0458,-12.20813 -6.83721,-13.58313 -1.888,-3.28021 -1.85842,-12.75135 0.062,-19.84609 0.84172,-3.10965 1.96626,-7.27959 2.49898,-9.26653 0.53272,-1.98694 2.13399,-4.77802 3.55837,-6.20241 3.72436,-3.72435 4.18871,-9.18534 1.46634,-17.24487 -1.60966,-4.76535 -1.91913,-6.89779 -1.1377,-7.83935 0.78952,-0.95132 0.002,-4.30935 -2.97673,-12.69707 -4.28625,-12.06849 -6.81012,-16.62018 -12.91267,-23.28746 -2.07215,-2.26392 -4.7569,-6.0715 -5.9661,-8.46129 -2.0602,-4.07166 -2.10118,-4.55025 -0.65129,-7.60568 0.851,-1.79333 1.7291,-5.23805 1.95134,-7.65492 0.22224,-2.41688 0.94666,-6.47738 1.60982,-9.02334 1.29639,-4.97703 0.51253,-7.52042 -3.90759,-12.67892 -1.89592,-2.21263 -2.27776,-2.26633 -9.24742,-1.30049 -6.21967,0.86191 -7.52596,0.77567 -9.0428,-0.59705 -0.97514,-0.88248 -1.77297,-2.27978 -1.77297,-3.10513 0,-0.82534 -1.1884,-3.0587 -2.6409,-4.96302 l -2.6409,-3.46239 -8.1091,0.46664 c -4.63582,0.26678 -9.39406,1.14947 -11.1091,2.06084 -1.65,0.87681 -6.01052,2.80096 -9.69006,4.2759 -6.36643,2.55199 -7.00337,2.62259 -13.16728,1.45955 -6.91937,-1.30559 -9.64572,-1.01162 -19.24359,2.07494 -4.41186,1.4188 -6.76513,1.70323 -8.5,1.02734 -1.31949,-0.51406 -6.43539,-4.4081 -11.36866,-8.65342 -4.93328,-4.24532 -9.99976,-8.18814 -11.25885,-8.76182 -2.54551,-1.15981 -5.27156,-5.88422 -5.27156,-9.13593 0,-1.87786 -4.62049,-8.34138 -9.32831,-13.04919 -0.92663,-0.92664 -2.14767,-2.5497 -2.71342,-3.60682 -0.56575,-1.05711 -1.63605,-1.92202 -2.37844,-1.92202 -2.5395,0 -4.5935,-4.68978 -4.36401,-9.96408 0.15603,-3.586 -0.25995,-5.50862 -1.44914,-6.69781 -1.55731,-1.55731 -1.53616,-1.85311 0.31874,-4.45808 2.13906,-3.00402 5.85256,-15.66362 5.89104,-20.08298 0.0129,-1.48662 -0.49262,-3.83579 -1.12348,-5.22038 -0.8846,-1.94149 -0.85754,-2.86625 0.11829,-4.04205 1.03187,-1.24333 0.9625,-1.98675 -0.37603,-4.02961 -0.90274,-1.37776 -2.11673,-2.50501 -2.69775,-2.50501 -2.64744,0 4.79325,-16.64545 10.05774,-22.5 0.98913,-1.1 2.36333,-3.76198 3.05377,-5.91551 0.69044,-2.15353 2.65837,-5.35558 4.37318,-7.11567 1.7148,-1.7601 3.84521,-4.54235 4.73424,-6.18278 1.02699,-1.895 2.67498,-3.19432 4.51939,-3.5632 3.43354,-0.68671 11.14859,-6.55302 12.99406,-9.88033 0.71459,-1.28838 1.3196,-3.91751 1.34446,-5.84251 0.0249,-1.925 1.11903,-5.8062 2.43147,-8.62489 2.32623,-4.99597 3.3717,-6.05283 10.5704,-10.68558 3.36534,-2.16578 5.62582,-5.00693 9.2651,-11.6451 l 1.7413,-3.17619 2.2587,2.54231 c 2.00949,2.26181 3.08619,2.55943 9.7587,2.69742 6.89871,0.14268 8.04859,-0.1419 14.34256,-3.54953 7.92302,-4.28961 18.18852,-6.71824 27.01902,-6.3922 3.40483,0.12571 6.85346,-0.18111 7.66362,-0.68181 0.81016,-0.50071 4.39842,-0.9752 7.97391,-1.05443 3.57549,-0.0792 7.80873,-0.4993 9.40721,-0.93349 2.23808,-0.60792 3.19997,-0.38784 4.18347,0.95717 0.70243,0.96063 1.75708,1.44998 2.34368,1.08744 1.36266,-0.84217 1.34369,-0.24352 -0.0921,2.90777 -0.95383,2.09341 -0.86041,2.87256 0.52842,4.40719 1.96496,2.17126 0.90464,6.44091 -1.86329,7.50307 -2.15126,0.82551 -1.60482,5.136 0.65341,5.1543 0.91293,0.007 2.48875,0.76358 3.50183,1.6804 2.54773,2.30569 6.83269,3.80615 10.86943,3.80615 4.86818,0 10.15459,2.82714 11.53984,6.17143 0.73812,1.78198 2.16758,3.07078 3.80558,3.4311 5.22097,1.1485 9.52461,2.70163 12.73547,4.59609 2.59095,1.5287 3.70441,1.70238 5.33142,0.83163 2.21037,-1.18295 2.32133,-1.51655 2.46318,-7.40549 0.07,-2.90457 0.71955,-4.34195 2.59334,-5.73846 4.35617,-3.24658 8.02933,-3.35567 12.43013,-0.36918 2.16157,1.4669 5.53657,2.91889 7.5,3.22666 1.96343,0.30776 3.92973,1.16631 4.36956,1.90789 0.43983,0.74158 2.13682,1.34833 3.77108,1.34833 1.63427,0 6.27266,0.97125 10.30753,2.15833 l 7.33613,2.15832 4.45851,-2.15832 c 8.32083,-4.02805 11.7165,-2.74722 12.92122,4.87381 0.45653,2.88799 1.92536,7.3247 3.26407,9.85937 1.33871,2.53467 4.30837,8.43349 6.59924,13.10849 2.29087,4.675 5.36128,10.525 6.82312,13 1.46185,2.475 2.53492,5.08253 2.3846,5.7945 -0.35821,1.69665 3.46772,7.85066 5.32345,8.56277 2.1726,0.8337 4.14577,6.40459 4.95938,14.00191 0.66377,6.19819 1.06474,7.09667 4.66847,10.4607 2.93732,2.74195 4.45185,5.33716 5.94101,10.18012 2.28927,7.44503 3.81717,10.18412 4.60196,8.25 0.82641,-2.03667 2.19835,-1.42227 1.63495,0.73218 -0.37681,1.44093 0.14559,2.23461 1.91319,2.90665 2.62533,0.99815 13.34392,11.68367 15.7924,15.74368 1.36333,2.26063 1.33883,2.57841 -0.26888,3.48763 -1.58191,0.89463 -1.32438,1.42746 2.43631,5.04073 4.53387,4.35613 4.14448,4.30896 14.83257,1.79711 2.475,-0.58165 7.72858,-1.68105 11.67461,-2.4431 3.94604,-0.76205 8.53619,-2.08965 10.20034,-2.95022 1.66415,-0.86056 3.45276,-1.56466 3.9747,-1.56466 1.53589,0 1.91655,9.3135 0.44228,10.82143 -0.71056,0.72678 -1.29193,2.18091 -1.29193,3.23139 0,1.82129 -3.85136,10.57936 -11.84267,26.93049 -3.78101,7.73637 -11.25872,16.14074 -23.46997,26.37845 -3.18944,2.67397 -8.27166,8.39054 -11.29383,12.7035 -3.02216,4.31295 -6.56373,8.65016 -7.87014,9.63823 -2.5804,1.95163 -10.52339,18.71845 -10.52339,22.21377 0,1.18421 0.71731,3.24785 1.59401,4.58588 0.87671,1.33803 1.38752,3.00969 1.13513,3.71482 -0.25239,0.70512 -0.0685,2.04223 0.40869,2.97135 0.50205,0.97758 0.4834,1.92675 -0.0443,2.25286 -1.26502,0.78182 1.38802,11.7036 3.16018,13.00954 1.06883,0.78764 1.57562,4.80117 2.03823,16.14168 0.52606,12.89581 0.3817,15.4438 -0.9915,17.5 -3.27289,4.9008 -6.91465,8.18597 -11.08732,10.0017 -4.27093,1.8585 -19.81414,16.05215 -20.70241,18.90491 -0.25688,0.825 0.13105,3.22662 0.86206,5.33692 1.43556,4.14422 2.1289,16.50696 1.10643,19.72847 -0.34612,1.09055 -3.24098,3.29994 -6.43887,4.91423 -7.6829,3.87832 -9.11402,5.40212 -8.40466,8.94894 0.86792,4.3396 -2.23135,13.76039 -5.15772,15.67782 -1.35826,0.88996 -4.01332,4.15943 -5.90015,7.26548 -3.40207,5.60041 -16.11413,18.77408 -20.20867,20.94249 -5.20588,2.75697 -12.40201,4.53827 -18.86917,4.6708 -7.64031,0.15658 -17.3545,1.96935 -18.91486,3.52971 -1.32951,1.32951 -1.69194,1.24894 -4.58514,-1.01935 z m 88.19103,-136.04319 c -0.1002,-8.91069 -1.54803,-17.70932 -3.18317,-19.34446 -1.62402,-1.62402 -2.03053,-0.1693 -0.96642,3.45837 0.55397,1.88857 0.73109,5.12505 0.39358,7.19217 -0.73237,4.48549 1.47963,17.93672 2.87322,17.47219 0.54462,-0.18154 0.93573,-4.07062 0.88279,-8.77827 z m -20.70424,-27.70232 c -0.39996,-0.9625 -1.34477,-3.72296 -2.09959,-6.13435 -0.75482,-2.41139 -2.12385,-4.93382 -3.04228,-5.60539 -0.93225,-0.68168 -1.40781,-1.90398 -1.0766,-2.76711 0.69547,-1.81237 -1.9619,-12.78548 -3.44928,-14.24315 -0.69329,-0.67943 -0.79975,1.72483 -0.3321,7.5 0.52166,6.44219 1.26279,9.38827 3.06132,12.16908 1.30516,2.01799 2.67795,4.94299 3.05064,6.5 0.91798,3.83511 1.26911,4.33092 3.06711,4.33092 1.08461,0 1.3303,-0.52383 0.82078,-1.75 z m 13.77266,-38.39055 c -0.85406,-0.85406 -0.52752,-2.04268 1.3,-4.73213 4.81113,-7.08022 2.07695,-12.48254 -5.1161,-10.10863 -4.38235,1.44631 -5.44335,3.47649 -5.44335,10.41557 l 0,5.56574 5.2,0 c 3.89386,0 4.91352,-0.28648 4.05945,-1.14055 z m 56.6286,144.64091 c -3.38452,-1.83945 -4.63471,-5.22619 -5.45884,-14.78791 -0.53556,-6.21363 -0.36715,-8.13365 0.83327,-9.5 0.82747,-0.94185 2.46238,-3.61772 3.63314,-5.94638 1.95645,-3.89145 2.03647,-4.79203 0.98923,-11.1333 -0.98999,-5.99464 -0.9082,-7.50475 0.62373,-11.51607 0.96972,-2.53918 2.39196,-4.6167 3.16052,-4.6167 2.45801,0 11.43165,-5.03411 14.41633,-8.08739 1.58762,-1.62412 3.16667,-4.06887 3.50899,-5.43278 0.34232,-1.3639 1.05017,-2.47983 1.57301,-2.47983 0.52283,0 0.65389,-0.4801 0.29123,-1.06688 -0.39314,-0.63612 0.0638,-0.93894 1.13172,-0.75 1.34266,0.23754 2.01858,-0.622 2.6997,-3.43312 0.49973,-2.0625 1.30786,-3.75 1.79584,-3.75 2.47312,0 6.72615,17.86602 5.31297,22.31857 -0.57202,1.80227 -0.73209,1.83742 -1.56767,0.34432 -1.59136,-2.8436 -2.7325,-1.82943 -2.12863,1.89179 0.31726,1.95507 0.12372,4.54257 -0.4301,5.75 -0.55381,1.20743 -1.90735,5.34532 -3.00785,9.19532 -3.61938,12.662 -13.10487,38.7688 -14.64597,40.3099 -1.28894,1.28894 -8.08732,4.21152 -9.61867,4.13501 -0.275,-0.0137 -1.67538,-0.66379 -3.11195,-1.44455 z M 540.09523,643.62407 c -1.21466,-1.21466 -0.69095,-2.27988 0.83333,-1.69496 0.825,0.31659 1.5,0.97746 1.5,1.46862 0,1.0484 -1.37764,1.18204 -2.33333,0.22634 z" fill="#000000"/></g></g><text x="0" y="115" fill="#000000" font-size="5px" font-weight="bold" font-family="'Helvetica Neue', Helvetica, Arial-Unicode, Arial, Sans-serif">Created by G</text><text x="0" y="120" fill="#000000" font-size="5px" font-weight="bold" font-family="'Helvetica Neue', Helvetica, Arial-Unicode, Arial, Sans-serif">from the Noun Project</text></svg>