<svg xmlns="http://www.w3.org/2000/svg" xmlns:xlink="http://www.w3.org/1999/xlink" version="1.1" x="0px" y="0px" viewBox="0 0 100 125" enable-background="new 0 0 100 100" xml:space="preserve"><path d="M79.104,61.14c-0.293-0.26-0.436,0.037-0.832-0.289c-0.398-0.32-0.569-0.344-1.452-0.445  c-0.889-0.104-0.552,0.262-1.495,0.27c-0.942,0.008-0.424,0.18-1.064,0.162s0,0-0.265-0.369c-0.269-0.371-0.844,0.033-1.287-0.068  c-0.447-0.105-0.444-0.068-0.684-0.086c-0.236-0.018-0.606-0.02-1.196-0.223c-0.593-0.195-1.097,0.168-1.097,0.168l0.55-0.621  c0,0-0.003-0.463-0.393-1.072c-0.618-2.131-3.213-1.729-3.415-1.713c-0.202,0.018-0.364,0.068-0.953-0.131  c-0.59-0.201-0.687,0.236-0.715-0.084c-0.029-0.32-0.021-0.211-0.205-0.445c-0.191-0.236-0.499-0.281-0.948-0.422  c-0.45-0.139-0.271-0.014-0.439,0.004c-0.164,0.012-0.358,0.137-0.752-0.15c-0.395-0.291,0,0-0.042-0.104  c-0.043-0.105,0.14-0.336,0.14-0.336s0,0-0.199,0.018c-0.203,0.02-0.282-0.117-0.428-0.25c-0.145-0.129-0.398-0.322-0.7-0.297  c-0.299,0.025-0.159,0.082-0.419,0.213c-0.256,0.131-1.227,0.215-1.227,0.215s-0.336,0.027-0.604,0.051  c-0.266,0.021-0.197,0.018-0.434,0.037c-0.233,0.02-0.678-0.049-0.678-0.049s-0.217-0.125-0.596-0.236  c-0.378-0.111-0.185-0.199-0.521-0.205c-0.339-0.006-0.282,0.273-0.425,0.535c-0.147,0.266,0,0-0.222,0.162s-0.137,0.408-0.094,0.51  c0.042,0.104,0.04,0.424,0.04,0.424s-0.328,0.172-0.535,0.084c-0.209-0.088,0.022-0.932-0.004-1.217c-0.022-0.285,0,0,0.012-0.25  c0.015-0.25,0.273-0.383,0.23-0.486c-0.045-0.102-0.51,0.33-0.643,0.377c-0.129,0.049-0.508,0.365-0.975,0.799  c-0.47,0.436-0.287,0.205-0.547,0.299c-0.262,0.094-0.262,0.094-0.467,0.469c-0.205,0.373-0.111,0.26-0.208,0.34  c-0.094,0.08-0.388,0.963-0.388,0.963l-0.446-0.104c0,0,0,0-0.29-0.264c-0.294-0.264-0.068-0.777-0.266-0.979  c-0.193-0.199-1.256,0.57-1.583,0.674c-0.327,0.096-0.532,0.078-0.769,0.064c-0.236-0.018-0.729-0.262-0.875-0.391  c-0.148-0.131-0.361-0.293-0.361-0.293s-0.229-0.301-0.342-0.436c-0.111-0.131-0.086-0.205-0.159-0.305  c-0.08-0.102-0.043-0.857-0.06-1.105c-0.023-0.25,0.193-0.48,0.145-0.619c-0.045-0.141-1.057-1.342-1.326-1.391  c-0.277-0.049-1.783,0.082-2.116,0.111c-0.337,0.025-0.006-0.857,0.011-1.037c0.018-0.182,0.092-0.512,0.141-0.729  c0.051-0.219,0.133-0.409,0.216-0.665c0.079-0.256,0.046-0.219,0.126-0.475c0.076-0.257,0.139-0.334,0.156-0.516  c0.02-0.18,0.051-0.217-0.08-0.529c-0.123-0.311-0.365,0.031-1.017,0.301c-0.649,0.271-0.348,0.282-0.601,0.447  c-0.256,0.166-0.177,0.303-0.487,1.008c-0.311,0.708,0,0-0.153,0.155c-0.157,0.156-0.354,0.211-0.789,0.248  c-0.434,0.037-0.703,0.057-0.971,0.045c-0.273-0.012-0.377-0.039-0.551-0.096c-0.17-0.055-0.748-0.078-1.141-0.366  c-0.396-0.287,0,0-0.166-0.344c-0.165-0.346-0.275-0.477-0.569-0.738c-0.29-0.262-0.515-0.529-0.535-0.749  c-0.017-0.222-0.012-0.137-0.021-0.242c-0.008-0.105-0.043-0.495-0.07-0.852c-0.031-0.354,0.017-0.573-0.08-0.923  s0.105-0.33,0.159-0.516c0.049-0.182,0.157-0.119,0.501-0.436c0.342-0.316-0.048-0.532-0.122-0.635  c-0.074-0.1-0.054-0.207-0.068-0.387c-0.015-0.178,0.157-0.157,0.147-0.262c-0.011-0.105,1.074-0.844,1.655-1.108  c0.583-0.264,0.222-0.161,0.589-0.228c0.365-0.068,0.447,0.104,1.223,0.433c0.777,0.325,0.363,0.003,0.629-0.054  c0.265-0.061,0.467-0.041,0.703-0.061c0.234-0.022,0.322-0.17,0.348-0.281c0.022-0.109-0.225-0.23-0.233-0.336  c-0.009-0.109,0.433-0.074,0.632-0.092s0.467-0.041,0.838-0.07c0.367-0.032,0.537-0.012,0.72,0.152  c0.183,0.163,0.325,0.26,0.746,0.438c0.419,0.178,0.269,0.014,0.505-0.007c0.232-0.021,0.232-0.021,0.469-0.04  c0.23-0.021,0.154,0.271,0.214,0.587c0.063,0.319,0.183,0.524,0.183,0.524s0,0,0.037,0.422c0.033,0.43,0.128,0.312,0.233,0.375  c0.104,0.062,0.697,1.051,1.091,0.945c0.396-0.105,0.188-0.16,0.305-0.385c0.116-0.225,0.097-0.831,0.097-0.831  s-0.259-0.3-0.339-0.436c-0.08-0.137-0.254-0.587-0.305-0.798c-0.055-0.209-0.114-0.523-0.191-0.626  c-0.074-0.103-0.048-0.604-0.116-0.991s0.097-0.438,0.116-0.584c0.023-0.144,0.273-0.379,0.33-0.492  c0.058-0.111,0.342-0.351,0.456-0.576c0.117-0.225,0.379-0.318,0.63-0.518c0.253-0.201,0.375-0.354,0.626-0.555  c0.253-0.199,0,0,0.317-0.456c0.313-0.456-0.048-0.353-0.058-0.638c-0.006-0.287,0.055-1.544,0.266-1.453  c0.211,0.089,0,0,0.438-0.002c0.438,0,0,0,0.134-0.404s0.33-0.459,0.381-0.643c0.055-0.182,0.105-0.366,0.178-0.693  c0.073-0.33,0.073-0.33,0.25-0.631s0.481,0.104,1.137-0.49c0.657-0.592,0.25-0.234,0.301-0.42c0.055-0.182-0.017-0.213-0.031-0.39  c-0.02-0.177,0.092-0.474,0.086-0.578c-0.012-0.106,0.18-0.268,0.361-0.462c0.188-0.193,0.257-0.164,0.545-0.332  c0.289-0.168,0.412-0.32,0.506-0.4s0.172-0.336,0.771-0.818c0.599-0.479,0.055,0.247,0.004,0.43  c-0.052,0.182-0.578,0.729-0.436,1.219c0.145,0.486,0.179,0.125,0.541,0.023c0.361-0.102,0.879-0.754,0.965-0.939  c0.086-0.188,0.863-0.934,0.817-1.072c-0.043-0.139-0.063-0.317-0.063-0.317s-0.307-0.079-0.726-0.258s0,0-0.618-0.128  c-0.617-0.125,0,0-0.296-0.297c-0.294-0.295,0,0-0.379-0.109c-0.382-0.111,0,0-0.022-0.248c-0.02-0.248,0.318-0.207,0.547-0.704  c0.228-0.499,0.139-0.356-0.049-0.556c-0.182-0.197-0.205-0.018-0.569,0.014c-0.367,0.032-0.399,0.07-0.954,0.297  c-0.553,0.225,0,0-0.199,0.397c-0.205,0.395-0.148,0.274-0.302,0.432c-0.153,0.155-0.311,0.277-0.942,0.401  c-0.627,0.127,0,0,0.082-0.219c0.083-0.226,0,0,0.293-0.541c0.288-0.54,0.273-0.331,0.422-0.596  c0.143-0.262,0.473-0.361,0.692-0.559c0.216-0.199,0.39-0.143,0.72-0.242c0.328-0.1,1.034-0.088,1.703-0.179  c0.664-0.095,0.559-0.157,0.707-0.382c0.15-0.229,0.312-0.672,0.358-0.928c0.048-0.254,0.216-0.232,0.273-0.344  c0.06-0.112,0.396-0.5,0.345-0.711c-0.052-0.21-0.104-0.418-0.282-0.51c-0.174-0.092-0.339-0.079-0.687-0.191  c-0.348-0.114-0.275-0.049-0.311-0.475c-0.037-0.427,0,0-0.105-0.028c-0.102-0.025-0.623-0.231-1.042-0.376  c-0.415-0.143-0.204-0.018-0.649-0.086c-0.443-0.07-0.473-0.819-0.654-0.982c-0.183-0.163-0.436-0.785-0.707-1.155  c-0.268-0.37-0.387-0.609-0.605-0.806c-0.22-0.197,0,0-0.203,0.374c-0.205,0.378,0,0,0.062,0.138c0.066,0.137-0.51,0.578-0.51,0.578  s-0.315-0.15-0.555-0.201s-0.519-0.168-0.812-0.431c-0.29-0.262-0.063-0.353-0.159-0.703c-0.1-0.348-0.049-0.174-0.294-0.259  c-0.241-0.088-0.31-0.08-0.425-0.251c-0.116-0.169-0.39-0.217-0.598-0.271c-0.205-0.055-0.441-0.034-0.947-0.062  c-0.508-0.029-0.257,0.129-0.391,0.355c-0.131,0.225-0.299,0.635-0.291,1.527c0.009,0.893-0.012,0.25-0.125,0.617  c-0.113,0.37-0.086,0.438,0.062,0.746c0.151,0.311-0.045,0.148,0.236,0.268c0.279,0.118,0.214,0.16,0.444,0.676  c0.231,0.518-0.046,0.471,0.074,0.854c0.114,0.383-0.376,0.532-0.694,0.738c-0.319,0.207-0.348,0.279-0.377,0.711  c-0.033,0.434,0.186,0.236,0.209,0.877c0.02,0.641-0.01,0.322-0.246,0.701c-0.236,0.377-0.387,0.211-0.589,0.191  c-0.202-0.016-0.462-0.676-0.566-1.13c-0.108-0.457,0.025-0.469-0.049-0.927c-0.071-0.459-0.199-0.41-0.558-0.633  c-0.354-0.219-0.444-0.104-0.792-0.182c-0.342-0.078-0.373-0.04-0.823-0.217c-0.453-0.174-0.094-0.276-0.354-0.539  c-0.256-0.264-0.498-0.318-0.811-0.469c-0.319-0.152-0.564-0.273-0.771-0.328c-0.209-0.054-0.257-0.264-0.322-0.617  c-0.062-0.351-0.302-0.365-0.516-0.525c-0.217-0.161-0.239-0.052-0.271-0.409c-0.031-0.354,0.12-0.581,0.185-0.979  c0.068-0.4,0.18-0.266,0.835-0.895c0.652-0.627,0.384-0.211,0.649-0.305c0.256-0.094,0.196-0.054,0.33-0.458  c0.131-0.405,0.416-0.251,0.797-0.499c0.385-0.247,0,0,0.385-0.247c0.385-0.245,0,0-0.068-0.388  c-0.065-0.387-0.29-0.259,0.143-0.297c0.436-0.037,0.318-0.207,0.318-0.207s0,0,0.117-0.259c0.111-0.259,0.236,0.052,0.339,0.042  c0.101-0.008,0.302-0.026,0.584-0.23c0.288-0.201,0.481-0.324,0.636-0.48c0.152-0.156,0.185-0.197,0.221-0.559  c0.037-0.359-0.158-0.307-0.213-0.551c-0.055-0.246,0.074-0.295,0.02-0.504c-0.048-0.211-0.06-0.318-0.06-0.318  s-0.015-0.176,0.065-0.432c0.077-0.257,0.162-0.051,0.356-0.174c0.19-0.123,0.299-0.062,0.376-0.213  c0.076-0.148,0.455,0.104,0.611,0.164c0.157,0.059,0.246,0.301,0.414,0.68c0.164,0.379,0.094,0.312,0.193,0.305  s0.321,0.223,0.321,0.223s0.544,0.418,0.567,0.702c0.022,0.284-0.077,0.295-0.23,0.448c-0.157,0.16-0.203,0.379-0.22,0.593  c-0.017,0.216,0.183,0.558-0.017,0.609c-0.197,0.053-0.197,0.053-0.713,0.097c-0.523,0.045-0.336,0.242-0.361,0.746  c-0.023,0.504,0.242,0.444,0.449,0.318c0.209-0.125,0.451-0.467,0.451-0.467s0.347,0.148,0.748,0.473  c0.398,0.324,0.647,0.516,0.909,0.816c0.263,0.297,0.479,0.423,1.117,0.047c0.643-0.376,0.199-0.053,0.657-0.197  c0.458-0.147,0.105-0.332-0.042-0.498c-0.148-0.168-0.388-0.182-0.735-0.295c-0.345-0.113-0.321-0.225-0.017-0.213  c0.305,0.009,0.672-0.023,1.096-0.202c0.422-0.181,0.135-0.405,0.135-0.405s-0.553-0.166-1.131-0.582  c-0.572-0.415-0.365-0.363-0.45-0.57s0.425-0.145,0.558-0.154c0.135-0.012,0.322,0.225,0.684,0.515  c0.361,0.289,0.193-0.09,0.188-0.196c-0.012-0.105-0.196-0.698-0.364-1.076c-0.166-0.381-0.615-0.129-0.792-0.22  s-0.899-0.674-0.978-0.774c-0.073-0.1-0.221-1.411-0.473-1.569c-0.247-0.158-0.555-0.202-0.771-0.362  c-0.213-0.16-0.495-0.315-0.715-0.477c-0.213-0.16-0.473-0.423-0.668-0.549c-0.194-0.127-0.41-0.252-0.633-0.377  c-0.223-0.123-0.74-0.115-1.143-0.08c-0.4,0.033-0.899,0.506-1.15,0.705c-0.253,0.201,0,0-0.293,0.92  c-0.291,0.918,0.125,0.275,0.223,0.624c0.097,0.351,0,0,0.082,0.174c0.082,0.171,0.359,0.253,0.556,0.595  c0.199,0.34,0.057,0.246,0.048,0.566c-0.006,0.325-0.1,0.404-0.273,0.741c-0.174,0.336-0.113,0.259-0.369,0.388  c-0.26,0.131-0.174-0.021-0.174-0.021s0.002-0.786-0.041-0.89c-0.042-0.104-0.031-0.357-0.158-0.275  c-0.126,0.083-0.283,0.24-0.399,0.071c-0.114-0.168-0.089-0.241-0.089-0.241s-0.353-0.186-0.426-0.285  c-0.074-0.103,0.039-0.326,0.039-0.326s0.174-0.338,0.166-0.443c-0.012-0.107-0.035-0.355-0.035-0.355l-0.102-0.455l-0.041-0.462  l0.282-0.239l0.484-0.255l0.06-0.472l0.174-0.336c0,0,0.84-0.037,0.975-0.048c0.133-0.012,0.904-0.042,1.035-0.054  c0.137-0.011,0.168-0.441,0.168-0.441s-0.367-0.326-0.631-0.305c-0.268,0.025-0.504,0.045-0.838,0.073c-0.336,0.026,0,0-0.256-0.23  c-0.254-0.228,0.523-0.187,0.68-0.308c0.163-0.119,0.746,0.043,0.746,0.043s0.309,0.045,0.562-0.012  c0.114-0.025,0.153-0.018,0.162,0.003c0.028-0.12,0.111-0.479,0.101-0.599c-0.012-0.139,0.188-0.193,0.256-0.344  c0.074-0.148-0.049-0.604-0.049-0.604s0.108-0.473,0.134-0.582c0.026-0.11,0.311-0.314,0.405-0.394  c0.094-0.079,0.272-0.739,0.289-0.919c0.021-0.179-0.039-0.461-0.057-0.674c-0.017-0.213-0.324-0.26-0.566-0.311  c-0.239-0.049-0.354,0.176-0.617,0.232c-0.266,0.058-0.67,0.451-0.863,0.573c-0.188,0.125-0.467,0.398-1.088,1.024  c-0.621,0.625-0.061,0.898-0.065,1.223c-0.006,0.321,0.205,0.41,0.308,0.418c0.1,0.012,0.131,0.367,0.131,0.367  s-0.666,0.486-0.743,0.385c-0.074-0.102-0.425-0.25-0.562-0.275c-0.137-0.023-0.043,0.293-0.062,0.473  c-0.018,0.179,0.498,0.312,0.498,0.312s0.055,0.211,0.077,0.496c0.022,0.284-0.046,0.256-0.245,0.271  c-0.201,0.016-0.296,0.096-0.518,0.258c-0.223,0.162-0.18,0.265-0.328,0.492c-0.15,0.229-0.205,0.376-0.41,0.715  c-0.207,0.339,0.271,0.407-0.068,0.793c-0.338,0.388-0.299,0.42-0.541,0.762c-0.238,0.342,0,0,0.043,0.498  c0.04,0.496,0.303,0.402,0.359,0.646c0.054,0.246,0,0-0.086,0.188c-0.086,0.186-0.113,0.26-0.299,0.455s0,0-0.441,0.323  C42.171,15.333,42.314,15,42.314,15s-0.031-0.355-0.242-0.445c-0.208-0.09,0,0-0.293,0.098c-0.297,0.098-0.199,0.052-0.373-0.006  c-0.171-0.055-0.447-0.104-0.764-0.256c-0.316-0.152-0.205-0.054-0.416-0.144c-0.211-0.089-0.25-0.157-0.436-0.392  c-0.19-0.233-0.381,0.285-0.475,0.363c-0.095,0.078-0.812,0.354-0.812,0.354s0,0-0.014-0.142c-0.012-0.143-0.245-0.122-0.245-0.122  s-0.294,0.099-0.63,0.126c-0.332,0.027-0.332,0.063-0.438,0.001s-0.129-0.311-0.129-0.311s0.282-0.239,0.276-0.346  c-0.011-0.106-0.057-0.245-0.057-0.245l-0.263-0.301c0,0-0.4-0.358-0.461-0.458c-0.062-0.104-0.33-0.152-0.33-0.152  s-0.103-0.421-0.134-0.773c-0.032-0.356-0.358-0.259-0.358-0.259s-0.266,0.025-0.502,0.045c-0.233,0.021-0.361,0.137-0.523,0.188  c-0.162,0.048-0.367,0.031-0.869,0.074c-0.501,0.042,0.103,0.419-0.672,0.414s0,0-0.008-0.106c-0.012-0.107,0.039-0.324-0.047-0.533  c-0.085-0.207-0.173-0.453-0.29-0.621c-0.114-0.168-0.171-0.412-0.259-0.656c-0.086-0.242-0.055-0.246-0.208-0.482  c-0.157-0.236-0.41-0.464-0.499-0.672c-0.082-0.207-0.15-0.202-0.347-0.149s-0.202-0.019-0.364,0.067  c-0.16,0.085-0.177-0.092-0.635,0.055c-0.462,0.145-0.767,0.494-0.943,0.4c-0.176-0.091-0.271-0.012-0.47,0.043  c-0.196,0.051,0,0-0.367,0.424c-0.367,0.425-0.18,0.264-0.425,0.572c-0.242,0.307-0.139,0.334-0.225,0.482  c-0.088,0.152-0.156,0.158-0.281,0.241c-0.131,0.083-0.157-0.237-0.157-0.237s0,0-0.042-0.104c-0.043-0.104-0.271-0.011-0.402,0.034  c-0.131,0.047-0.254,0.201-0.447,0.289s-0.222,0.162-0.41,0.32c-0.188,0.16,0.193,0.701,0.114,0.957s0,0-0.23,0.055  c-0.228,0.057-0.259,0.131-0.652,0.27c-0.39,0.143-0.302-0.008-0.398,0.035c-0.1,0.045-0.385,0.21-0.673,0.415  c-0.287,0.205-0.193,0.089-0.449,0.217c-0.262,0.131-0.282,0.31-0.615,0.733c-0.336,0.421-0.248,1.058-0.354,1.388  c-0.105,0.332,0.031,0.356-0.006,0.718c-0.037,0.359,0,0-0.189,0.123c-0.047,0.031-0.072,0.043-0.084,0.053  c0,0-0.002,0.004-0.005,0.004c-0.006,0.002-0.015,0.008-0.04,0.025c-0.128,0.082-0.182,0.229-0.316,0.24  c-0.133,0.014-0.449,0.256-0.449,0.256s-0.288,0.201-0.487,0.219c-0.202,0.018-0.151,0.193-0.384,0.248  c-0.231,0.055-0.297,0.061-0.499,0.078c-0.199,0.018,0.031,0.354,0.031,0.354s0.709,0.011,0.974-0.046  c0.266-0.06,0.359-0.105,0.556-0.19c0.196-0.09,0.599-0.122,0.755-0.245c0.159-0.119,0.538-0.404,0.538-0.404  s0.493-0.148,0.624-0.197c0.127-0.047,0.179-0.264,0.179-0.264l0.117-0.188c0,0,0.8-0.498,0.899-0.507  c0.1-0.008-0.117,0.191-0.279,0.285c-0.159,0.097-0.128,0.464-0.147,0.609c-0.021,0.145,0.566-0.049,0.666-0.057  c0.103-0.01,0.388-0.211,0.388-0.211s0.387-0.211,0.401-0.428s0.22,0.982,0.22,0.982s0.195,0.697,0.176,0.879  c-0.02,0.181,0.351,0.543,0.436,0.748c0.083,0.207,0.211,0.521,0.191,0.664c-0.023,0.146-0.04,0.326-0.125,0.477  c-0.092,0.151-0.021,1.003-0.141,1.156c-0.122,0.154,0.031,0.354-0.033,0.789c-0.066,0.436,0.147,0.523,0.147,0.523l-0.057,0.542  c0,0-0.116,0.618-0.199,0.84c-0.08,0.221-0.126,0.476-0.126,0.476s0.162,0.701-0.057,0.938c-0.213,0.23,0,0-0.091,0.111  c-0.091,0.115-0.097,0.438-0.143,0.692c-0.042,0.255,0.367,0.753,0.416,0.93c0.051,0.175,0.065,0.354,0.042,0.499  c-0.02,0.143,0.183,0.52,0.1,0.777c-0.079,0.256-0.27,1.525-0.41,1.896c-0.133,0.367-0.458,0.931-0.66,1.307  c-0.205,0.373-0.223,0.555-0.535,1.262c-0.308,0.705-0.242,0.736-0.242,0.736s0.225,1.41,0.205,1.982  c-0.018,0.576,0.131,1.886,0.199,2.311c0.071,0.422,0.162,0.342,0.447,0.498c0.281,0.154,0.25,0.156,0.581,0.486  c0.33,0.328,0.498,2.281,0.593,2.632c0.1,0.349,0.552,0.524,0.552,0.524s0.054,0.246,0.037,0.427  c-0.021,0.179,0.042,0.495-0.074,0.649c-0.116,0.153,0.046,0.211,0.046,0.211s-0.051,0.184,0.028,0.318  c0.077,0.137,0.028,0.32,0.028,0.32s0.354,0.221,0.564,0.309c0.207,0.09,0.387,0.183,0.361,0.291  c-0.023,0.109,0.145,0.917,0.202,1.199c0.06,0.281,0.159,0.273,0.171,0.416c0.012,0.141,0.43,0.678,0.436,0.785  c0.012,0.105,0.328,0.258,0.328,0.258l0.168-0.016c0,0,0.025-0.467,0.017-0.572c-0.009-0.108-0.028-0.322-0.028-0.322  s-0.08-0.17-0.26-0.299c-0.18-0.127-0.281-0.547-0.281-0.547s-0.043-0.495-0.12-0.598c-0.077-0.1-0.31-0.869-0.31-0.869  l-0.151-0.595c0,0-0.22-0.588-0.263-0.692c-0.042-0.102-0.054-0.244-0.133-0.381c-0.078-0.135-0.078-0.529-0.078-0.529l-0.353-0.938  c0,0,0.458-0.182,0.741-0.062c0.284,0.118,0.369,0.826,0.142,1.275c-0.233,0.45,1.563,2.156,1.563,2.156s0.065,0.386,0.055,0.638  c-0.01,0.251,0.361,0.29,0.384,0.541c0.021,0.247,1.324,2.102,1.538,2.622c0.211,0.516,0.057,1.065,0.156,1.843  c0.1,0.781,0.877,1.179,0.877,1.179l0.852,0.535l0.691,0.191c0,0,2.672,1.275,3.72,1.363c1.054,0.09,1.452-0.373,1.942-0.164  c0.486,0.207,1.332,1.027,1.811,1.488c0.479,0.459,0.419,0.143,0.697,0.299c0.285,0.154,0.373,0.004,0.992,0.129  c0.615,0.125,1.324,1.318,1.347,1.604c0.025,0.285,0.247,0.516,0.519,0.92c0.27,0.406,0.4-0.035,0.769-0.066  c0.37-0.031,0.683,0.908,0.846,0.861c0.168-0.053,0.703-0.098,0.703-0.098s0.599,0.305,0.889,0.566l0.398-0.463l0.437-0.432  l0.387-0.213c0,0,0.623,0.199,0.664,0.305c0.042,0.104,0.256,0.621,0.256,0.621l0.348,0.148c0,0,0.236,2.34,0.062,2.426  c-0.172,0.088-0.135,0.262-0.367,0.318c-0.229,0.055-0.655,0.592-0.875,0.789c-0.217,0.199-0.307,1.133-0.522,1.764  c-0.216,0.623-0.116,1.402-0.104,1.512c0.005,0.105,0.299,0.363,0.321,0.648c0.025,0.285,0,0-0.131,0.049  c-0.128,0.045-0.285,0.596-0.401,0.783c-0.12,0.191,0.068,0.816,0.089,1.031c0.014,0.213,0.307,0.475,0.618,0.555  c0.311,0.08,1.715,0.746,1.939,1.018c0.225,0.264,0.654,0.941,0.837,1.141s0.19,0.629,0.091,0.852  c-0.096,0.223,0.346,0.256,0.471,0.533c0.122,0.275,0.285,0.225,0.367,0.395c0.082,0.172,0.373,0.4,0.563,0.67  c0.194,0.271,1.06,0.553,1.495,0.551c0.438,0,1.737,0.209,1.908,0.623c0.168,0.416,0.097,6.68-0.26,7.246  c-0.355,0.57-0.264,3.957-1.344,7.818c-0.312,1.113-0.433,1.99-0.467,2.656l-0.434,0.354c0,0,0.172,2.283,1.188,2.619  c1.02,0.334,1.02,0.334,1.02,0.334l1.174,0.447l0.401-0.223l-1.318-1.703c0,0-0.342-0.729-0.342-0.666c0,0.064-0.519,0.396,0-0.062  c0.521-0.461,0.216-0.117,0.521-0.461c0.303-0.336,1.382-3.531,1.388-3.555c0.222-0.602,0.396-1.086,0.413-1.164  c0.051-0.221-0.02-0.248-0.02-0.248s0.1-0.404,0.121-0.551c0.021-0.141,0.226-0.088,0.391-0.174  c0.156-0.084,0.351-0.207,0.404-0.357c0.055-0.148,0.125-0.514,0.108-0.725c-0.021-0.209,0.239-0.342,0.431-0.467  c0.193-0.121,0.449,0.143,0.916,0.066c0.461-0.074,0.533-1.225,0.59-1.336c0.06-0.113,0.592-0.193,0.723-0.242  s0.689-0.201,0.954-0.26c0.269-0.059,0.351-0.244,0.707-0.42c0.355-0.172,0.253-0.162,0.688-0.631  c0.431-0.467-1.241-1.109-0.871-1.5c0.37-0.387,0.08,0.174,0.507,0.424c0.425,0.248,0.273,0.049,0.609,0.021  c0.333-0.029,0.364-0.068,0.755-0.209c0.396-0.143,0.401-0.033,0.721-0.275c0.315-0.242,0,0,0.433-0.434  c0.436-0.43,0.188-0.193,0.55-0.654c0.364-0.459,0.275-0.346,0.623-0.982c0.351-0.639,0.262-0.521,1.523-1.492  c1.265-0.963,0.154-0.582,0.04-1.145c-0.116-0.562,0.065-0.4,0.257-0.918c0.19-0.516,3.3-1.961,4.163-2.5  c0.865-0.541,0,0,0.436-0.859c0.43-0.861,0.715-1.066,0.794-1.318c0.08-0.26,0.41-0.752,0.476-1.15  c0.065-0.4,0.114-0.26,0.058-0.508c-0.055-0.244-0.388-1.789-0.083-2.566s0.783-1.066,1.156-1.816  c0.376-0.746,0.388-0.604,0.689-1.025c0.302-0.416,0.427-0.895,0.458-1.326C79.493,61.786,79.394,61.401,79.104,61.14z   M43.47,29.743c0.137-0.011,0.51-0.364,1.014-0.779c0,0,0,0,0.208,0.102c0.214,0.104,0,0-0.022,0.111  c-0.023,0.108,0.176,0.092,0.367,0.361c0.193,0.271,1.113,0.799,1.062,0.982c-0.052,0.183,0,0-1.123,0.273  c-1.121,0.277,0,0-0.336-0.006c-0.338-0.006-0.358-0.256-0.566-0.31s-0.188-0.233-0.592-0.236c-0.404,0,0,0-0.365,0.068  c-0.367,0.067-0.162,0.085-0.47,0.04c-0.305-0.046-0.315-0.152-0.315-0.152S43.339,29.754,43.47,29.743z"/><text x="0" y="115" fill="#000000" font-size="5px" font-weight="bold" font-family="'Helvetica Neue', Helvetica, Arial-Unicode, Arial, Sans-serif">Created by Randomhero</text><text x="0" y="120" fill="#000000" font-size="5px" font-weight="bold" font-family="'Helvetica Neue', Helvetica, Arial-Unicode, Arial, Sans-serif">from the Noun Project</text></svg>