<svg xmlns="http://www.w3.org/2000/svg" xmlns:xlink="http://www.w3.org/1999/xlink" version="1.1" x="0px" y="0px" viewBox="0 0 100 125" enable-background="new 0 0 100 100" xml:space="preserve"><g><g><path d="M33.041,52.58l-2.195,5.488c0,0-4.721,6.914-4.61,6.476c0.109-0.438-1.647,2.964-1.647,2.964l1.098,3.514l-3.293-2.086    L20.308,57.74l-3.622-5.6l0.769-5.269l-5.049-3.074l-3.624-1.426L5.27,35.566c0,0,1.098-4.83,1.428-4.94    c0.328-0.109-0.221-3.951-0.221-3.951L0.33,27.771L0,26.125c0,0,7.135-4.39,7.025-4.061c-0.109,0.329,6.916,0.987,6.916,0.987    l3.733-1.646l6.585-0.877l2.854-1.537h16.136l-3.182,4.391l-5.489,1.646l-1.208,1.647l-1.427-0.329l0.329-4.171l-2.524-1.647    l-3.074,1.208l2.525,1.646l-1.098,1.646h-1.865l-1.977-0.769l-5.049,2.526l1.976,1.535l2.745-1.975h3.512l1.317,3.183    l-4.391,2.854l-4.172,2.744l-2.305,2.416l-0.109,2.195l-3.732-1.647l-2.634,1.318l0.877,2.964l2.417-0.988l2.963,4.61l3.182-1.427    l6.806,3.623L33.041,52.58z"/><polygon points="16.356,40.943 21.405,41.713 19.758,42.81   "/><polygon points="39.627,25.027 41.823,25.247 41.383,24.04   "/><polygon points="49.067,19.43 52.471,19.43 50.055,21.076   "/><path d="M15.038,81.01H81.01l5.488-4.392c0,0-6.477-2.084-6.805-2.084c-0.33,0-25.906,1.426-25.906,1.426L37.98,78.924    l-6.366-0.986l-1.756-4.5l-3.183,3.84l-15.478,0.88L15.038,81.01z"/><polygon points="59.166,59.495 61.252,59.386 61.58,54.557   "/><path d="M83.098,58.508c0,0-0.771,5.051-0.658,4.721c0.108-0.33,6.035-0.549,6.035-0.549l2.963,2.086l5.27-4.283    c0,0-2.963-6.584-3.072-6.256c-0.109,0.33-4.392,0.549-4.392,0.549L83.098,58.508z"/><polygon points="96.27,67.729 97.586,68.496 100,65.423   "/><polygon points="45.707,29.124 44.052,30.054 42.59,29.455 43.167,28.149 43.395,26.601 44.42,26.308   "/><polygon points="89.527,31.996 89.729,35.462 88.044,37.046 91.313,36.154   "/><polygon points="85.964,42.195 87.45,47.346 88.439,46.751   "/><polygon points="85.073,46.851 85.668,49.723 84.184,51.107 82.498,50.019   "/><polygon points="78.043,47.643 81.409,50.713 85.865,53.288 81.605,52.199 78.141,48.832   "/><path d="M89.926,51.309c0.297-0.101,3.367-0.496,3.367-0.496l2.87,1.584l-3.067,0.693L89.926,51.309z"/><polygon points="85.568,51.309 87.646,51.9 86.855,48.931   "/><path d="M95.279,24.589c0.438,0-14.818-2.415-14.818-2.415l-11.195-2.086l-14.16,3.073l-3.733-0.877l-4.28,3.952l0.768,1.756    l-3.951,3.402l-2.085,1.646l1.207,2.634l-4.281,5.269l2.525,6.806c0,0,6.147,0.549,6.476,0.769c0.33,0.22,0.878,7.464,0.768,7.792    c-0.109,0.33,2.306,7.025,2.306,7.025l3.623-0.877l3.403-5.6l0.219-4.61l4.17-6.366l-2.743-0.769l4.392-2.744l0.769-2.305    l3.95,0.987l3.074,6.147l0.658-3.513l3.403-2.854l3.293,6.367l0.769,0.549l1.646-1.647l0.328-2.744l3.295-3.403l-0.879-4.5    l3.953-4.282l-3.295-2.524l0.77-2.086l3.302,0.333l2.101,2.046l1.129,0.499l-0.223-2.715    C91.93,26.727,94.994,24.589,95.279,24.589z M49.951,26.967l0.365-1.458l1.825-1.095l0.437,3.064l-4.01,0.948L49.951,26.967z     M55.73,37.493l-4.082-0.68l-3.628-0.476l-0.599-1.174l-3.513,0.293l3.024-2.657l2.609,1.852v0.731l1.245-1.024l-0.452-1.538    l1.904,2.154l4.332,0.25L55.73,37.493z M57.588,33.605l-3.633-0.295l0.829-2.208l3.385,1.631L57.588,33.605z"/></g></g></svg>