<svg xmlns="http://www.w3.org/2000/svg" width="1440" height="900"><path d="M770,500L669,399L669,500Z" fill="%23263630" stroke="%23263630" stroke-width="1.51"/><path d="M770,500L770,399L669,399Z" fill="%2326362f" stroke="%2326362f" stroke-width="1.51"/><path d="M669,399L568,399L669,500Z" fill="%23273630" stroke="%23273630" stroke-width="1.51"/><path d="M568,399L568,500L669,500Z" fill="%23273831" stroke="%23273831" stroke-width="1.51"/><path d="M770,399L669,298L669,399Z" fill="%23263631" stroke="%23263631" stroke-width="1.51"/><path d="M669,399L669,298L568,399Z" fill="%23283732" stroke="%23283732" stroke-width="1.51"/><path d="M669,500L669,601L770,500Z" fill="%23283b34" stroke="%23283b34" stroke-width="1.51"/><path d="M568,500L669,601L669,500Z" fill="%232a3c35" stroke="%232a3c35" stroke-width="1.51"/><path d="M770,399L770,298L669,298Z" fill="%23283832" stroke="%23283832" stroke-width="1.51"/><path d="M669,601L770,601L770,500Z" fill="%232a3f38" stroke="%232a3f38" stroke-width="1.51"/><path d="M770,500L871,399L770,399Z" fill="%23283a32" stroke="%23283a32" stroke-width="1.51"/><path d="M770,399L871,399L770,298Z" fill="%23293b34" stroke="%23293b34" stroke-width="1.51"/><path d="M871,500L871,399L770,500Z" fill="%23293c35" stroke="%23293c35" stroke-width="1.51"/><path d="M770,601L871,500L770,500Z" fill="%232b4038" stroke="%232b4038" stroke-width="1.51"/><path d="M669,298L568,298L568,399Z" fill="%23293934" stroke="%23293934" stroke-width="1.51"/><path d="M568,500L568,601L669,601Z" fill="%232c4039" stroke="%232c4039" stroke-width="1.51"/><path d="M871,399L871,298L770,298Z" fill="%232b3d37" stroke="%232b3d37" stroke-width="1.51"/><path d="M770,601L871,601L871,500Z" fill="%232e443d" stroke="%232e443d" stroke-width="1.51"/><path d="M568,399L468,399L568,500Z" fill="%23283832" stroke="%23283832" stroke-width="1.51"/><path d="M568,500L468,500L568,601Z" fill="%232b3e38" stroke="%232b3e38" stroke-width="1.51"/><path d="M568,298L468,399L568,399Z" fill="%23293934" stroke="%23293934" stroke-width="1.51"/><path d="M468,399L468,500L568,500Z" fill="%23283933" stroke="%23283933" stroke-width="1.51"/><path d="M669,601L669,701L770,601Z" fill="%232d443c" stroke="%232d443c" stroke-width="1.51"/><path d="M770,601L770,701L871,601Z" fill="%232f4840" stroke="%232f4840" stroke-width="1.51"/><path d="M568,601L669,701L669,601Z" fill="%232e453d" stroke="%232e453d" stroke-width="1.51"/><path d="M669,701L770,701L770,601Z" fill="%232f473f" stroke="%232f473f" stroke-width="1.51"/><path d="M871,399L971,399L871,298Z" fill="%232c4039" stroke="%232c4039" stroke-width="1.51"/><path d="M871,500L971,399L871,399Z" fill="%232b3f37" stroke="%232b3f37" stroke-width="1.51"/><path d="M971,500L971,399L871,500Z" fill="%232c423a" stroke="%232c423a" stroke-width="1.51"/><path d="M871,601L971,500L871,500Z" fill="%232e453d" stroke="%232e453d" stroke-width="1.51"/><path d="M669,298L669,197L568,298Z" fill="%23293935" stroke="%23293935" stroke-width="1.51"/><path d="M770,298L669,197L669,298Z" fill="%23283834" stroke="%23283834" stroke-width="1.51"/><path d="M770,197L669,197L770,298Z" fill="%23293a36" stroke="%23293a36" stroke-width="1.51"/><path d="M871,298L770,197L770,298Z" fill="%232b3d38" stroke="%232b3d38" stroke-width="1.51"/><path d="M568,298L468,298L468,399Z" fill="%232a3a36" stroke="%232a3a36" stroke-width="1.51"/><path d="M568,197L468,298L568,298Z" fill="%232a3b38" stroke="%232a3b38" stroke-width="1.51"/><path d="M568,601L568,701L669,701Z" fill="%23304841" stroke="%23304841" stroke-width="1.51"/><path d="M468,500L468,601L568,601Z" fill="%232d413b" stroke="%232d413b" stroke-width="1.51"/><path d="M468,601L568,701L568,601Z" fill="%232f4640" stroke="%232f4640" stroke-width="1.51"/><path d="M871,601L971,601L971,500Z" fill="%23304a42" stroke="%23304a42" stroke-width="1.51"/><path d="M770,701L871,701L871,601Z" fill="%23324c44" stroke="%23324c44" stroke-width="1.51"/><path d="M871,298L871,197L770,197Z" fill="%232c3f3b" stroke="%232c3f3b" stroke-width="1.51"/><path d="M971,399L971,298L871,298Z" fill="%232d433c" stroke="%232d433c" stroke-width="1.51"/><path d="M871,701L971,601L871,601Z" fill="%23334e45" stroke="%23334e45" stroke-width="1.51"/><path d="M669,197L568,197L568,298Z" fill="%232a3b37" stroke="%232a3b37" stroke-width="1.51"/><path d="M971,298L871,197L871,298Z" fill="%232e423d" stroke="%232e423d" stroke-width="1.51"/><path d="M468,601L468,701L568,701Z" fill="%23314943" stroke="%23314943" stroke-width="1.51"/><path d="M871,701L971,701L971,601Z" fill="%23355249" stroke="%23355249" stroke-width="1.51"/><path d="M468,399L367,399L468,500Z" fill="%23293934" stroke="%23293934" stroke-width="1.51"/><path d="M468,500L367,500L468,601Z" fill="%232c3f3a" stroke="%232c3f3a" stroke-width="1.51"/><path d="M468,601L367,601L468,701Z" fill="%23304842" stroke="%23304842" stroke-width="1.51"/><path d="M468,298L367,399L468,399Z" fill="%232a3a36" stroke="%232a3a36" stroke-width="1.51"/><path d="M367,298L367,399L468,298Z" fill="%232b3b38" stroke="%232b3b38" stroke-width="1.51"/><path d="M367,399L367,500L468,500Z" fill="%23293a35" stroke="%23293a35" stroke-width="1.51"/><path d="M669,197L669,97L568,197Z" fill="%232b3b38" stroke="%232b3b38" stroke-width="1.51"/><path d="M770,197L669,97L669,197Z" fill="%232a3a37" stroke="%232a3a37" stroke-width="1.51"/><path d="M770,97L669,97L770,197Z" fill="%232a3a36" stroke="%232a3a36" stroke-width="1.51"/><path d="M669,701L669,802L770,701Z" fill="%23314c44" stroke="%23314c44" stroke-width="1.51"/><path d="M770,701L770,802L871,701Z" fill="%23345148" stroke="%23345148" stroke-width="1.51"/><path d="M871,701L871,802L971,701Z" fill="%2337564d" stroke="%2337564d" stroke-width="1.51"/><path d="M568,701L669,802L669,701Z" fill="%23324d45" stroke="%23324d45" stroke-width="1.51"/><path d="M568,802L669,802L568,701Z" fill="%23345149" stroke="%23345149" stroke-width="1.51"/><path d="M871,197L770,97L770,197Z" fill="%232c3f3b" stroke="%232c3f3b" stroke-width="1.51"/><path d="M669,802L770,802L770,701Z" fill="%23335148" stroke="%23335148" stroke-width="1.51"/><path d="M971,399L1072,399L971,298Z" fill="%232f463f" stroke="%232f463f" stroke-width="1.51"/><path d="M971,298L971,197L871,197Z" fill="%232f4540" stroke="%232f4540" stroke-width="1.51"/><path d="M971,500L1072,399L971,399Z" fill="%232e453d" stroke="%232e453d" stroke-width="1.51"/><path d="M1072,500L1072,399L971,500Z" fill="%232f483f" stroke="%232f483f" stroke-width="1.51"/><path d="M1072,500L971,500L971,601Z" fill="%23314b42" stroke="%23314b42" stroke-width="1.51"/><path d="M1072,601L1072,500L971,601Z" fill="%23335047" stroke="%23335047" stroke-width="1.51"/><path d="M568,197L468,197L468,298Z" fill="%232b3c39" stroke="%232b3c39" stroke-width="1.51"/><path d="M568,97L468,197L568,197Z" fill="%232c3d3b" stroke="%232c3d3b" stroke-width="1.51"/><path d="M871,197L871,97L770,97Z" fill="%232d3f3c" stroke="%232d3f3c" stroke-width="1.51"/><path d="M1072,298L971,197L971,298Z" fill="%23314842" stroke="%23314842" stroke-width="1.51"/><path d="M468,197L367,298L468,298Z" fill="%232b3c3a" stroke="%232b3c3a" stroke-width="1.51"/><path d="M367,500L367,601L468,601Z" fill="%232e423d" stroke="%232e423d" stroke-width="1.51"/><path d="M669,97L568,97L568,197Z" fill="%232b3a38" stroke="%232b3a38" stroke-width="1.51"/><path d="M468,802L568,802L468,701Z" fill="%2335534c" stroke="%2335534c" stroke-width="1.51"/><path d="M468,701L568,802L568,701Z" fill="%23334f48" stroke="%23334f48" stroke-width="1.51"/><path d="M971,197L871,97L871,197Z" fill="%232f4440" stroke="%232f4440" stroke-width="1.51"/><path d="M770,802L871,802L871,701Z" fill="%2336564d" stroke="%2336564d" stroke-width="1.51"/><path d="M1072,399L1072,298L971,298Z" fill="%23304941" stroke="%23304941" stroke-width="1.51"/><path d="M1072,701L1072,601L971,701Z" fill="%2338584f" stroke="%2338584f" stroke-width="1.51"/><path d="M971,701L1072,601L971,601Z" fill="%2335534a" stroke="%2335534a" stroke-width="1.51"/><path d="M367,601L367,701L468,701Z" fill="%23324a45" stroke="%23324a45" stroke-width="1.51"/><path d="M568,97L468,97L468,197Z" fill="%232c3c3a" stroke="%232c3c3a" stroke-width="1.51"/><path d="M468,197L367,197L367,298Z" fill="%232c3d3b" stroke="%232c3d3b" stroke-width="1.51"/><path d="M367,701L468,802L468,701Z" fill="%2334504a" stroke="%2334504a" stroke-width="1.51"/><path d="M971,197L971,97L871,97Z" fill="%23304440" stroke="%23304440" stroke-width="1.51"/><path d="M1072,197L971,97L971,197Z" fill="%23324a45" stroke="%23324a45" stroke-width="1.51"/><path d="M871,802L971,802L971,701Z" fill="%23395c52" stroke="%23395c52" stroke-width="1.51"/><path d="M971,802L1072,701L971,701Z" fill="%233a5c52" stroke="%233a5c52" stroke-width="1.51"/><path d="M468,97L367,197L468,197Z" fill="%232d3e3d" stroke="%232d3e3d" stroke-width="1.51"/><path d="M1072,298L1072,197L971,197Z" fill="%23324b45" stroke="%23324b45" stroke-width="1.51"/><path d="M367,399L266,399L367,500Z" fill="%232a3a36" stroke="%232a3a36" stroke-width="1.51"/><path d="M367,500L266,500L367,601Z" fill="%232d413c" stroke="%232d413c" stroke-width="1.51"/><path d="M367,601L266,601L367,701Z" fill="%23324944" stroke="%23324944" stroke-width="1.51"/><path d="M367,298L266,399L367,399Z" fill="%232b3b38" stroke="%232b3b38" stroke-width="1.51"/><path d="M266,298L266,399L367,298Z" fill="%232c3d3a" stroke="%232c3d3a" stroke-width="1.51"/><path d="M266,399L266,500L367,500Z" fill="%232a3c38" stroke="%232a3c38" stroke-width="1.51"/><path d="M669,97L669,-4L568,97Z" fill="%23263331" stroke="%23263331" stroke-width="1.51"/><path d="M568,97L568,-4L468,97Z" fill="%23273533" stroke="%23273533" stroke-width="1.51"/><path d="M770,97L669,-4L669,97Z" fill="%23253230" stroke="%23253230" stroke-width="1.51"/><path d="M770,-4L669,-4L770,97Z" fill="%2323302c" stroke="%2323302c" stroke-width="1.51"/><path d="M770,-4L770,97L871,97Z" fill="%23273733" stroke="%23273733" stroke-width="1.51"/><path d="M669,802L669,903L770,802Z" fill="%2333594f" stroke="%2333594f" stroke-width="1.51"/><path d="M770,802L770,903L871,802Z" fill="%23355e53" stroke="%23355e53" stroke-width="1.51"/><path d="M871,802L871,903L971,802Z" fill="%23386358" stroke="%23386358" stroke-width="1.51"/><path d="M568,802L669,903L669,802Z" fill="%23345a50" stroke="%23345a50" stroke-width="1.51"/><path d="M568,903L669,903L568,802Z" fill="%23345f55" stroke="%23345f55" stroke-width="1.51"/><path d="M871,-4L770,-4L871,97Z" fill="%23253531" stroke="%23253531" stroke-width="1.51"/><path d="M669,903L770,903L770,802Z" fill="%23335e53" stroke="%23335e53" stroke-width="1.51"/><path d="M1072,399L1173,399L1072,298Z" fill="%23324b44" stroke="%23324b44" stroke-width="1.51"/><path d="M1072,298L1173,298L1072,197Z" fill="%23344d48" stroke="%23344d48" stroke-width="1.51"/><path d="M1072,500L1173,399L1072,399Z" fill="%23314a42" stroke="%23314a42" stroke-width="1.51"/><path d="M1173,500L1173,399L1072,500Z" fill="%23324d44" stroke="%23324d44" stroke-width="1.51"/><path d="M1173,500L1072,500L1072,601Z" fill="%23345048" stroke="%23345048" stroke-width="1.51"/><path d="M1173,601L1173,500L1072,601Z" fill="%2336554c" stroke="%2336554c" stroke-width="1.51"/><path d="M367,197L266,298L367,298Z" fill="%232c3d3c" stroke="%232c3d3c" stroke-width="1.51"/><path d="M367,701L367,802L468,802Z" fill="%2336544e" stroke="%2336544e" stroke-width="1.51"/><path d="M266,500L266,601L367,601Z" fill="%232f4440" stroke="%232f4440" stroke-width="1.51"/><path d="M468,97L367,97L367,197Z" fill="%232d3d3c" stroke="%232d3d3c" stroke-width="1.51"/><path d="M669,-4L568,-4L568,97Z" fill="%2323302e" stroke="%2323302e" stroke-width="1.51"/><path d="M468,802L568,903L568,802Z" fill="%23355b53" stroke="%23355b53" stroke-width="1.51"/><path d="M468,903L568,903L468,802Z" fill="%23356157" stroke="%23356157" stroke-width="1.51"/><path d="M971,97L871,-4L871,97Z" fill="%232a3c38" stroke="%232a3c38" stroke-width="1.51"/><path d="M971,-4L871,-4L971,97Z" fill="%23283a36" stroke="%23283a36" stroke-width="1.51"/><path d="M971,802L1072,802L1072,701Z" fill="%233c6257" stroke="%233c6257" stroke-width="1.51"/><path d="M770,903L871,903L871,802Z" fill="%23366459" stroke="%23366459" stroke-width="1.51"/><path d="M1173,399L1173,298L1072,298Z" fill="%23334e47" stroke="%23334e47" stroke-width="1.51"/><path d="M1072,701L1173,601L1072,601Z" fill="%23385950" stroke="%23385950" stroke-width="1.51"/><path d="M1173,701L1173,601L1072,701Z" fill="%233b5d54" stroke="%233b5d54" stroke-width="1.51"/><path d="M468,-4L367,97L468,97Z" fill="%23273635" stroke="%23273635" stroke-width="1.51"/><path d="M367,197L266,197L266,298Z" fill="%232d3f3e" stroke="%232d3f3e" stroke-width="1.51"/><path d="M266,701L367,802L367,701Z" fill="%2336514c" stroke="%2336514c" stroke-width="1.51"/><path d="M1173,197L1072,97L1072,197Z" fill="%23354f4b" stroke="%23354f4b" stroke-width="1.51"/><path d="M1072,197L1072,97L971,97Z" fill="%23334a45" stroke="%23334a45" stroke-width="1.51"/><path d="M971,903L1072,802L971,802Z" fill="%233b695e" stroke="%233b695e" stroke-width="1.51"/><path d="M266,601L266,701L367,701Z" fill="%23334c47" stroke="%23334c47" stroke-width="1.51"/><path d="M568,-4L468,-4L468,97Z" fill="%23243230" stroke="%23243230" stroke-width="1.51"/><path d="M367,802L468,903L468,802Z" fill="%23365d55" stroke="%23365d55" stroke-width="1.51"/><path d="M1072,97L971,-4L971,97Z" fill="%232d423d" stroke="%232d423d" stroke-width="1.51"/><path d="M871,903L971,903L971,802Z" fill="%23396a5e" stroke="%23396a5e" stroke-width="1.51"/><path d="M1072,802L1173,701L1072,701Z" fill="%233d6158" stroke="%233d6158" stroke-width="1.51"/><path d="M266,97L266,197L367,97Z" fill="%232e3e3e" stroke="%232e3e3e" stroke-width="1.51"/><path d="M367,97L266,197L367,197Z" fill="%232e3f3f" stroke="%232e3f3f" stroke-width="1.51"/><path d="M1072,97L1072,-4L971,-4Z" fill="%232b403b" stroke="%232b403b" stroke-width="1.51"/><path d="M1173,298L1173,197L1072,197Z" fill="%2335504a" stroke="%2335504a" stroke-width="1.51"/><path d="M266,399L165,399L266,500Z" fill="%23293935" stroke="%23293935" stroke-width="1.51"/><path d="M266,500L165,500L266,601Z" fill="%232c3f3b" stroke="%232c3f3b" stroke-width="1.51"/><path d="M266,601L165,601L266,701Z" fill="%23314743" stroke="%23314743" stroke-width="1.51"/><path d="M266,298L165,399L266,399Z" fill="%232a3a37" stroke="%232a3a37" stroke-width="1.51"/><path d="M165,298L165,399L266,298Z" fill="%23293937" stroke="%23293937" stroke-width="1.51"/><path d="M165,399L165,500L266,500Z" fill="%23283834" stroke="%23283834" stroke-width="1.51"/><path d="M669,-4L669,-105L568,-4Z" fill="%231f2a27" stroke="%231f2a27" stroke-width="1.51"/><path d="M568,-4L568,-105L468,-4Z" fill="%23202b29" stroke="%23202b29" stroke-width="1.51"/><path d="M770,-4L669,-105L669,-4Z" fill="%231e2926" stroke="%231e2926" stroke-width="1.51"/><path d="M770,-105L669,-105L770,-4Z" fill="%231c2723" stroke="%231c2723" stroke-width="1.51"/><path d="M770,-105L770,-4L871,-4Z" fill="%23202d29" stroke="%23202d29" stroke-width="1.51"/><path d="M669,903L669,1004L770,903Z" fill="%2332675a" stroke="%2332675a" stroke-width="1.51"/><path d="M770,903L770,1004L871,903Z" fill="%23346c5e" stroke="%23346c5e" stroke-width="1.51"/><path d="M871,903L871,1004L971,903Z" fill="%23377263" stroke="%23377263" stroke-width="1.51"/><path d="M568,903L669,1004L669,903Z" fill="%2333685b" stroke="%2333685b" stroke-width="1.51"/><path d="M568,1004L669,1004L568,903Z" fill="%23336e60" stroke="%23336e60" stroke-width="1.51"/><path d="M871,-105L770,-105L871,-4Z" fill="%231f2b28" stroke="%231f2b28" stroke-width="1.51"/><path d="M669,1004L770,1004L770,903Z" fill="%23326d5f" stroke="%23326d5f" stroke-width="1.51"/><path d="M1173,399L1274,399L1173,298Z" fill="%2334524a" stroke="%2334524a" stroke-width="1.51"/><path d="M1173,298L1274,298L1173,197Z" fill="%2336544e" stroke="%2336544e" stroke-width="1.51"/><path d="M1173,500L1274,399L1173,399Z" fill="%23335148" stroke="%23335148" stroke-width="1.51"/><path d="M1274,500L1274,399L1173,500Z" fill="%2333554b" stroke="%2333554b" stroke-width="1.51"/><path d="M1274,500L1173,500L1173,601Z" fill="%2336574e" stroke="%2336574e" stroke-width="1.51"/><path d="M1274,601L1274,500L1173,601Z" fill="%23385e53" stroke="%23385e53" stroke-width="1.51"/><path d="M266,197L165,298L266,298Z" fill="%232c3c3b" stroke="%232c3c3b" stroke-width="1.51"/><path d="M367,-4L266,97L367,97Z" fill="%23293737" stroke="%23293737" stroke-width="1.51"/><path d="M367,-4L367,97L468,-4Z" fill="%23253332" stroke="%23253332" stroke-width="1.51"/><path d="M367,802L367,903L468,903Z" fill="%23366259" stroke="%23366259" stroke-width="1.51"/><path d="M468,903L568,1004L568,903Z" fill="%23346a5e" stroke="%23346a5e" stroke-width="1.51"/><path d="M266,701L266,802L367,802Z" fill="%23375650" stroke="%23375650" stroke-width="1.51"/><path d="M165,701L266,802L266,701Z" fill="%2335504b" stroke="%2335504b" stroke-width="1.51"/><path d="M468,-105L367,-4L468,-4Z" fill="%23212d2b" stroke="%23212d2b" stroke-width="1.51"/><path d="M266,802L367,903L367,802Z" fill="%23375e57" stroke="%23375e57" stroke-width="1.51"/><path d="M971,-4L871,-105L871,-4Z" fill="%2323322e" stroke="%2323322e" stroke-width="1.51"/><path d="M1173,97L1072,-4L1072,97Z" fill="%23304743" stroke="%23304743" stroke-width="1.51"/><path d="M1072,802L1173,802L1173,701Z" fill="%233f675d" stroke="%233f675d" stroke-width="1.51"/><path d="M1173,701L1274,601L1173,601Z" fill="%233b6056" stroke="%233b6056" stroke-width="1.51"/><path d="M971,903L1072,903L1072,802Z" fill="%233c7063" stroke="%233c7063" stroke-width="1.51"/><path d="M971,1004L1072,903L971,903Z" fill="%233a7869" stroke="%233a7869" stroke-width="1.51"/><path d="M1173,197L1173,97L1072,97Z" fill="%2336504b" stroke="%2336504b" stroke-width="1.51"/><path d="M1274,197L1173,97L1173,197Z" fill="%23375651" stroke="%23375651" stroke-width="1.51"/><path d="M1072,903L1173,802L1072,802Z" fill="%233e6f63" stroke="%233e6f63" stroke-width="1.51"/><path d="M165,197L165,298L266,197Z" fill="%232b3b3a" stroke="%232b3b3a" stroke-width="1.51"/><path d="M165,500L165,601L266,601Z" fill="%232c403c" stroke="%232c403c" stroke-width="1.51"/><path d="M669,-105L568,-105L568,-4Z" fill="%231d2725" stroke="%231d2725" stroke-width="1.51"/><path d="M468,1004L568,1004L468,903Z" fill="%23346f63" stroke="%23346f63" stroke-width="1.51"/><path d="M971,-105L871,-105L971,-4Z" fill="%2322302d" stroke="%2322302d" stroke-width="1.51"/><path d="M770,1004L871,1004L871,903Z" fill="%23357364" stroke="%23357364" stroke-width="1.51"/><path d="M1274,399L1274,298L1173,298Z" fill="%2335564d" stroke="%2335564d" stroke-width="1.51"/><path d="M1274,701L1274,601L1173,701Z" fill="%233c665b" stroke="%233c665b" stroke-width="1.51"/><path d="M165,601L165,701L266,701Z" fill="%23314843" stroke="%23314843" stroke-width="1.51"/><path d="M568,-105L468,-105L468,-4Z" fill="%231e2827" stroke="%231e2827" stroke-width="1.51"/><path d="M367,903L468,1004L468,903Z" fill="%23356c60" stroke="%23356c60" stroke-width="1.51"/><path d="M1072,-4L971,-105L971,-4Z" fill="%23263733" stroke="%23263733" stroke-width="1.51"/><path d="M871,1004L971,1004L971,903Z" fill="%2337796a" stroke="%2337796a" stroke-width="1.51"/><path d="M1173,802L1274,701L1173,701Z" fill="%233f685e" stroke="%233f685e" stroke-width="1.51"/><path d="M266,97L165,197L266,197Z" fill="%232d3e3e" stroke="%232d3e3e" stroke-width="1.51"/><path d="M165,97L165,197L266,97Z" fill="%232b3a3a" stroke="%232b3a3a" stroke-width="1.51"/><path d="M266,-4L266,97L367,-4Z" fill="%23263434" stroke="%23263434" stroke-width="1.51"/><path d="M1173,97L1173,-4L1072,-4Z" fill="%232e4540" stroke="%232e4540" stroke-width="1.51"/><path d="M1072,-4L1072,-105L971,-105Z" fill="%23253631" stroke="%23253631" stroke-width="1.51"/><path d="M1274,298L1274,197L1173,197Z" fill="%23365851" stroke="%23365851" stroke-width="1.51"/><path d="M367,-105L266,-4L367,-4Z" fill="%23222e2d" stroke="%23222e2d" stroke-width="1.51"/><path d="M165,802L266,903L266,802Z" fill="%23365d56" stroke="%23365d56" stroke-width="1.51"/><path d="M266,802L266,903L367,903Z" fill="%2337635c" stroke="%2337635c" stroke-width="1.51"/><path d="M367,903L367,1004L468,1004Z" fill="%23357065" stroke="%23357065" stroke-width="1.51"/><path d="M1274,97L1173,-4L1173,97Z" fill="%23324e48" stroke="%23324e48" stroke-width="1.51"/><path d="M1072,1004L1173,903L1072,903Z" fill="%233d7e6f" stroke="%233d7e6f" stroke-width="1.51"/><path d="M1072,903L1173,903L1173,802Z" fill="%233f7669" stroke="%233f7669" stroke-width="1.51"/><path d="M1173,802L1274,802L1274,701Z" fill="%23407064" stroke="%23407064" stroke-width="1.51"/><path d="M266,-4L165,97L266,97Z" fill="%23283636" stroke="%23283636" stroke-width="1.51"/><path d="M165,701L165,802L266,802Z" fill="%2335514c" stroke="%2335514c" stroke-width="1.51"/><path d="M468,-105L367,-105L367,-4Z" fill="%231f2928" stroke="%231f2928" stroke-width="1.51"/><path d="M266,903L367,1004L367,903Z" fill="%23376d62" stroke="%23376d62" stroke-width="1.51"/><path d="M1173,-4L1072,-105L1072,-4Z" fill="%23293d38" stroke="%23293d38" stroke-width="1.51"/><path d="M971,1004L1072,1004L1072,903Z" fill="%233a7f6f" stroke="%233a7f6f" stroke-width="1.51"/><path d="M1274,197L1274,97L1173,97Z" fill="%23375852" stroke="%23375852" stroke-width="1.51"/><path d="M1173,903L1274,802L1173,802Z" fill="%23407669" stroke="%23407669" stroke-width="1.51"/><path d="M165,298L64,399L165,399Z" fill="%23263331" stroke="%23263331" stroke-width="1.51"/><path d="M165,399L64,399L165,500Z" fill="%2325322f" stroke="%2325322f" stroke-width="1.51"/><path d="M165,500L64,500L165,601Z" fill="%23283834" stroke="%23283834" stroke-width="1.51"/><path d="M165,601L64,601L165,701Z" fill="%232c413c" stroke="%232c413c" stroke-width="1.51"/><path d="M165,701L64,701L165,802Z" fill="%23304944" stroke="%23304944" stroke-width="1.51"/><path d="M64,298L64,399L165,298Z" fill="%2324322f" stroke="%2324322f" stroke-width="1.51"/><path d="M64,298L165,298L165,197Z" fill="%23273534" stroke="%23273534" stroke-width="1.51"/><path d="M64,399L64,500L165,500Z" fill="%2323312d" stroke="%2323312d" stroke-width="1.51"/><path d="M568,1004L669,1105L669,1004Z" fill="%23307767" stroke="%23307767" stroke-width="1.51"/><path d="M669,1004L669,1105L770,1004Z" fill="%232f7666" stroke="%232f7666" stroke-width="1.51"/><path d="M770,1004L770,1105L871,1004Z" fill="%23317b6a" stroke="%23317b6a" stroke-width="1.51"/><path d="M871,1004L871,1105L971,1004Z" fill="%23348170" stroke="%23348170" stroke-width="1.51"/><path d="M971,1004L971,1105L1072,1004Z" fill="%23378776" stroke="%23378776" stroke-width="1.51"/><path d="M568,1105L669,1105L568,1004Z" fill="%23307a6a" stroke="%23307a6a" stroke-width="1.51"/><path d="M568,1105L568,1004L468,1004Z" fill="%2331796a" stroke="%2331796a" stroke-width="1.51"/><path d="M669,1105L770,1105L770,1004Z" fill="%232f7968" stroke="%232f7968" stroke-width="1.51"/><path d="M1274,298L1375,298L1274,197Z" fill="%23365d55" stroke="%23365d55" stroke-width="1.51"/><path d="M1274,197L1375,197L1274,97Z" fill="%23376058" stroke="%23376058" stroke-width="1.51"/><path d="M1274,399L1375,399L1274,298Z" fill="%23345b51" stroke="%23345b51" stroke-width="1.51"/><path d="M1274,500L1375,399L1274,399Z" fill="%23335a4f" stroke="%23335a4f" stroke-width="1.51"/><path d="M1375,500L1375,399L1274,500Z" fill="%23335f52" stroke="%23335f52" stroke-width="1.51"/><path d="M1375,500L1274,500L1274,601Z" fill="%23366155" stroke="%23366155" stroke-width="1.51"/><path d="M1375,500L1274,601L1375,601Z" fill="%2338675b" stroke="%2338675b" stroke-width="1.51"/><path d="M1375,601L1274,601L1274,701Z" fill="%233b6a5e" stroke="%233b6a5e" stroke-width="1.51"/><path d="M64,197L64,298L165,197Z" fill="%23263433" stroke="%23263433" stroke-width="1.51"/><path d="M64,500L64,601L165,601Z" fill="%23273935" stroke="%23273935" stroke-width="1.51"/><path d="M468,1105L568,1105L468,1004Z" fill="%23317c6c" stroke="%23317c6c" stroke-width="1.51"/><path d="M770,1105L871,1105L871,1004Z" fill="%23327f6e" stroke="%23327f6e" stroke-width="1.51"/><path d="M1375,399L1375,298L1274,298Z" fill="%23356055" stroke="%23356055" stroke-width="1.51"/><path d="M1375,701L1375,601L1274,701Z" fill="%233c7063" stroke="%233c7063" stroke-width="1.51"/><path d="M64,601L64,701L165,701Z" fill="%232c413c" stroke="%232c413c" stroke-width="1.51"/><path d="M367,1004L468,1105L468,1004Z" fill="%23327b6c" stroke="%23327b6c" stroke-width="1.51"/><path d="M871,1105L971,1105L971,1004Z" fill="%23358574" stroke="%23358574" stroke-width="1.51"/><path d="M1274,802L1375,701L1274,701Z" fill="%233f7266" stroke="%233f7266" stroke-width="1.51"/><path d="M165,97L64,197L165,197Z" fill="%23283737" stroke="%23283737" stroke-width="1.51"/><path d="M64,97L64,197L165,97Z" fill="%23263433" stroke="%23263433" stroke-width="1.51"/><path d="M165,-4L165,97L266,-4Z" fill="%23243030" stroke="%23243030" stroke-width="1.51"/><path d="M1375,298L1375,197L1274,197Z" fill="%23366259" stroke="%23366259" stroke-width="1.51"/><path d="M1274,-4L1173,-105L1173,-4Z" fill="%232b433e" stroke="%232b433e" stroke-width="1.51"/><path d="M1173,-4L1173,-105L1072,-105Z" fill="%23283b36" stroke="%23283b36" stroke-width="1.51"/><path d="M266,-105L165,-4L266,-4Z" fill="%23212c2c" stroke="%23212c2c" stroke-width="1.51"/><path d="M64,802L165,903L165,802Z" fill="%2332554f" stroke="%2332554f" stroke-width="1.51"/><path d="M165,802L165,903L266,903Z" fill="%23355f57" stroke="%23355f57" stroke-width="1.51"/><path d="M266,903L266,1004L367,1004Z" fill="%23367268" stroke="%23367268" stroke-width="1.51"/><path d="M367,1004L367,1105L468,1105Z" fill="%23327d6f" stroke="%23327d6f" stroke-width="1.51"/><path d="M367,-105L266,-105L266,-4Z" fill="%23202b2b" stroke="%23202b2b" stroke-width="1.51"/><path d="M165,903L266,1004L266,903Z" fill="%23356b61" stroke="%23356b61" stroke-width="1.51"/><path d="M1274,-4L1173,-4L1274,97Z" fill="%23304d47" stroke="%23304d47" stroke-width="1.51"/><path d="M1072,1105L1173,1004L1072,1004Z" fill="%233a8d7b" stroke="%233a8d7b" stroke-width="1.51"/><path d="M1072,1004L1173,1004L1173,903Z" fill="%233d8575" stroke="%233d8575" stroke-width="1.51"/><path d="M1173,903L1274,903L1274,802Z" fill="%233f7e70" stroke="%233f7e70" stroke-width="1.51"/><path d="M1274,802L1375,802L1375,701Z" fill="%23407a6c" stroke="%23407a6c" stroke-width="1.51"/><path d="M1375,97L1274,-4L1274,97Z" fill="%23325750" stroke="%23325750" stroke-width="1.51"/><path d="M1173,1004L1274,903L1173,903Z" fill="%233e8575" stroke="%233e8575" stroke-width="1.51"/><path d="M165,-4L64,97L165,97Z" fill="%23232f2f" stroke="%23232f2f" stroke-width="1.51"/><path d="M64,701L64,802L165,802Z" fill="%23304a45" stroke="%23304a45" stroke-width="1.51"/><path d="M266,1004L367,1105L367,1004Z" fill="%23347c6e" stroke="%23347c6e" stroke-width="1.51"/><path d="M971,1105L1072,1105L1072,1004Z" fill="%23378c79" stroke="%23378c79" stroke-width="1.51"/><path d="M1375,197L1375,97L1274,97Z" fill="%23376159" stroke="%23376159" stroke-width="1.51"/><path d="M1274,903L1375,802L1274,802Z" fill="%233f8071" stroke="%233f8071" stroke-width="1.51"/><path d="M1375,298L1475,298L1375,197Z" fill="%2335675d" stroke="%2335675d" stroke-width="1.51"/><path d="M1375,197L1475,197L1375,97Z" fill="%23376960" stroke="%23376960" stroke-width="1.51"/><path d="M1375,399L1475,399L1375,298Z" fill="%23346559" stroke="%23346559" stroke-width="1.51"/><path d="M1375,500L1475,399L1375,399Z" fill="%23336457" stroke="%23336457" stroke-width="1.51"/><path d="M1475,500L1475,399L1375,500Z" fill="%2332685a" stroke="%2332685a" stroke-width="1.51"/><path d="M1475,500L1375,500L1375,601Z" fill="%23356a5d" stroke="%23356a5d" stroke-width="1.51"/><path d="M1475,500L1375,601L1475,601Z" fill="%23367163" stroke="%23367163" stroke-width="1.51"/><path d="M1475,601L1375,601L1375,701Z" fill="%233a7365" stroke="%233a7365" stroke-width="1.51"/><path d="M64,298L-37,399L64,399Z" fill="%23212d2a" stroke="%23212d2a" stroke-width="1.51"/><path d="M64,399L-37,399L64,500Z" fill="%23202c28" stroke="%23202c28" stroke-width="1.51"/><path d="M64,500L-37,500L64,601Z" fill="%2323322e" stroke="%2323322e" stroke-width="1.51"/><path d="M64,601L-37,601L64,701Z" fill="%23273a35" stroke="%23273a35" stroke-width="1.51"/><path d="M64,701L-37,701L64,802Z" fill="%232c423d" stroke="%232c423d" stroke-width="1.51"/><path d="M-37,298L-37,399L64,298Z" fill="%23202c29" stroke="%23202c29" stroke-width="1.51"/><path d="M-37,298L64,298L64,197Z" fill="%23222f2e" stroke="%23222f2e" stroke-width="1.51"/><path d="M-37,399L-37,500L64,500Z" fill="%231f2b27" stroke="%231f2b27" stroke-width="1.51"/><path d="M1475,399L1475,298L1375,298Z" fill="%2334695d" stroke="%2334695d" stroke-width="1.51"/><path d="M1475,701L1475,601L1375,701Z" fill="%233b796b" stroke="%233b796b" stroke-width="1.51"/><path d="M-37,197L-37,298L64,197Z" fill="%23222e2d" stroke="%23222e2d" stroke-width="1.51"/><path d="M-37,500L-37,601L64,601Z" fill="%2323322f" stroke="%2323322f" stroke-width="1.51"/><path d="M266,-105L165,-105L165,-4Z" fill="%231d2727" stroke="%231d2727" stroke-width="1.51"/><path d="M165,-4L64,-4L64,97Z" fill="%23202a29" stroke="%23202a29" stroke-width="1.51"/><path d="M64,97L-37,197L64,197Z" fill="%23243131" stroke="%23243131" stroke-width="1.51"/><path d="M64,903L165,903L64,802Z" fill="%23305850" stroke="%23305850" stroke-width="1.51"/><path d="M64,903L165,1004L165,903Z" fill="%2331645a" stroke="%2331645a" stroke-width="1.51"/><path d="M165,903L165,1004L266,1004Z" fill="%23336e63" stroke="%23336e63" stroke-width="1.51"/><path d="M266,1004L266,1105L367,1105Z" fill="%23337f71" stroke="%23337f71" stroke-width="1.51"/><path d="M1375,-4L1274,-105L1274,-4Z" fill="%232c4c45" stroke="%232c4c45" stroke-width="1.51"/><path d="M1274,-4L1274,-105L1173,-105Z" fill="%2329433d" stroke="%2329433d" stroke-width="1.51"/><path d="M1173,1105L1274,1004L1173,1004Z" fill="%233b9582" stroke="%233b9582" stroke-width="1.51"/><path d="M1173,1004L1274,1004L1274,903Z" fill="%233d8e7c" stroke="%233d8e7c" stroke-width="1.51"/><path d="M1274,903L1375,903L1375,802Z" fill="%233e8878" stroke="%233e8878" stroke-width="1.51"/><path d="M1475,802L1475,701L1375,802Z" fill="%233e8474" stroke="%233e8474" stroke-width="1.51"/><path d="M1375,802L1475,701L1375,701Z" fill="%233e7c6e" stroke="%233e7c6e" stroke-width="1.51"/><path d="M1375,97L1375,-4L1274,-4Z" fill="%2330564e" stroke="%2330564e" stroke-width="1.51"/><path d="M1475,298L1475,197L1375,197Z" fill="%23356b61" stroke="%23356b61" stroke-width="1.51"/><path d="M165,-105L64,-4L165,-4Z" fill="%231d2626" stroke="%231d2626" stroke-width="1.51"/><path d="M-37,802L64,903L64,802Z" fill="%232d4e48" stroke="%232d4e48" stroke-width="1.51"/><path d="M165,1004L266,1105L266,1004Z" fill="%23337a6d" stroke="%23337a6d" stroke-width="1.51"/><path d="M1072,1105L1173,1105L1173,1004Z" fill="%233a927f" stroke="%233a927f" stroke-width="1.51"/><path d="M1475,97L1375,-4L1375,97Z" fill="%23326057" stroke="%23326057" stroke-width="1.51"/><path d="M1274,1004L1375,903L1274,903Z" fill="%233c8f7d" stroke="%233c8f7d" stroke-width="1.51"/><path d="M-37,601L-37,701L64,701Z" fill="%23283a36" stroke="%23283a36" stroke-width="1.51"/><path d="M-37,97L-37,197L64,97Z" fill="%23222d2d" stroke="%23222d2d" stroke-width="1.51"/><path d="M1475,197L1475,97L1375,97Z" fill="%23366b61" stroke="%23366b61" stroke-width="1.51"/><path d="M1375,903L1475,802L1375,802Z" fill="%233d8a79" stroke="%233d8a79" stroke-width="1.51"/><path d="M64,-4L-37,97L64,97Z" fill="%231f2929" stroke="%231f2929" stroke-width="1.51"/><path d="M-37,701L-37,802L64,802Z" fill="%232c433e" stroke="%232c433e" stroke-width="1.51"/><path d="M-37,298L-137,399L-37,399Z" fill="%231d2624" stroke="%231d2624" stroke-width="1.51"/><path d="M-37,399L-137,399L-37,500Z" fill="%231c2622" stroke="%231c2622" stroke-width="1.51"/><path d="M-37,500L-137,500L-37,601Z" fill="%231f2b27" stroke="%231f2b27" stroke-width="1.51"/><path d="M-37,601L-137,601L-37,701Z" fill="%2323332f" stroke="%2323332f" stroke-width="1.51"/><path d="M-37,701L-137,701L-37,802Z" fill="%23273b36" stroke="%23273b36" stroke-width="1.51"/><path d="M-137,298L-137,399L-37,298Z" fill="%231c2523" stroke="%231c2523" stroke-width="1.51"/><path d="M-137,298L-37,298L-37,197Z" fill="%231e2827" stroke="%231e2827" stroke-width="1.51"/><path d="M-137,399L-137,500L-37,500Z" fill="%231a2420" stroke="%231a2420" stroke-width="1.51"/><path d="M1475,298L1576,298L1475,197Z" fill="%23347165" stroke="%23347165" stroke-width="1.51"/><path d="M1475,197L1576,197L1475,97Z" fill="%23367368" stroke="%23367368" stroke-width="1.51"/><path d="M1475,399L1576,399L1475,298Z" fill="%23336e61" stroke="%23336e61" stroke-width="1.51"/><path d="M1475,500L1576,399L1475,399Z" fill="%23326d5f" stroke="%23326d5f" stroke-width="1.51"/><path d="M1576,500L1576,399L1475,500Z" fill="%23317262" stroke="%23317262" stroke-width="1.51"/><path d="M1576,500L1475,500L1475,601Z" fill="%23347465" stroke="%23347465" stroke-width="1.51"/><path d="M1576,500L1475,601L1576,601Z" fill="%23357b6b" stroke="%23357b6b" stroke-width="1.51"/><path d="M1576,601L1475,601L1475,701Z" fill="%23387d6d" stroke="%23387d6d" stroke-width="1.51"/><path d="M165,-105L64,-105L64,-4Z" fill="%23192120" stroke="%23192120" stroke-width="1.51"/><path d="M64,-4L-37,-4L-37,97Z" fill="%231b2323" stroke="%231b2323" stroke-width="1.51"/><path d="M-37,903L64,1004L64,903Z" fill="%232c5c53" stroke="%232c5c53" stroke-width="1.51"/><path d="M64,903L64,1004L165,1004Z" fill="%232f665b" stroke="%232f665b" stroke-width="1.51"/><path d="M165,1004L165,1105L266,1105Z" fill="%23317a6d" stroke="%23317a6d" stroke-width="1.51"/><path d="M64,1004L165,1105L165,1004Z" fill="%232e7366" stroke="%232e7366" stroke-width="1.51"/><path d="M1274,1004L1375,1004L1375,903Z" fill="%233a9884" stroke="%233a9884" stroke-width="1.51"/><path d="M1375,903L1475,903L1475,802Z" fill="%233b9280" stroke="%233b9280" stroke-width="1.51"/><path d="M1173,1105L1274,1105L1274,1004Z" fill="%23399b86" stroke="%23399b86" stroke-width="1.51"/><path d="M1475,-4L1375,-105L1375,-4Z" fill="%232b554d" stroke="%232b554d" stroke-width="1.51"/><path d="M1375,-4L1375,-105L1274,-105Z" fill="%23294c44" stroke="%23294c44" stroke-width="1.51"/><path d="M1274,1105L1375,1004L1274,1004Z" fill="%23379f8a" stroke="%23379f8a" stroke-width="1.51"/><path d="M-137,197L-137,298L-37,197Z" fill="%231d2726" stroke="%231d2726" stroke-width="1.51"/><path d="M-137,500L-137,601L-37,601Z" fill="%231f2c28" stroke="%231f2c28" stroke-width="1.51"/><path d="M1576,399L1576,298L1475,298Z" fill="%23337365" stroke="%23337365" stroke-width="1.51"/><path d="M1475,97L1475,-4L1375,-4Z" fill="%232f6056" stroke="%232f6056" stroke-width="1.51"/><path d="M1576,701L1475,701L1475,802Z" fill="%233d8676" stroke="%233d8676" stroke-width="1.51"/><path d="M1576,701L1576,601L1475,701Z" fill="%23398373" stroke="%23398373" stroke-width="1.51"/><path d="M1576,97L1475,-4L1475,97Z" fill="%23316a5f" stroke="%23316a5f" stroke-width="1.51"/><path d="M1375,1004L1475,903L1375,903Z" fill="%23399985" stroke="%23399985" stroke-width="1.51"/><path d="M-37,97L-137,197L-37,197Z" fill="%231f2a2a" stroke="%231f2a2a" stroke-width="1.51"/><path d="M64,-105L-37,-4L64,-4Z" fill="%23181f1f" stroke="%23181f1f" stroke-width="1.51"/><path d="M-137,802L-37,903L-37,802Z" fill="%23294741" stroke="%23294741" stroke-width="1.51"/><path d="M-37,802L-37,903L64,903Z" fill="%232c5049" stroke="%232c5049" stroke-width="1.51"/><path d="M-137,601L-137,701L-37,701Z" fill="%2323332f" stroke="%2323332f" stroke-width="1.51"/><path d="M1576,802L1576,701L1475,802Z" fill="%233c8e7c" stroke="%233c8e7c" stroke-width="1.51"/><path d="M-137,97L-137,197L-37,97Z" fill="%231e2727" stroke="%231e2727" stroke-width="1.51"/><path d="M1576,298L1576,197L1475,197Z" fill="%23347569" stroke="%23347569" stroke-width="1.51"/><path d="M-37,-4L-137,97L-37,97Z" fill="%231b2323" stroke="%231b2323" stroke-width="1.51"/><path d="M-137,701L-137,802L-37,802Z" fill="%23273c37" stroke="%23273c37" stroke-width="1.51"/><path d="M1475,-4L1475,-105L1375,-105Z" fill="%2328554c" stroke="%2328554c" stroke-width="1.51"/><path d="M1576,197L1576,97L1475,97Z" fill="%23357569" stroke="%23357569" stroke-width="1.51"/><path d="M1475,903L1576,802L1475,802Z" fill="%233b9482" stroke="%233b9482" stroke-width="1.51"/><path d="M1576,903L1576,802L1475,903Z" fill="%23379d89" stroke="%23379d89" stroke-width="1.51"/><path d="M-37,1004L64,1004L-37,903Z" fill="%232b5f54" stroke="%232b5f54" stroke-width="1.51"/><path d="M-37,1004L64,1105L64,1004Z" fill="%23296b5f" stroke="%23296b5f" stroke-width="1.51"/><path d="M64,1004L64,1105L165,1105Z" fill="%232c7365" stroke="%232c7365" stroke-width="1.51"/><path d="M1274,1105L1375,1105L1375,1004Z" fill="%2335a58f" stroke="%2335a58f" stroke-width="1.51"/><path d="M1375,1004L1475,1004L1475,903Z" fill="%2336a28d" stroke="%2336a28d" stroke-width="1.51"/><path d="M1576,-4L1475,-105L1475,-4Z" fill="%232a5f54" stroke="%232a5f54" stroke-width="1.51"/><path d="M1375,1105L1475,1004L1375,1004Z" fill="%2332a992" stroke="%2332a992" stroke-width="1.51"/><path d="M-37,-4L-137,-4L-137,97Z" fill="%23171d1d" stroke="%23171d1d" stroke-width="1.51"/><path d="M64,-105L-37,-105L-37,-4Z" fill="%23151a1a" stroke="%23151a1a" stroke-width="1.51"/><path d="M-137,903L-37,1004L-37,903Z" fill="%2328554c" stroke="%2328554c" stroke-width="1.51"/><path d="M1576,197L1677,197L1576,97Z" fill="%23347d70" stroke="%23347d70" stroke-width="1.51"/><path d="M1576,298L1677,298L1576,197Z" fill="%23327b6d" stroke="%23327b6d" stroke-width="1.51"/><path d="M1576,399L1677,399L1576,298Z" fill="%23317869" stroke="%23317869" stroke-width="1.51"/><path d="M1576,500L1677,399L1576,399Z" fill="%23307766" stroke="%23307766" stroke-width="1.51"/><path d="M1677,500L1677,399L1576,500Z" fill="%232f7a68" stroke="%232f7a68" stroke-width="1.51"/><path d="M1677,500L1576,500L1576,601Z" fill="%23327e6d" stroke="%23327e6d" stroke-width="1.51"/><path d="M1677,500L1576,601L1677,601Z" fill="%23338371" stroke="%23338371" stroke-width="1.51"/><path d="M1677,601L1576,601L1576,701Z" fill="%23368775" stroke="%23368775" stroke-width="1.51"/><path d="M-37,-105L-137,-4L-37,-4Z" fill="%23141919" stroke="%23141919" stroke-width="1.51"/><path d="M-137,802L-137,903L-37,903Z" fill="%23274942" stroke="%23274942" stroke-width="1.51"/><path d="M1576,97L1576,-4L1475,-4Z" fill="%232d695e" stroke="%232d695e" stroke-width="1.51"/><path d="M1677,97L1576,-4L1576,97Z" fill="%232f7467" stroke="%232f7467" stroke-width="1.51"/><path d="M1677,701L1677,601L1576,701Z" fill="%23378c7a" stroke="%23378c7a" stroke-width="1.51"/><path d="M1475,1004L1576,903L1475,903Z" fill="%2335a48e" stroke="%2335a48e" stroke-width="1.51"/><path d="M1576,1004L1576,903L1475,1004Z" fill="%2330ac95" stroke="%2330ac95" stroke-width="1.51"/><path d="M1677,399L1677,298L1576,298Z" fill="%23317b6b" stroke="%23317b6b" stroke-width="1.51"/><path d="M1677,701L1576,701L1576,802Z" fill="%233a907e" stroke="%233a907e" stroke-width="1.51"/><path d="M1677,802L1677,701L1576,802Z" fill="%233a9683" stroke="%233a9683" stroke-width="1.51"/><path d="M1677,298L1677,197L1576,197Z" fill="%23327d6f" stroke="%23327d6f" stroke-width="1.51"/><path d="M1375,1105L1475,1105L1475,1004Z" fill="%232eaf97" stroke="%232eaf97" stroke-width="1.51"/><path d="M-137,1004L-37,1105L-37,1004Z" fill="%23256457" stroke="%23256457" stroke-width="1.51"/><path d="M-37,1004L-37,1105L64,1105Z" fill="%23286b5e" stroke="%23286b5e" stroke-width="1.51"/><path d="M-37,-105L-137,-105L-137,-4Z" fill="%23101414" stroke="%23101414" stroke-width="1.51"/><path d="M-137,903L-137,1004L-37,1004Z" fill="%2326574d" stroke="%2326574d" stroke-width="1.51"/><path d="M1576,-4L1576,-105L1475,-105Z" fill="%23275e53" stroke="%23275e53" stroke-width="1.51"/><path d="M1677,-4L1576,-105L1576,-4Z" fill="%2328685c" stroke="%2328685c" stroke-width="1.51"/><path d="M1475,1105L1576,1004L1475,1004Z" fill="%232bb49b" stroke="%232bb49b" stroke-width="1.51"/><path d="M1576,903L1677,802L1576,802Z" fill="%23379e8a" stroke="%23379e8a" stroke-width="1.51"/><path d="M1677,197L1677,97L1576,97Z" fill="%23337d70" stroke="%23337d70" stroke-width="1.51"/><path d="M1677,903L1677,802L1576,903Z" fill="%2334a690" stroke="%2334a690" stroke-width="1.51"/><path d="M1677,97L1677,-4L1576,-4Z" fill="%232c7164" stroke="%232c7164" stroke-width="1.51"/><path d="M1576,1004L1677,903L1576,903Z" fill="%232fae96" stroke="%232fae96" stroke-width="1.51"/><path d="M-137,1004L-137,1105L-37,1105Z" fill="%23236357" stroke="%23236357" stroke-width="1.51"/><path d="M1576,1004L1677,1004L1677,903Z" fill="%232ab59c" stroke="%232ab59c" stroke-width="1.51"/><path d="M1475,1105L1576,1105L1576,1004Z" fill="%2326baa0" stroke="%2326baa0" stroke-width="1.51"/><path d="M1677,-4L1677,-105L1576,-105Z" fill="%2325665a" stroke="%2325665a" stroke-width="1.51"/><path d="M1576,1105L1677,1004L1576,1004Z" fill="%2321bea3" stroke="%2321bea3" stroke-width="1.51"/><path d="M1576,1105L1677,1105L1677,1004Z" fill="%231bc3a7" stroke="%231bc3a7" stroke-width="1.51"/></svg>