<svg version="1" xmlns="http://www.w3.org/2000/svg" width="933.333" height="933.333" viewBox="0 0 700.000000 700.000000"><path d="M329.8.5c-.1.1-4.1.5-8.8.9-10 .7-22.5 2.2-29.5 3.6-2.7.5-6.1 1.2-7.5 1.4-59.6 10.9-120.6 40.9-166 81.7-12.6 11.4-17.8 16.6-33.1 33.5-10.7 11.8-28.6 37-38.6 54.5-15.8 27.4-30.9 65.6-36.9 93.2-2 9-5.3 27.2-5.9 32.2-.4 3.3-.9 6.9-1.1 8-1.8 9.8-2.5 57.1-1.1 71.5 1.2 10.9 2.7 22.6 4.1 29.5.2 1.1.6 3.6 1 5.5 4.9 27.2 15.6 59.5 28.3 85.7C66 566.3 115.9 619.6 178 654.6c25.4 14.4 46.1 23 78.5 32.7 11.1 3.3 35.4 8.3 45.8 9.3 3.4.3 6.5.8 6.8.9 1.5 1 22.7 2 40.9 2 18.8 0 34.1-.8 43-2.1 14.4-2.1 29.5-4.8 34.5-6.1 3.3-.8 6.7-1.6 7.5-1.8 10.9-2.2 38.8-11.7 55-18.8 11.9-5.1 30.5-14.6 35.2-17.8 1.4-1.1 2.9-1.9 3.3-1.9 1.3 0 26.9-17.5 36.2-24.8 18-14 34.4-29.4 47.6-44.7 3.3-3.9 6.3-7.2 6.7-7.5 1.8-1.4 18.2-23.8 24.6-33.6 31-47.8 50.3-103.9 55.2-160.9 1.3-15.9.7-54.2-1.2-69.5-.2-1.9-.7-5.8-1-8.6-.4-2.8-.8-5.9-1-7-.2-1-1.1-6-2.1-10.9-22.2-119-108.3-220.1-223.2-262.1-17.1-6.3-43.2-13.4-57.8-15.8-3.3-.5-22.3-3.2-29.5-4.2-4.7-.6-52.6-1.5-53.2-.9zM365 44.4c8 .4 15.4.8 16.5 1 1.1.2 4.7.7 8 1 6.4.7 22.4 3.5 29 5.1 21.2 5 40.4 11.6 59.3 20.2l6.3 2.9-3.8 3.5c-21.5 20-35.8 46.1-40.8 75-1.6 9.1-2.4 33.5-1.2 37.5.3 1 .9 3.9 1.2 6.4 1.8 12.8 7.8 29.7 15.2 42.5 23.8 41.3 65.9 66.1 113 66.6 8.3.1 7.7-.7 10.7 13.9 3.3 15.8 4.4 22.6 6.2 37.5.3 3.3.8 6.9 1 8 1.9 10.3 2.6 69.7 1.1 89-1.4 17.3-1.5 19.2-2.1 22.6-.2 1.9-.8 6.1-1.1 9.4-.4 3.3-.8 7.1-1 8.5-.3 1.4-.7 4.3-1 6.5-.4 2.2-.8 4.7-1 5.5-.2.8-.7 3.5-1 6-.4 2.5-1 6.3-1.5 8.5s-1.2 5.6-1.5 7.5c-.3 1.9-1.9 9.3-3.5 16.3-1.7 7-3.2 14.1-3.5 15.8-.8 4.2-19.3 21.6-37 34.7-3.8 2.8-7.4 5.5-8 6-6.9 5.5-39.7 23.8-51.5 28.7-2.5 1-6.3 2.6-8.5 3.6-10 4.2-33.7 11.8-43.8 13.8-21.6 4.5-20.3 4.3-34.7 6-15.8 1.9-20.4 2.1-36.5 2.1-32.1 0-58.5-4-90.4-13.6-13.1-4-29.1-10.4-29.1-11.7 0-.7 2.4-3.7 5.3-6.8 2.9-3.1 7.5-8.3 10.4-11.5 2.8-3.2 6.2-7.1 7.5-8.5 3.7-4.1 8.8-9.8 16.8-18.9 4.1-4.7 7.7-8.7 8-9 .3-.3 3.7-4.1 7.5-8.5 3.9-4.4 7.5-8.4 8.1-9 .5-.5 4.4-4.8 8.5-9.5 4-4.7 7.9-9 8.4-9.6.6-.6 3.9-4.4 7.5-8.4 3.6-4.1 7.4-8.4 8.5-9.6 1.2-1.2 4.8-5.3 8-9 3.3-3.6 6.5-7.2 7-7.8.6-.6 6.2-7 12.5-14.1 6.3-7.2 12.1-13.7 13-14.6.8-.9 4.2-4.7 7.5-8.4 3.3-3.8 7.9-9 10.2-11.5 2.4-2.5 5.3-6.5 6.5-9 2.3-4.4 2.3-5.3 2.4-40.8.1-22.7-.2-37.9-.9-40.5-1.4-5.5-9-13.2-14.3-14.5-2.2-.6-8-1.3-13.1-1.7-5-.3-10.2-.8-11.5-1-1.3-.3-3.9-.8-5.8-1.1-5.4-.9-22.1-5.4-25.5-6.9-1.6-.7-4.6-1.8-6.5-2.5-5.4-2-23.7-10.8-31.5-15.2-19.1-10.9-47.9-31.9-65.5-47.8-9.7-8.8-13.2-11.1-18-11.8-1.9-.3-24.4-.6-50-.6h-46.5l-4.5 2.3c-5 2.6-8.2 5.9-10.7 11.1-1.4 3.1-1.6 10.7-1.6 74 0 77.7-.3 74 6.3 80.7 2 2.1 16.8 10.1 41.8 22.6l38.7 19.5.3 64.2.2 64.1-5.7-4c-31.5-22-65.5-60.4-86.5-97.6-17.2-30.5-31.7-72.6-35.3-103.1-.4-2.6-.8-5.1-1-5.4-.2-.3-.7-4.6-1-9.5-.4-5-.9-10.6-1.1-12.5-.5-5.2-.5-30.4.1-39.5 1.1-17.1 5-40.2 9.9-59.8 2.5-9.6 9.8-30.6 14.2-40.6 4.3-9.6 4.7-10.1 8.4-10.2 1.9 0 21.1-.1 42.5-.2 36.1-.2 39.3-.3 42.8-2.1 5.3-2.6 95.1-92.5 97.9-97.9 2-4 2.2-5.6 2.2-33.1l.2-28.9 4.4-1.3c5-1.5 24.5-6 30-6.9 1.9-.3 4.2-.8 5-1 .8-.2 4.7-.7 8.5-1.1 3.9-.3 7.2-.8 7.6-.9.3-.2 7-.7 15-1.1 7.9-.3 14.6-.8 14.7-.9.2-.2.9-.2 1.5 0 .7.2 7.7.6 15.7.9z"/></svg>